<svg width="210" height="144" viewBox="0 0 210 144" fill="none" xmlns="http://www.w3.org/2000/svg">
<g filter="url(#filter0_d_2519_74)">
<g clip-path="url(#clip0_2519_74)">
<rect x="35" y="1" width="140" height="140" rx="70" fill="#E8E8E8"/>
<g filter="url(#filter1_d_2519_74)">
<rect x="65" y="47" width="80" height="94" rx="4" fill="white" shape-rendering="crispEdges"/>
<rect x="73" y="55" width="24" height="4" rx="2" fill="#599CED"/>
<rect x="73" y="65" width="64" height="4" rx="2" fill="#E9F1FE"/>
<rect x="73" y="73" width="64" height="4" rx="2" fill="#E9F1FE"/>
<rect x="73" y="81" width="64" height="4" rx="2" fill="#E9F1FE"/>
<rect x="73" y="89" width="64" height="4" rx="2" fill="#E9F1FE"/>
<rect x="73" y="97" width="64" height="4" rx="2" fill="#E9F1FE"/>
<rect x="73" y="105" width="64" height="4" rx="2" fill="#E9F1FE"/>
<rect x="73" y="113" width="64" height="4" rx="2" fill="#E9F1FE"/>
<rect x="73" y="121" width="64" height="4" rx="2" fill="#E9F1FE"/>
<rect x="73" y="129" width="42" height="4" rx="2" fill="#E9F1FE"/>
</g>
<rect x="129" y="39" width="24" height="24" rx="12" fill="#1473E6"/>
<path d="M144.968 46.9014L139.33 53.5212L136.908 50.7692C136.83 50.6811 136.736 50.6091 136.63 50.5575C136.525 50.5058 136.41 50.4753 136.293 50.4679C136.176 50.4605 136.059 50.4763 135.948 50.5143C135.836 50.5523 135.734 50.6118 135.646 50.6894C135.558 50.767 135.486 50.8612 135.434 50.9666C135.382 51.0721 135.352 51.1866 135.345 51.3038C135.337 51.421 135.353 51.5385 135.391 51.6496C135.429 51.7607 135.488 51.8632 135.566 51.9513L138.671 55.4778C138.755 55.5734 138.858 55.65 138.973 55.7024C139.089 55.7548 139.215 55.7819 139.342 55.7818H139.349C139.477 55.7805 139.604 55.7517 139.72 55.6975C139.836 55.6433 139.94 55.5648 140.023 55.4673L146.331 48.0614C146.484 47.8806 146.559 47.6465 146.54 47.4103C146.521 47.1742 146.408 46.9553 146.228 46.8017C146.048 46.6481 145.814 46.5724 145.577 46.5911C145.341 46.6098 145.122 46.7214 144.968 46.9014Z" fill="white"/>
</g>
</g>
<defs>
<filter id="filter0_d_2519_74" x="33" y="0" width="144" height="144" filterUnits="userSpaceOnUse" color-interpolation-filters="sRGB">
<feFlood flood-opacity="0" result="BackgroundImageFix"/>
<feColorMatrix in="SourceAlpha" type="matrix" values="0 0 0 0 0 0 0 0 0 0 0 0 0 0 0 0 0 0 127 0" result="hardAlpha"/>
<feOffset dy="1"/>
<feGaussianBlur stdDeviation="1"/>
<feComposite in2="hardAlpha" operator="out"/>
<feColorMatrix type="matrix" values="0 0 0 0 0 0 0 0 0 0 0 0 0 0 0 0 0 0 0.16 0"/>
<feBlend mode="normal" in2="BackgroundImageFix" result="effect1_dropShadow_2519_74"/>
<feBlend mode="normal" in="SourceGraphic" in2="effect1_dropShadow_2519_74" result="shape"/>
</filter>
<filter id="filter1_d_2519_74" x="61" y="44" width="88" height="102" filterUnits="userSpaceOnUse" color-interpolation-filters="sRGB">
<feFlood flood-opacity="0" result="BackgroundImageFix"/>
<feColorMatrix in="SourceAlpha" type="matrix" values="0 0 0 0 0 0 0 0 0 0 0 0 0 0 0 0 0 0 127 0" result="hardAlpha"/>
<feOffset dy="1"/>
<feGaussianBlur stdDeviation="2"/>
<feComposite in2="hardAlpha" operator="out"/>
<feColorMatrix type="matrix" values="0 0 0 0 0 0 0 0 0 0 0 0 0 0 0 0 0 0 0.12 0"/>
<feBlend mode="normal" in2="BackgroundImageFix" result="effect1_dropShadow_2519_74"/>
<feBlend mode="normal" in="SourceGraphic" in2="effect1_dropShadow_2519_74" result="shape"/>
</filter>
<clipPath id="clip0_2519_74">
<rect x="35" y="1" width="140" height="140" rx="70" fill="white"/>
</clipPath>
</defs>
</svg>
