<svg width="210" height="140" viewBox="0 0 210 140" fill="none" xmlns="http://www.w3.org/2000/svg">
<g clip-path="url(#clip0_2519_74)">
<rect x="35" width="140" height="140" rx="70" fill="#E8E8E8"/>
<g filter="url(#filter0_d_2519_74)">
<rect x="65" y="46" width="80" height="94" rx="4" fill="white" shape-rendering="crispEdges"/>
<rect x="73" y="54" width="24" height="4" rx="2" fill="#599CED"/>
<rect x="73" y="64" width="64" height="4" rx="2" fill="#E9F1FE"/>
<rect x="73" y="72" width="64" height="4" rx="2" fill="#E9F1FE"/>
<rect x="73" y="80" width="64" height="4" rx="2" fill="#E9F1FE"/>
<rect x="73" y="88" width="64" height="4" rx="2" fill="#E9F1FE"/>
<rect x="73" y="96" width="64" height="4" rx="2" fill="#E9F1FE"/>
<rect x="73" y="104" width="64" height="4" rx="2" fill="#E9F1FE"/>
<rect x="73" y="112" width="64" height="4" rx="2" fill="#E9F1FE"/>
<rect x="73" y="120" width="64" height="4" rx="2" fill="#E9F1FE"/>
<rect x="73" y="128" width="42" height="4" rx="2" fill="#E9F1FE"/>
</g>
<rect x="129" y="38" width="24" height="24" rx="12" fill="#1473E6"/>
<path d="M144.968 45.9014L139.33 52.5212L136.908 49.7692C136.83 49.6811 136.736 49.6091 136.63 49.5575C136.525 49.5058 136.41 49.4753 136.293 49.4679C136.176 49.4605 136.059 49.4763 135.948 49.5143C135.836 49.5523 135.734 49.6118 135.646 49.6894C135.558 49.767 135.486 49.8612 135.434 49.9666C135.382 50.0721 135.352 50.1866 135.345 50.3038C135.337 50.421 135.353 50.5385 135.391 50.6496C135.429 50.7607 135.488 50.8632 135.566 50.9513L138.671 54.4778C138.755 54.5734 138.858 54.65 138.973 54.7024C139.089 54.7548 139.215 54.7819 139.342 54.7818H139.349C139.477 54.7805 139.604 54.7517 139.72 54.6975C139.836 54.6433 139.94 54.5648 140.023 54.4673L146.331 47.0614C146.484 46.8806 146.559 46.6465 146.54 46.4103C146.521 46.1742 146.408 45.9553 146.228 45.8017C146.048 45.6481 145.814 45.5724 145.577 45.5911C145.341 45.6098 145.122 45.7214 144.968 45.9014Z" fill="white"/>
</g>
<defs>
<filter id="filter0_d_2519_74" x="61" y="43" width="88" height="102" filterUnits="userSpaceOnUse" color-interpolation-filters="sRGB">
<feFlood flood-opacity="0" result="BackgroundImageFix"/>
<feColorMatrix in="SourceAlpha" type="matrix" values="0 0 0 0 0 0 0 0 0 0 0 0 0 0 0 0 0 0 127 0" result="hardAlpha"/>
<feOffset dy="1"/>
<feGaussianBlur stdDeviation="2"/>
<feComposite in2="hardAlpha" operator="out"/>
<feColorMatrix type="matrix" values="0 0 0 0 0 0 0 0 0 0 0 0 0 0 0 0 0 0 0.12 0"/>
<feBlend mode="normal" in2="BackgroundImageFix" result="effect1_dropShadow_2519_74"/>
<feBlend mode="normal" in="SourceGraphic" in2="effect1_dropShadow_2519_74" result="shape"/>
</filter>
<clipPath id="clip0_2519_74">
<rect x="35" width="140" height="140" rx="70" fill="white"/>
</clipPath>
</defs>
</svg>
