<?xml version="1.0" encoding="utf-8"?>
<!-- Generator: Adobe Illustrator 22.0.1, SVG Export Plug-In . SVG Version: 6.00 Build 0)  -->
<svg version="1.1" id="Layer_1" xmlns="http://www.w3.org/2000/svg" xmlns:xlink="http://www.w3.org/1999/xlink" x="0px" y="0px"
	 viewBox="0 0 215 215" style="enable-background:new 0 0 215 215;" xml:space="preserve">
<style type="text/css">
	.st0{fill:url(#SVGID_1_);}
	.st1{opacity:0.2;clip-path:url(#SVGID_3_);fill:#1473E6;}
	.st2{opacity:0.1;clip-path:url(#SVGID_5_);fill:#1473E6;}
	.st3{fill:#F9FBFC;}
	.st4{opacity:0.7;fill:#F9FBFC;}
	.st5{fill:url(#SVGID_6_);}
	.st6{fill:#F5F5F5;}
	.st7{fill:#60AFFF;}
	.st8{fill:#FFCC4D;}
	.st9{fill:#9BE4EC;}
	.st10{fill:#14CEE6;}
	.st11{fill:url(#SVGID_7_);}
	.st12{opacity:0.2;clip-path:url(#SVGID_9_);fill:#1473E6;}
	.st13{opacity:0.1;clip-path:url(#SVGID_11_);fill:#1473E6;}
	.st14{fill:url(#SVGID_12_);}
	.st15{fill:url(#SVGID_13_);}
	.st16{opacity:0.1;clip-path:url(#SVGID_15_);fill:#1473E6;}
	.st17{fill:#FFE49D;}
	.st18{clip-path:url(#SVGID_17_);fill:url(#SVGID_18_);}
	.st19{clip-path:url(#SVGID_17_);fill:url(#SVGID_19_);}
	.st20{fill:url(#SVGID_20_);}
	.st21{fill:url(#SVGID_21_);}
	.st22{opacity:0.25;clip-path:url(#SVGID_23_);fill:#1473E6;}
	.st23{fill:url(#SVGID_24_);}
	.st24{fill:url(#SVGID_25_);}
	.st25{opacity:0.1;clip-path:url(#SVGID_27_);fill:#1473E6;}
	.st26{clip-path:url(#SVGID_29_);fill:url(#SVGID_30_);}
	.st27{clip-path:url(#SVGID_29_);fill:url(#SVGID_31_);}
	.st28{fill:url(#SVGID_32_);}
	.st29{fill:url(#SVGID_33_);}
	.st30{opacity:0.25;clip-path:url(#SVGID_35_);fill:#1473E6;}
	.st31{fill:url(#SVGID_36_);}
	.st32{fill:url(#SVGID_37_);}
	.st33{opacity:0.2;clip-path:url(#SVGID_39_);fill:#1473E6;}
	.st34{opacity:0.1;clip-path:url(#SVGID_41_);fill:#1473E6;}
	.st35{fill:url(#SVGID_42_);}
	.st36{opacity:5.000000e-02;}
	.st37{opacity:5.000000e-02;clip-path:url(#SVGID_44_);}
	.st38{opacity:0.9;}
	.st39{fill:#FFFFFF;}
	.st40{opacity:0.9;fill:#FFFFFF;}
	.st41{fill:#EBEFF2;}
	.st42{opacity:5.000000e-02;clip-path:url(#SVGID_48_);}
	.st43{fill:url(#SVGID_51_);}
	.st44{opacity:0.1;clip-path:url(#SVGID_53_);fill:#1473E6;}
	.st45{clip-path:url(#SVGID_55_);fill:url(#SVGID_56_);}
	.st46{clip-path:url(#SVGID_55_);fill:url(#SVGID_57_);}
	.st47{fill:url(#SVGID_58_);}
	.st48{fill:url(#SVGID_59_);}
	.st49{opacity:0.25;clip-path:url(#SVGID_61_);fill:#1473E6;}
	.st50{fill:url(#SVGID_62_);}
	.st51{opacity:0.9;clip-path:url(#SVGID_66_);fill:#FFFFFF;}
	.st52{opacity:5.000000e-02;clip-path:url(#SVGID_68_);}
	.st53{opacity:0.9;clip-path:url(#SVGID_72_);fill:#FFFFFF;}
	.st54{opacity:5.000000e-02;clip-path:url(#SVGID_74_);}
	.st55{fill:none;}
	.st56{fill:url(#SVGID_75_);}
	.st57{opacity:0.2;clip-path:url(#SVGID_77_);fill:#1473E6;}
	.st58{opacity:0.1;clip-path:url(#SVGID_79_);fill:#1473E6;}
	.st59{fill:url(#SVGID_80_);}
	.st60{fill:url(#SVGID_81_);}
	.st61{opacity:0.1;clip-path:url(#SVGID_83_);fill:#1473E6;}
	.st62{clip-path:url(#SVGID_85_);fill:url(#SVGID_86_);}
	.st63{clip-path:url(#SVGID_85_);fill:url(#SVGID_87_);}
	.st64{fill:url(#SVGID_88_);}
	.st65{fill:url(#SVGID_89_);}
	.st66{opacity:0.25;clip-path:url(#SVGID_91_);fill:#1473E6;}
	.st67{fill:url(#SVGID_92_);}
	.st68{opacity:5.000000e-02;clip-path:url(#SVGID_94_);}
	.st69{clip-path:url(#SVGID_96_);fill:#FFFFFF;}
	.st70{opacity:5.000000e-02;clip-path:url(#SVGID_98_);}
</style>
<g>
	<g>
		<linearGradient id="SVGID_1_" gradientUnits="userSpaceOnUse" x1="162.645" y1="170.4198" x2="59.49" y2="40.0151">
			<stop  offset="0" style="stop-color:#60AFFF"/>
			<stop  offset="0.3411" style="stop-color:#49B8F8"/>
			<stop  offset="1" style="stop-color:#14CEE6"/>
		</linearGradient>
		<path class="st0" d="M155.3,174H65.8c-4.6,0-8.3-3.7-8.3-8.3V43.3c0-4.6,3.7-8.3,8.3-8.3h89.5c4.6,0,8.3,3.7,8.3,8.3v122.5
			C163.5,170.3,159.8,174,155.3,174z"/>
	</g>
	<g>
		<defs>
			<path id="SVGID_76_" d="M155.3,174H65.7c-4.5,0-8.2-3.7-8.2-8.2V43.2c0-4.5,3.7-8.2,8.2-8.2h89.6c4.5,0,8.2,3.7,8.2,8.2v122.6
				C163.5,170.3,159.8,174,155.3,174z"/>
		</defs>
		<clipPath id="SVGID_3_">
			<use xlink:href="#SVGID_76_"  style="overflow:visible;"/>
		</clipPath>
		<path class="st1" d="M87.7,175H47.3c-2.1,0-3.8-1.7-3.8-3.8v-50.3c0-2.1,1.7-3.8,3.8-3.8h40.3c2.1,0,3.8,1.7,3.8,3.8v50.3
			C91.5,173.3,89.8,175,87.7,175z"/>
	</g>
	<g>
		<defs>
			<path id="SVGID_78_" d="M155.2,174H65.8c-4.6,0-8.3-3.7-8.3-8.3V43.3c0-4.6,3.7-8.3,8.3-8.3h89.5c4.6,0,8.3,3.7,8.3,8.3v122.5
				C163.5,170.3,159.8,174,155.2,174z"/>
		</defs>
		<clipPath id="SVGID_5_">
			<use xlink:href="#SVGID_78_"  style="overflow:visible;"/>
		</clipPath>
		<circle class="st2" cx="129.5" cy="115" r="84"/>
	</g>
	<g>
		<path class="st4" d="M132.3,59.5H88.7c-1.7,0-3.2-1.4-3.2-3.2v-2.2c0-1.7,1.4-3.2,3.2-3.2h43.7c1.7,0,3.2,1.4,3.2,3.2v2.2
			C135.5,58.1,134.1,59.5,132.3,59.5z"/>
		<path class="st4" d="M124,82.5H74.5c-1.1,0-2-0.9-2-2v-3c0-1.1,0.9-2,2-2H124c1.1,0,2,0.9,2,2v3C126,81.6,125.1,82.5,124,82.5z"/>
		<path class="st4" d="M146.5,105h-72c-1.1,0-2-0.9-2-2v-3c0-1.1,0.9-2,2-2h72c1.1,0,2,0.9,2,2v3C148.5,104.1,147.6,105,146.5,105z"
			/>
		<path class="st4" d="M115.5,131h-48c-1.1,0-2-0.9-2-2v-3c0-1.1,0.9-2,2-2h48c1.1,0,2,0.9,2,2v3C117.5,130.1,116.6,131,115.5,131z"
			/>
		<path class="st4" d="M146.5,150h-79c-1.1,0-2-0.9-2-2v-3c0-1.1,0.9-2,2-2h79c1.1,0,2,0.9,2,2v3C148.5,149.1,147.6,150,146.5,150z"
			/>
	</g>
	<g>
		<linearGradient id="SVGID_6_" gradientUnits="userSpaceOnUse" x1="39.818" y1="126.7059" x2="84.4" y2="176.0292">
			<stop  offset="0" style="stop-color:#FFDC8D"/>
			<stop  offset="1" style="stop-color:#FFCC4D"/>
		</linearGradient>
		<path class="st5" d="M82.8,180H42.5c-2.1,0-3.8-1.7-3.8-3.8v-48.3c0-2.1,1.7-3.8,3.8-3.8h40.3c2.1,0,3.8,1.7,3.8,3.8v48.3
			C86.7,178.3,85,180,82.8,180z"/>
		<circle class="st6" cx="62.7" cy="145.5" r="9.5"/>
		<path class="st6" d="M77,164.8H48.3c-0.6,0-1.2-0.5-1.2-1.2v-0.2c0-0.6,0.5-1.2,1.2-1.2H77c0.6,0,1.2,0.5,1.2,1.2v0.2
			C78.2,164.2,77.7,164.8,77,164.8z"/>
		<path class="st6" d="M76.7,170.8H48c-0.6,0-1.2-0.5-1.2-1.2v-0.2c0-0.6,0.5-1.2,1.2-1.2h28.7c0.6,0,1.2,0.5,1.2,1.2v0.2
			C77.8,170.2,77.3,170.8,76.7,170.8z"/>
	</g>
</g>
</svg>
