<?xml version="1.0" encoding="utf-8"?>
<!-- Generator: Adobe Illustrator 22.0.1, SVG Export Plug-In . SVG Version: 6.00 Build 0)  -->
<svg version="1.1" id="Layer_1" xmlns="http://www.w3.org/2000/svg" xmlns:xlink="http://www.w3.org/1999/xlink" x="0px" y="0px"
	 viewBox="0 0 215 215" style="enable-background:new 0 0 215 215;" xml:space="preserve">
<style type="text/css">
	.st0{fill:url(#SVGID_1_);}
	.st1{opacity:0.2;clip-path:url(#SVGID_3_);fill:#1473E6;}
	.st2{opacity:0.1;clip-path:url(#SVGID_5_);fill:#1473E6;}
	.st3{fill:#F9FBFC;}
	.st4{opacity:0.7;fill:#F9FBFC;}
	.st5{fill:url(#SVGID_6_);}
	.st6{fill:#F5F5F5;}
	.st7{fill:#60AFFF;}
	.st8{fill:#FFCC4D;}
	.st9{fill:#9BE4EC;}
	.st10{fill:#14CEE6;}
	.st11{fill:url(#SVGID_7_);}
	.st12{opacity:0.2;clip-path:url(#SVGID_9_);fill:#1473E6;}
	.st13{opacity:0.1;clip-path:url(#SVGID_11_);fill:#1473E6;}
	.st14{fill:url(#SVGID_12_);}
	.st15{fill:url(#SVGID_13_);}
	.st16{opacity:0.1;clip-path:url(#SVGID_15_);fill:#1473E6;}
	.st17{fill:#FFE49D;}
	.st18{clip-path:url(#SVGID_17_);fill:url(#SVGID_18_);}
	.st19{clip-path:url(#SVGID_17_);fill:url(#SVGID_19_);}
	.st20{fill:url(#SVGID_20_);}
	.st21{fill:url(#SVGID_21_);}
	.st22{opacity:0.25;clip-path:url(#SVGID_23_);fill:#1473E6;}
	.st23{fill:url(#SVGID_24_);}
	.st24{fill:url(#SVGID_25_);}
	.st25{opacity:0.1;clip-path:url(#SVGID_27_);fill:#1473E6;}
	.st26{clip-path:url(#SVGID_29_);fill:url(#SVGID_30_);}
	.st27{clip-path:url(#SVGID_29_);fill:url(#SVGID_31_);}
	.st28{fill:url(#SVGID_32_);}
	.st29{fill:url(#SVGID_33_);}
	.st30{opacity:0.25;clip-path:url(#SVGID_35_);fill:#1473E6;}
	.st31{fill:url(#SVGID_36_);}
	.st32{fill:url(#SVGID_37_);}
	.st33{opacity:0.2;clip-path:url(#SVGID_39_);fill:#1473E6;}
	.st34{opacity:0.1;clip-path:url(#SVGID_41_);fill:#1473E6;}
	.st35{fill:url(#SVGID_42_);}
	.st36{opacity:5.000000e-02;}
	.st37{opacity:5.000000e-02;clip-path:url(#SVGID_44_);}
	.st38{opacity:0.9;}
	.st39{fill:#FFFFFF;}
	.st40{opacity:0.9;fill:#FFFFFF;}
	.st41{fill:#EBEFF2;}
	.st42{opacity:5.000000e-02;clip-path:url(#SVGID_48_);}
	.st43{fill:url(#SVGID_51_);}
	.st44{opacity:0.1;clip-path:url(#SVGID_53_);fill:#1473E6;}
	.st45{clip-path:url(#SVGID_55_);fill:url(#SVGID_56_);}
	.st46{clip-path:url(#SVGID_55_);fill:url(#SVGID_57_);}
	.st47{fill:url(#SVGID_58_);}
	.st48{fill:url(#SVGID_59_);}
	.st49{opacity:0.25;clip-path:url(#SVGID_61_);fill:#1473E6;}
	.st50{fill:url(#SVGID_62_);}
	.st51{opacity:0.9;clip-path:url(#SVGID_66_);fill:#FFFFFF;}
	.st52{opacity:5.000000e-02;clip-path:url(#SVGID_68_);}
	.st53{opacity:0.9;clip-path:url(#SVGID_72_);fill:#FFFFFF;}
	.st54{opacity:5.000000e-02;clip-path:url(#SVGID_74_);}
	.st55{fill:none;}
	.st56{fill:url(#SVGID_75_);}
	.st57{opacity:0.2;clip-path:url(#SVGID_77_);fill:#1473E6;}
	.st58{opacity:0.1;clip-path:url(#SVGID_79_);fill:#1473E6;}
	.st59{fill:url(#SVGID_80_);}
	.st60{fill:url(#SVGID_81_);}
	.st61{opacity:0.1;clip-path:url(#SVGID_83_);fill:#1473E6;}
	.st62{clip-path:url(#SVGID_85_);fill:url(#SVGID_86_);}
	.st63{clip-path:url(#SVGID_85_);fill:url(#SVGID_87_);}
	.st64{fill:url(#SVGID_88_);}
	.st65{fill:url(#SVGID_89_);}
	.st66{opacity:0.25;clip-path:url(#SVGID_91_);fill:#1473E6;}
	.st67{fill:url(#SVGID_92_);}
	.st68{opacity:5.000000e-02;clip-path:url(#SVGID_94_);}
	.st69{clip-path:url(#SVGID_96_);fill:#FFFFFF;}
	.st70{opacity:5.000000e-02;clip-path:url(#SVGID_98_);}
</style>
<g>
	<g>
		<linearGradient id="SVGID_1_" gradientUnits="userSpaceOnUse" x1="166.5613" y1="170.1698" x2="63.4064" y2="39.7651">
			<stop  offset="0" style="stop-color:#60AFFF"/>
			<stop  offset="0.3411" style="stop-color:#49B8F8"/>
			<stop  offset="1" style="stop-color:#14CEE6"/>
		</linearGradient>
		<path class="st0" d="M159.2,173.8H69.7c-4.6,0-8.3-3.7-8.3-8.3V43c0-4.6,3.7-8.3,8.3-8.3h89.5c4.6,0,8.3,3.7,8.3,8.3v122.5
			C167.4,170.1,163.7,173.8,159.2,173.8z"/>
	</g>
	<g>
		<defs>
			<path id="SVGID_82_" d="M159.2,173.4H69.4c-4.4,0-8-3.6-8-8V42.8c0-4.4,3.6-8,8-8h89.7c4.6,0,8.3,3.7,8.3,8.3v122.2
				C167.4,169.7,163.7,173.4,159.2,173.4z"/>
		</defs>
		<clipPath id="SVGID_3_">
			<use xlink:href="#SVGID_82_"  style="overflow:visible;"/>
		</clipPath>
		<ellipse style="opacity:0.1;clip-path:url(#SVGID_3_);fill:#1473E6;" cx="139.3" cy="111.3" rx="84" ry="83.8"/>
	</g>
	<g>
		<defs>
			<path id="SVGID_84_" d="M159.4,173.4h-90c-4.4,0-8-3.6-8-8V42.8c0-4.4,3.6-8,8-8h90c4.4,0,8,3.6,8,8v122.7
				C167.4,169.9,163.8,173.4,159.4,173.4z"/>
		</defs>
		<clipPath id="SVGID_5_">
			<use xlink:href="#SVGID_84_"  style="overflow:visible;"/>
		</clipPath>
		<linearGradient id="SVGID_6_" gradientUnits="userSpaceOnUse" x1="148.5912" y1="167.874" x2="107.068" y2="76.1016">
			<stop  offset="0" style="stop-color:#14CEE6"/>
			<stop  offset="0.9149" style="stop-color:#8FE2EB"/>
			<stop  offset="1" style="stop-color:#9BE4EC"/>
		</linearGradient>
		<path style="clip-path:url(#SVGID_5_);fill:url(#SVGID_6_);" d="M138.2,66.9l-42.9,80.8c-0.7,1.2,0.2,2.7,1.7,2.7h85.7
			c1.4,0,2.3-1.5,1.7-2.7l-42.9-80.8C140.8,65.6,138.9,65.6,138.2,66.9z"/>
		<linearGradient id="SVGID_7_" gradientUnits="userSpaceOnUse" x1="107.4645" y1="165.0535" x2="64.3373" y2="114.5707">
			<stop  offset="0" style="stop-color:#14CEE6"/>
			<stop  offset="0.9149" style="stop-color:#8FE2EB"/>
			<stop  offset="1" style="stop-color:#9BE4EC"/>
		</linearGradient>
		<path style="clip-path:url(#SVGID_5_);fill:url(#SVGID_7_);" d="M83.8,94.7l-29.6,52.7c-0.7,1.2,0.2,2.8,1.6,2.8H115
			c1.4,0,2.3-1.5,1.6-2.8L87.1,94.7C86.3,93.4,84.5,93.4,83.8,94.7z"/>
	</g>
	<linearGradient id="SVGID_9_" gradientUnits="userSpaceOnUse" x1="181.8011" y1="187.1974" x2="35.5251" y2="120.863">
		<stop  offset="0" style="stop-color:#60AFFF"/>
		<stop  offset="1" style="stop-color:#14CEE6"/>
	</linearGradient>
	<path style="fill:url(#SVGID_9_);" d="M159.2,173.8H69.6c-4.5,0-8.2-3.7-8.2-8.2v-23.1h106v23.1
		C167.4,170.1,163.7,173.8,159.2,173.8z"/>
	<linearGradient id="SVGID_11_" gradientUnits="userSpaceOnUse" x1="108.9216" y1="75.6061" x2="94.1552" y2="62.1169">
		<stop  offset="0" style="stop-color:#14CEE6"/>
		<stop  offset="0.2053" style="stop-color:#2BD2E7"/>
		<stop  offset="0.6321" style="stop-color:#64DBEA"/>
		<stop  offset="1" style="stop-color:#9BE4EC"/>
	</linearGradient>
	<circle style="fill:url(#SVGID_11_);" cx="101.4" cy="68.8" r="10"/>
	<g>
		<defs>
			<path id="SVGID_90_" d="M159.2,173.8H69.7c-4.6,0-8.2-3.7-8.2-8.2V43c0-4.6,3.7-8.2,8.2-8.2h89.5c4.6,0,8.2,3.7,8.2,8.2v122.5
				C167.4,170.1,163.7,173.8,159.2,173.8z"/>
		</defs>
		<clipPath id="SVGID_12_">
			<use xlink:href="#SVGID_90_"  style="overflow:visible;"/>
		</clipPath>
		<path style="opacity:0.25;clip-path:url(#SVGID_12_);fill:#1473E6;" d="M91.6,174.8H51.2c-2.1,0-3.8-1.7-3.8-3.8v-50.3
			c0-2.1,1.7-3.8,3.8-3.8h40.3c2.1,0,3.8,1.7,3.8,3.8v50.3C95.4,173,93.7,174.8,91.6,174.8z"/>
	</g>
	<g>
		<linearGradient id="SVGID_13_" gradientUnits="userSpaceOnUse" x1="43.3037" y1="126.9559" x2="87.8856" y2="176.2792">
			<stop  offset="0" style="stop-color:#FFDC8D"/>
			<stop  offset="1" style="stop-color:#FFCC4D"/>
		</linearGradient>
		<path class="st15" d="M86.3,180.3H46c-2.1,0-3.8-1.7-3.8-3.8v-48.3c0-2.1,1.7-3.8,3.8-3.8h40.3c2.1,0,3.8,1.7,3.8,3.8v48.3
			C90.2,178.5,88.5,180.3,86.3,180.3z"/>
		<circle class="st6" cx="66.2" cy="145.8" r="9.5"/>
		<path class="st6" d="M80.5,164.8H51.8c-0.6,0-1.2-0.5-1.2-1.2v-0.2c0-0.6,0.5-1.2,1.2-1.2h28.7c0.6,0,1.2,0.5,1.2,1.2v0.2
			C81.7,164.2,81.1,164.8,80.5,164.8z"/>
		<path class="st6" d="M80.5,171.3H51.8c-0.6,0-1.2-0.5-1.2-1.2l0,0c0-0.6,0.5-1.2,1.2-1.2h28.7c0.6,0,1.2,0.5,1.2,1.2l0,0
			C81.7,170.7,81.1,171.3,80.5,171.3z"/>
	</g>
</g>
</svg>
