<svg id="Layer_1" data-name="Layer 1" xmlns="http://www.w3.org/2000/svg" viewBox="0 0 254.81 222.67"><defs><style>.cls-1{fill:#fab925;}.cls-2{fill:#f5f5f5;}.cls-3{fill:#00bcf7;}.cls-4{fill:#e6e6e6;}.cls-5{fill:#ffd56c;}.cls-6{fill:#ffc732;}</style></defs><path class="cls-1" d="M75.68,110.76,51.13,95.68l65.41-50.5a18.43,18.43,0,0,1,22.6.07L203.68,96l-24.55,15.18Z"/><path class="cls-2" d="M182.2,58.24V108.1l-42,23.64-1.09-.85a18.43,18.43,0,0,0-22.6-.07l-1.05.82L72.61,107.69V58.24a1.54,1.54,0,0,1,1.54-1.54H180.66a1.54,1.54,0,0,1,1.54,1.54Z"/><path class="cls-3" d="M148.74,76.81H106.07a2.31,2.31,0,0,1,0-4.61h42.67a2.31,2.31,0,0,1,0,4.61Z"/><path class="cls-3" d="M162.55,108.12H92.26a2.31,2.31,0,0,1,0-4.61h70.29a2.31,2.31,0,0,1,0,4.61Z"/><path class="cls-3" d="M110.83,92.36H92.27a2.3,2.3,0,0,1,0-4.6h18.56a2.3,2.3,0,0,1,0,4.6Z"/><path class="cls-3" d="M162.53,92.36H123.08a2.3,2.3,0,0,1,0-4.6h39.45a2.3,2.3,0,1,1,0,4.6Z"/><path class="cls-4" d="M182.2,105.27v4.36l-42,23.65-1.09-.86a18.42,18.42,0,0,0-22.6-.06l-1.05.81L72.61,109.22v-4.35l42.53,20.69a23,23,0,0,1,25.44.09Z"/><path class="cls-5" d="M203.68,96v82.27a2.66,2.66,0,0,1-.08.69.53.53,0,0,1,0,.12,1.09,1.09,0,0,1,0,.17,1.21,1.21,0,0,1-.05.14l0,.08a1.24,1.24,0,0,1-.1.2s0,0,0,0a3,3,0,0,1-.27.42l-.05.07,0,0-.15.17-.15.14h0l-38.6-24.69-22.7-23.2-1.14-.9,7.81-4.4L182.2,108.1Z"/><path class="cls-5" d="M115.49,131.64l-1.16.89L91.19,155.84l-39,24.7-.15-.15a3,3,0,0,1-.86-2.13V95.68l21.48,12,30.74,17.17,3.81,2.12Z"/><path class="cls-1" d="M115.49,131.64l-1.16.89L91.19,155.84l-39,24.7-.15-.15a3,3,0,0,1-.86-2.13v-.12l56-51.16Z"/><path class="cls-1" d="M203.68,178.14v.12a2.66,2.66,0,0,1-.08.69.53.53,0,0,1,0,.12,1.09,1.09,0,0,1,0,.17,1.21,1.21,0,0,1-.05.14l0,.08a1.24,1.24,0,0,1-.1.2s0,0,0,0a3,3,0,0,1-.27.42l-.05.07,0,0-.15.17-.15.14h0l-39-24.7-23.15-23.31-1.15-.89.45-.25.46.35,7.81-4.4Z"/><path class="cls-6" d="M202.67,180.53h0a3,3,0,0,1-2,.78H54.2a3,3,0,0,1-2-.7l-.1-.08,36-27.77,26.21-20.24,1.16-.89,1.05-.82a18.44,18.44,0,0,1,22.6.07l.63.5.46.35,1.14.9,25.77,20.13Z"/></svg>