<?xml version="1.0" encoding="utf-8"?>
<!-- Generator: Adobe Illustrator 22.0.1, SVG Export Plug-In . SVG Version: 6.00 Build 0)  -->
<svg version="1.1" id="Layer_1" xmlns="http://www.w3.org/2000/svg" xmlns:xlink="http://www.w3.org/1999/xlink" x="0px" y="0px"
	 viewBox="0 0 215 215" style="enable-background:new 0 0 215 215;" xml:space="preserve">
<style type="text/css">
	.st0{fill:url(#SVGID_1_);}
	.st1{fill:url(#SVGID_4_);}
	.st2{fill:none;}
	.st3{fill:url(#SVGID_5_);}
	.st4{opacity:0.2;fill:#1473E6;}
	.st5{fill:#60AFFF;}
	.st6{fill:#FFCC4D;}
	.st7{fill:#9BE4EC;}
	.st8{fill:#14CEE6;}
	.st9{opacity:0.1;clip-path:url(#SVGID_7_);fill:#1473E6;}
	.st10{fill:url(#SVGID_8_);}
	.st11{fill:#F5F5F5;}
	.st12{fill:url(#search-2_2_);}
	.st13{fill:url(#SVGID_9_);}
	.st14{fill:url(#SVGID_12_);}
	.st15{opacity:0.1;clip-path:url(#SVGID_14_);fill:#1473E6;}
	.st16{fill:url(#SVGID_15_);}
	.st17{fill:url(#search-2_3_);}
</style>
<g>
	<linearGradient id="SVGID_1_" gradientUnits="userSpaceOnUse" x1="162.645" y1="175.4198" x2="59.49" y2="45.0151">
		<stop  offset="0" style="stop-color:#60AFFF"/>
		<stop  offset="0.3411" style="stop-color:#49B8F8"/>
		<stop  offset="1" style="stop-color:#14CEE6"/>
	</linearGradient>
	<path class="st0" d="M155.3,179H65.8c-4.6,0-8.3-3.7-8.3-8.3V48.3c0-4.6,3.7-8.3,8.3-8.3h89.5c4.6,0,8.3,3.7,8.3,8.3v122.5
		C163.5,175.3,159.8,179,155.3,179z"/>
</g>
<g>
	<defs>
		<path id="SVGID_10_" d="M155.3,179H65.7c-4.5,0-8.2-3.7-8.2-8.2V48.2c0-4.5,3.7-8.2,8.2-8.2h89.6c4.5,0,8.2,3.7,8.2,8.2v122.6
			C163.5,175.3,159.8,179,155.3,179z"/>
	</defs>
	<clipPath id="SVGID_3_">
		<use xlink:href="#SVGID_10_"  style="overflow:visible;"/>
	</clipPath>
</g>
<linearGradient id="SVGID_4_" gradientUnits="userSpaceOnUse" x1="121.9573" y1="207.6053" x2="18.8023" y2="77.2006">
	<stop  offset="0" style="stop-color:#60AFFF"/>
	<stop  offset="0.3411" style="stop-color:#49B8F8"/>
	<stop  offset="1" style="stop-color:#14CEE6"/>
</linearGradient>
<path class="st1" d="M93,175.2v-50.3c0-2.1-1.7-3.8-3.8-3.8H57.5v49.8c0,4.6,3.7,8.3,8.3,8.3h23.4C91.3,179,93,177.3,93,175.2z"/>
<path class="st2" d="M155.2,179H65.4c-4.4,0-8-4.1-8-8.6V47.8c0-4.4,3.6-8,8-8L155,40c4.6,0,8.4,3.4,8.4,8v122.2
	C164,175,160,179,155.2,179z"/>
<path class="st4" d="M93,175.2v-49.5c0-2.1-1.7-3.8-3.8-3.8H57.5v48.9c0,4.5,3.7,8.1,8.3,8.1h23.4C91.3,179,93,177.3,93,175.2z"/>
<g>
	<defs>
		<path id="SVGID_13_" d="M155.2,179H65.5c-4.4,0-8-3.6-8-8V48c0-4.4,3.6-8,8-8h89.7c4.6,0,8.3,3.7,8.3,8.3v122.5
			C163.5,175.3,159.8,179,155.2,179z"/>
	</defs>
	<clipPath id="SVGID_5_">
		<use xlink:href="#SVGID_13_"  style="overflow:visible;"/>
	</clipPath>
	<circle style="opacity:0.1;clip-path:url(#SVGID_5_);fill:#1473E6;" cx="135.4" cy="116.7" r="84"/>
</g>
<g>
	<linearGradient id="SVGID_7_" gradientUnits="userSpaceOnUse" x1="39.818" y1="131.7059" x2="84.4" y2="181.0292">
		<stop  offset="0" style="stop-color:#FFDC8D"/>
		<stop  offset="1" style="stop-color:#FFCC4D"/>
	</linearGradient>
	<path style="fill:url(#SVGID_7_);" d="M82.8,185H42.5c-2.1,0-3.8-1.7-3.8-3.8v-48.3c0-2.1,1.7-3.8,3.8-3.8h40.3
		c2.1,0,3.8,1.7,3.8,3.8v48.3C86.7,183.3,85,185,82.8,185z"/>
	<circle class="st11" cx="62.7" cy="150.5" r="9.5"/>
	<path class="st11" d="M77,169.8H48.3c-0.6,0-1.2-0.5-1.2-1.2v-0.2c0-0.6,0.5-1.2,1.2-1.2H77c0.6,0,1.2,0.5,1.2,1.2v0.2
		C78.2,169.2,77.7,169.8,77,169.8z"/>
	<path class="st11" d="M76.7,175.8H48c-0.6,0-1.2-0.5-1.2-1.2v-0.2c0-0.6,0.5-1.2,1.2-1.2h28.7c0.6,0,1.2,0.5,1.2,1.2v0.2
		C77.8,175.2,77.3,175.8,76.7,175.8z"/>
</g>
<linearGradient id="search-2_2_" gradientUnits="userSpaceOnUse" x1="135.166" y1="109.1585" x2="79.1044" y2="88.1333">
	<stop  offset="0" style="stop-color:#14CEE6"/>
	<stop  offset="0.9149" style="stop-color:#8FE2EB"/>
	<stop  offset="1" style="stop-color:#9BE4EC"/>
</linearGradient>
<path id="search-2_1_" class="st12" d="M108,75c-13.2,0-24,10.7-24,23.9s10.7,24,23.9,24c5,0,9.9-1.5,13.9-4.4l11.3,11.3
	c1.5,1.6,4,1.6,5.6,0.1c1.6-1.5,1.6-4,0.1-5.6c0,0,0,0,0,0l-11.2-11.4c7.7-10.8,5.2-25.7-5.6-33.4C117.9,76.5,113,75,108,75z
	 M108,83c8.8,0,16,7.2,16,16s-7.2,16-16,16s-16-7.2-16-16S99.2,83,108,83z"/>
</svg>
