<?xml version="1.0" encoding="UTF-8"?>
<svg xmlns="http://www.w3.org/2000/svg" xmlns:xlink="http://www.w3.org/1999/xlink" width="350px" height="150px" viewBox="0 0 350 150" version="1.1">
<g id="surface1">
<path style=" stroke:none;fill-rule:nonzero;fill:rgb(92.156863%,0%,54.117647%);fill-opacity:1;" d="M 34.128906 144.105469 C 30.972656 146.066406 27.25 147.042969 22.96875 147.042969 C 19.191406 147.042969 15.804688 146.28125 12.800781 144.746094 C 9.800781 143.214844 7.460938 141.078125 5.789062 138.324219 C 4.117188 135.570312 3.28125 132.457031 3.28125 128.992188 C 3.28125 125.523438 4.125 122.398438 5.824219 119.628906 C 7.515625 116.855469 9.851562 114.703125 12.832031 113.175781 C 15.8125 111.644531 19.191406 110.875 22.96875 110.875 C 27.125 110.875 30.753906 111.796875 33.839844 113.640625 C 36.925781 115.480469 39.175781 118.046875 40.59375 121.339844 L 43.9375 121.339844 C 42.480469 117.230469 39.875 113.984375 36.125 111.601562 C 32.371094 109.21875 27.984375 108.027344 22.96875 108.027344 C 18.597656 108.027344 14.652344 108.917969 11.132812 110.699219 C 7.617188 112.484375 4.882812 114.976562 2.933594 118.171875 C 0.976562 121.371094 0 124.988281 0 129.019531 C 0 135.105469 2.15625 140.109375 6.464844 144.019531 C 10.777344 147.933594 16.273438 149.894531 22.964844 149.894531 C 26.390625 149.894531 29.546875 149.332031 32.417969 148.207031 C 35.289062 147.082031 37.738281 145.464844 39.75 143.351562 C 41.769531 141.238281 43.246094 138.75 44.1875 135.878906 L 40.910156 135.878906 C 39.539062 139.410156 37.28125 142.152344 34.128906 144.105469 "/>
<path style=" stroke:none;fill-rule:nonzero;fill:rgb(92.156863%,0%,54.117647%);fill-opacity:1;" d="M 69.695312 107.96875 C 62.9375 107.96875 57.363281 109.964844 52.96875 113.957031 C 48.570312 117.949219 46.371094 122.972656 46.371094 129.015625 C 46.371094 134.988281 48.570312 139.96875 52.96875 143.960938 C 57.363281 147.953125 62.9375 149.949219 69.695312 149.949219 C 76.449219 149.949219 82.023438 147.964844 86.421875 143.992188 C 90.816406 140.019531 93.015625 135.027344 93.015625 129.019531 C 93.015625 122.972656 90.816406 117.953125 86.421875 113.960938 C 82.023438 109.964844 76.449219 107.96875 69.695312 107.96875 M 89.730469 129.015625 C 89.730469 132.390625 88.875 135.460938 87.160156 138.234375 C 85.445312 141.003906 83.0625 143.164062 80.015625 144.71875 C 76.972656 146.269531 73.542969 147.042969 69.726562 147.042969 C 63.933594 147.042969 59.140625 145.328125 55.347656 141.894531 C 51.550781 138.464844 49.652344 134.171875 49.652344 129.015625 C 49.652344 123.820312 51.550781 119.496094 55.347656 116.046875 C 59.140625 112.597656 63.933594 110.875 69.726562 110.875 C 73.539062 110.875 76.96875 111.660156 80.015625 113.226562 C 83.0625 114.796875 85.441406 116.960938 87.160156 119.710938 C 88.875 122.46875 89.730469 125.570312 89.730469 129.015625 "/>
<path style=" stroke:none;fill-rule:nonzero;fill:rgb(92.156863%,0%,54.117647%);fill-opacity:1;" d="M 128.335938 143.960938 L 99.773438 108.609375 L 96.878906 108.609375 L 96.878906 149.308594 L 100.027344 149.308594 L 100.027344 113.785156 L 128.78125 149.308594 L 131.550781 149.308594 L 131.550781 108.609375 L 128.335938 108.609375 Z M 128.335938 143.960938 "/>
<path style=" stroke:none;fill-rule:nonzero;fill:rgb(92.156863%,0%,54.117647%);fill-opacity:1;" d="M 166.058594 132.679688 C 165.609375 132.023438 164.957031 131.414062 164.097656 130.851562 C 163.238281 130.289062 162.480469 129.839844 161.8125 129.515625 C 161.152344 129.183594 160.207031 128.84375 158.984375 128.496094 C 157.761719 128.148438 156.796875 127.886719 156.089844 127.710938 C 155.382812 127.539062 154.339844 127.3125 152.96875 127.039062 C 151.769531 126.808594 150.867188 126.625 150.269531 126.488281 C 149.664062 126.355469 148.839844 126.140625 147.792969 125.851562 C 146.738281 125.558594 145.945312 125.300781 145.410156 125.066406 C 144.875 124.832031 144.25 124.515625 143.542969 124.109375 C 142.835938 123.699219 142.300781 123.261719 141.9375 122.796875 C 141.570312 122.332031 141.261719 121.773438 141.003906 121.109375 C 140.746094 120.453125 140.617188 119.734375 140.617188 118.957031 C 140.617188 117.332031 141.101562 115.917969 142.066406 114.714844 C 143.03125 113.515625 144.382812 112.585938 146.121094 111.925781 C 147.855469 111.265625 149.839844 110.9375 152.074219 110.9375 C 155.414062 110.9375 158.117188 111.730469 160.175781 113.320312 C 162.238281 114.910156 163.261719 117.023438 163.261719 119.65625 L 166.480469 119.65625 C 166.480469 116.167969 165.183594 113.378906 162.589844 111.285156 C 159.992188 109.191406 156.507812 108.144531 152.136719 108.144531 C 147.675781 108.144531 144.105469 109.125 141.429688 111.082031 C 138.746094 113.039062 137.40625 115.6875 137.40625 119.019531 C 137.40625 120.105469 137.570312 121.101562 137.886719 122.011719 C 138.210938 122.921875 138.585938 123.6875 139.015625 124.3125 C 139.441406 124.929688 140.089844 125.511719 140.945312 126.054688 C 141.804688 126.597656 142.566406 127.035156 143.230469 127.363281 C 143.894531 127.691406 144.828125 128.03125 146.027344 128.378906 C 147.226562 128.726562 148.183594 128.980469 148.890625 129.136719 C 149.597656 129.289062 150.621094 129.503906 151.945312 129.777344 C 153.015625 129.972656 153.820312 130.125 154.359375 130.242188 C 154.894531 130.355469 155.632812 130.542969 156.582031 130.792969 C 157.523438 131.046875 158.242188 131.269531 158.734375 131.464844 C 159.226562 131.65625 159.835938 131.917969 160.566406 132.246094 C 161.292969 132.578125 161.839844 132.929688 162.207031 133.292969 C 162.570312 133.664062 162.945312 134.082031 163.332031 134.546875 C 163.71875 135.011719 163.984375 135.554688 164.136719 136.171875 C 164.285156 136.792969 164.363281 137.472656 164.363281 138.210938 C 164.363281 140.808594 163.257812 142.910156 161.050781 144.515625 C 158.839844 146.125 156 146.929688 152.527344 146.929688 C 148.710938 146.929688 145.628906 146.050781 143.292969 144.285156 C 140.953125 142.519531 139.789062 140.148438 139.789062 137.160156 L 136.4375 137.160156 C 136.4375 141 137.917969 144.0625 140.875 146.351562 C 143.835938 148.636719 147.714844 149.78125 152.519531 149.78125 C 156.980469 149.78125 160.621094 148.726562 163.453125 146.613281 C 166.28125 144.5 167.699219 141.679688 167.699219 138.152344 C 167.699219 137.03125 167.539062 136 167.214844 135.070312 C 166.898438 134.132812 166.511719 133.34375 166.058594 132.679688 "/>
<path style=" stroke:none;fill-rule:nonzero;fill:rgb(92.156863%,0%,54.117647%);fill-opacity:1;" d="M 166.800781 111.398438 L 181.144531 111.398438 L 181.144531 149.308594 L 184.363281 149.308594 L 184.363281 111.398438 L 198.765625 111.398438 L 198.765625 108.609375 L 166.800781 108.609375 Z M 166.800781 111.398438 "/>
<path style=" stroke:none;fill-rule:nonzero;fill:rgb(92.156863%,0%,54.117647%);fill-opacity:1;" d="M 229.324219 128.058594 C 231.382812 125.949219 232.410156 123.417969 232.410156 120.472656 C 232.410156 117.019531 231.09375 114.179688 228.457031 111.949219 C 225.816406 109.722656 222.480469 108.609375 218.453125 108.609375 L 201.859375 108.609375 L 201.859375 149.308594 L 205.078125 149.308594 L 205.078125 132.214844 L 217.75 132.214844 L 229.007812 149.308594 L 232.675781 149.308594 L 221.222656 131.980469 C 224.5625 131.480469 227.265625 130.171875 229.324219 128.058594 M 205.074219 129.425781 L 205.074219 111.398438 L 218.261719 111.398438 C 221.433594 111.398438 224.039062 112.253906 226.074219 113.957031 C 228.113281 115.664062 229.132812 117.824219 229.132812 120.441406 C 229.132812 123.058594 228.125 125.210938 226.109375 126.894531 C 224.089844 128.582031 221.476562 129.425781 218.257812 129.425781 Z M 205.074219 129.425781 "/>
<path style=" stroke:none;fill-rule:nonzero;fill:rgb(92.156863%,0%,54.117647%);fill-opacity:1;" d="M 268.175781 134.078125 C 268.175781 136.558594 267.585938 138.785156 266.40625 140.761719 C 265.226562 142.738281 263.589844 144.273438 261.484375 145.355469 C 259.386719 146.441406 257 146.984375 254.34375 146.984375 C 250.269531 146.984375 246.933594 145.78125 244.34375 143.378906 C 241.746094 140.976562 240.449219 137.875 240.449219 134.078125 L 240.449219 108.609375 L 237.234375 108.609375 L 237.234375 134.25 C 237.234375 137.238281 237.964844 139.921875 239.421875 142.300781 C 240.882812 144.6875 242.917969 146.546875 245.535156 147.882812 C 248.148438 149.222656 251.085938 149.890625 254.347656 149.890625 C 259.277344 149.890625 263.363281 148.417969 266.601562 145.46875 C 269.839844 142.527344 271.460938 138.785156 271.460938 134.246094 L 271.460938 108.605469 L 268.179688 108.605469 L 268.179688 134.078125 Z M 268.175781 134.078125 "/>
<path style=" stroke:none;fill-rule:nonzero;fill:rgb(92.156863%,0%,54.117647%);fill-opacity:1;" d="M 310.085938 144.105469 C 306.933594 146.066406 303.210938 147.042969 298.925781 147.042969 C 295.152344 147.042969 291.765625 146.28125 288.761719 144.746094 C 285.761719 143.214844 283.421875 141.078125 281.75 138.324219 C 280.078125 135.570312 279.242188 132.457031 279.242188 128.992188 C 279.242188 125.523438 280.085938 122.398438 281.785156 119.628906 C 283.476562 116.855469 285.816406 114.703125 288.796875 113.175781 C 291.773438 111.644531 295.152344 110.875 298.925781 110.875 C 303.085938 110.875 306.710938 111.796875 309.796875 113.640625 C 312.886719 115.480469 315.132812 118.046875 316.550781 121.339844 L 319.894531 121.339844 C 318.4375 117.230469 315.832031 113.984375 312.082031 111.601562 C 308.332031 109.21875 303.945312 108.027344 298.925781 108.027344 C 294.550781 108.027344 290.605469 108.917969 287.089844 110.699219 C 283.570312 112.484375 280.839844 114.976562 278.890625 118.171875 C 276.9375 121.371094 275.960938 124.988281 275.960938 129.015625 C 275.960938 135.101562 278.113281 140.105469 282.425781 144.015625 C 286.738281 147.933594 292.238281 149.890625 298.925781 149.890625 C 302.355469 149.890625 305.507812 149.328125 308.382812 148.203125 C 311.253906 147.082031 313.703125 145.460938 315.714844 143.347656 C 317.730469 141.238281 319.207031 138.746094 320.152344 135.875 L 316.875 135.875 C 315.5 139.410156 313.238281 142.152344 310.085938 144.105469 "/>
<path style=" stroke:none;fill-rule:nonzero;fill:rgb(92.156863%,0%,54.117647%);fill-opacity:1;" d="M 318.03125 108.609375 L 318.03125 111.398438 L 332.375 111.398438 L 332.375 149.3125 L 335.59375 149.3125 L 335.59375 111.398438 L 350 111.398438 L 350 108.609375 Z M 318.03125 108.609375 "/>
<path style=" stroke:none;fill-rule:nonzero;fill:rgb(92.156863%,0%,54.117647%);fill-opacity:1;" d="M 76.398438 54 C 75.246094 52.234375 73.566406 50.605469 71.363281 49.109375 C 69.160156 47.621094 67.238281 46.417969 65.582031 45.515625 C 63.933594 44.613281 61.605469 43.679688 58.601562 42.730469 C 55.597656 41.78125 53.292969 41.101562 51.699219 40.695312 C 50.09375 40.289062 47.691406 39.726562 44.492188 39 C 41.585938 38.367188 39.410156 37.890625 37.960938 37.574219 C 36.503906 37.257812 34.730469 36.761719 32.628906 36.078125 C 30.523438 35.398438 28.976562 34.722656 27.976562 34.046875 C 26.972656 33.363281 26.097656 32.507812 25.347656 31.464844 C 24.601562 30.425781 24.226562 29.226562 24.226562 27.867188 C 24.226562 24.972656 25.695312 22.757812 28.65625 21.21875 C 31.601562 19.683594 35.082031 18.910156 39.085938 18.910156 C 43.59375 18.910156 47.371094 19.929688 50.421875 21.964844 C 53.480469 24 55.003906 26.964844 55.003906 30.855469 L 77.527344 30.855469 C 77.527344 21.355469 74.195312 13.890625 67.542969 8.460938 C 60.882812 3.03125 51.597656 0.316406 39.6875 0.316406 C 27.878906 0.316406 18.5625 2.804688 11.761719 7.78125 C 4.953125 12.757812 1.550781 19.769531 1.550781 28.816406 C 1.550781 30.988281 1.796875 33.046875 2.296875 34.992188 C 2.800781 36.9375 3.402344 38.65625 4.101562 40.152344 C 4.804688 41.644531 5.832031 43.070312 7.179688 44.429688 C 8.53125 45.785156 9.757812 46.917969 10.859375 47.820312 C 11.960938 48.726562 13.511719 49.632812 15.515625 50.535156 C 17.511719 51.441406 19.140625 52.144531 20.394531 52.640625 C 21.644531 53.136719 23.445312 53.707031 25.800781 54.339844 C 28.152344 54.972656 29.929688 55.421875 31.132812 55.695312 C 32.332031 55.964844 34.132812 56.375 36.539062 56.914062 C 39.542969 57.550781 41.792969 58.050781 43.296875 58.410156 C 44.792969 58.773438 46.621094 59.316406 48.777344 60.039062 C 50.925781 60.765625 52.53125 61.464844 53.582031 62.144531 C 54.628906 62.820312 55.554688 63.726562 56.355469 64.859375 C 57.15625 65.988281 57.558594 67.28125 57.558594 68.726562 C 57.558594 72.167969 55.878906 74.882812 52.53125 76.871094 C 49.175781 78.859375 45.191406 79.859375 40.589844 79.859375 C 38.289062 79.859375 36.085938 79.585938 33.988281 79.042969 C 31.882812 78.5 30.003906 77.683594 28.355469 76.597656 C 26.703125 75.515625 25.398438 74.089844 24.449219 72.324219 C 23.496094 70.558594 23.023438 68.546875 23.023438 66.285156 L 0.046875 66.285156 C 0.046875 76.417969 3.777344 84.402344 11.230469 90.238281 C 18.6875 96.074219 28.523438 98.988281 40.738281 98.988281 C 48.246094 98.988281 54.925781 97.90625 60.78125 95.734375 C 66.636719 93.5625 71.414062 90.125 75.117188 85.417969 C 78.816406 80.714844 80.675781 75.058594 80.675781 68.453125 C 80.675781 65.558594 80.246094 62.871094 79.398438 60.378906 C 78.546875 57.886719 77.546875 55.761719 76.398438 54 "/>
<path style=" stroke:none;fill-rule:nonzero;fill:rgb(92.156863%,0%,54.117647%);fill-opacity:1;" d="M 144.015625 0.0507812 C 113.75 0.0507812 89.210938 22.226562 89.210938 49.585938 C 89.210938 76.945312 113.746094 99.125 144.015625 99.125 C 174.277344 99.125 198.816406 76.945312 198.816406 49.585938 C 198.8125 22.226562 174.277344 0.0507812 144.015625 0.0507812 M 144.015625 79.027344 C 126.027344 79.027344 111.445312 65.847656 111.445312 49.585938 C 111.445312 33.328125 126.023438 20.144531 144.015625 20.144531 C 162 20.144531 176.585938 33.328125 176.585938 49.585938 C 176.585938 65.84375 162 79.027344 144.015625 79.027344 "/>
<path style=" stroke:none;fill-rule:nonzero;fill:rgb(92.156863%,0%,54.117647%);fill-opacity:1;" d="M 320.902344 2.085938 L 349.953125 2.085938 L 349.953125 21.222656 L 320.902344 21.222656 Z M 320.902344 2.085938 "/>
<path style=" stroke:none;fill-rule:nonzero;fill:rgb(92.156863%,0%,54.117647%);fill-opacity:1;" d="M 298.082031 21.222656 L 320.902344 21.222656 L 320.902344 97.089844 L 298.082031 97.089844 Z M 298.082031 21.222656 "/>
<path style=" stroke:none;fill-rule:nonzero;fill:rgb(92.156863%,0%,54.117647%);fill-opacity:1;" d="M 208.898438 2.085938 L 208.898438 97.089844 L 231.71875 97.089844 L 231.71875 60.71875 L 267.753906 60.71875 L 267.753906 42.121094 L 231.71875 42.121094 L 231.71875 21.222656 L 298.082031 21.222656 L 298.082031 2.085938 Z M 208.898438 2.085938 "/>
</g>
</svg>
