<?xml version="1.0" encoding="utf-8"?>
<!-- Generator: Adobe Illustrator 26.0.2, SVG Export Plug-In . SVG Version: 6.00 Build 0)  -->
<svg version="1.1" id="Layer_1" xmlns="http://www.w3.org/2000/svg" xmlns:xlink="http://www.w3.org/1999/xlink" x="0px" y="0px"
	 viewBox="0 0 1062.78 503.56" style="enable-background:new 0 0 1062.78 503.56;" xml:space="preserve">
<style type="text/css">
	.st0{fill:#EB008A;}
</style>
<g>
	<path class="st0" d="M103.63,483.93c-9.58,6.58-20.88,9.87-33.89,9.87c-11.46,0-21.75-2.57-30.87-7.72
		c-9.11-5.14-16.21-12.33-21.29-21.58c-5.08-9.24-7.62-19.7-7.62-31.35s2.57-22.14,7.72-31.45c5.14-9.31,12.24-16.54,21.29-21.68
		c9.05-5.14,19.3-7.72,30.77-7.72c12.63,0,23.64,3.09,33.01,9.28c9.38,6.18,16.21,14.81,20.51,25.87h10.16
		c-4.43-13.8-12.34-24.71-23.73-32.71c-11.39-8.01-24.71-12.01-39.94-12.01c-13.28,0-25.26,2.99-35.94,8.98
		c-10.68,5.99-18.98,14.36-24.9,25.1C2.97,407.56,0,419.7,0,433.25c0,20.44,6.55,37.25,19.63,50.39
		c13.09,13.15,29.79,19.73,50.1,19.73c10.41,0,19.99-1.89,28.71-5.67c8.72-3.77,16.15-9.21,22.26-16.31
		c6.13-7.09,10.62-15.46,13.48-25.1h-9.96C120.06,468.15,113.2,477.36,103.63,483.93"/>
	<path class="st0" d="M211.63,362.53c-20.52,0-37.44,6.71-50.79,20.12c-13.35,13.41-20.03,30.28-20.03,50.59
		c0,20.06,6.68,36.79,20.03,50.2c13.34,13.41,30.27,20.12,50.79,20.12c20.51,0,37.44-6.67,50.79-20.02
		c13.34-13.34,20.02-30.11,20.02-50.29c0-20.31-6.68-37.18-20.02-50.59C249.07,369.24,232.14,362.53,211.63,362.53 M272.47,433.24
		c0,11.33-2.6,21.65-7.81,30.96c-5.21,9.31-12.44,16.57-21.69,21.78c-9.24,5.21-19.66,7.81-31.25,7.81
		c-17.58,0-32.14-5.76-43.66-17.29c-11.52-11.52-17.29-25.95-17.29-43.27c0-17.45,5.76-31.97,17.29-43.56
		c11.52-11.59,26.08-17.38,43.66-17.38c11.58,0,22,2.64,31.25,7.91c9.25,5.27,16.47,12.54,21.69,21.78
		C269.87,411.24,272.47,421.66,272.47,433.24"/>
	<polygon class="st0" points="389.69,483.44 302.96,364.69 294.17,364.69 294.17,501.41 303.74,501.41 303.74,382.07 391.05,501.41 
		399.45,501.41 399.45,364.69 389.69,364.69 	"/>
	<path class="st0" d="M504.24,445.55c-1.37-2.21-3.35-4.26-5.95-6.15c-2.61-1.89-4.91-3.39-6.94-4.49
		c-2.01-1.11-4.88-2.25-8.59-3.42c-3.72-1.17-6.64-2.05-8.79-2.64c-2.15-0.58-5.31-1.33-9.48-2.25c-3.64-0.78-6.38-1.4-8.2-1.85
		c-1.83-0.45-4.33-1.17-7.52-2.15c-3.2-0.98-5.6-1.85-7.23-2.63c-1.63-0.79-3.52-1.85-5.67-3.22c-2.15-1.37-3.77-2.84-4.88-4.4
		c-1.11-1.57-2.05-3.45-2.83-5.67c-0.78-2.21-1.17-4.62-1.17-7.23c0-5.47,1.47-10.22,4.4-14.25c2.93-4.04,7.03-7.16,12.31-9.38
		c5.27-2.21,11.29-3.32,18.07-3.32c10.15,0,18.35,2.67,24.61,8.01c6.26,5.34,9.37,12.44,9.37,21.29h9.77
		c0-11.72-3.94-21.09-11.81-28.13c-7.89-7.03-18.47-10.55-31.74-10.55c-13.55,0-24.39,3.29-32.52,9.87
		c-8.14,6.58-12.21,15.47-12.21,26.66c0,3.65,0.49,7,1.46,10.06c0.98,3.06,2.12,5.63,3.42,7.72c1.3,2.08,3.26,4.04,5.86,5.86
		c2.61,1.82,4.92,3.29,6.94,4.39c2.02,1.11,4.85,2.25,8.5,3.42c3.64,1.17,6.54,2.02,8.69,2.54c2.15,0.52,5.25,1.24,9.28,2.15
		c3.25,0.66,5.69,1.17,7.32,1.56c1.63,0.39,3.87,1.02,6.75,1.86c2.86,0.85,5.04,1.59,6.54,2.25c1.49,0.65,3.34,1.53,5.56,2.63
		c2.21,1.11,3.87,2.29,4.98,3.52c1.11,1.24,2.25,2.64,3.42,4.2c1.17,1.57,1.98,3.39,2.44,5.47c0.46,2.08,0.69,4.36,0.69,6.84
		c0,8.73-3.35,15.79-10.06,21.19c-6.71,5.4-15.33,8.11-25.88,8.11c-11.59,0-20.94-2.96-28.04-8.89c-7.1-5.93-10.64-13.9-10.64-23.93
		H414.3c0,12.89,4.49,23.18,13.47,30.87c8.99,7.68,20.77,11.52,35.36,11.52c13.54,0,24.6-3.54,33.2-10.64
		c8.59-7.1,12.89-16.57,12.89-28.42c0-3.77-0.49-7.23-1.47-10.36C506.79,450.43,505.61,447.77,504.24,445.55"/>
	<polygon class="st0" points="506.49,374.06 550.05,374.06 550.05,501.41 559.82,501.41 559.82,374.06 603.56,374.06 603.56,364.69 
		506.49,364.69 	"/>
	<path class="st0" d="M696.35,430.02c6.25-7.09,9.37-15.59,9.37-25.49c0-11.59-4-21.13-12.01-28.62
		c-8.01-7.49-18.14-11.23-30.37-11.23h-50.39v136.73h9.77v-57.43h38.48l34.19,57.43h11.13l-34.77-58.21
		C681.89,441.52,690.1,437.12,696.35,430.02 M622.71,434.61v-60.55h40.04c9.64,0,17.55,2.87,23.73,8.59
		c6.19,5.73,9.28,12.99,9.28,21.78c0,8.79-3.06,16.02-9.18,21.68c-6.13,5.67-14.06,8.5-23.84,8.5H622.71z"/>
	<path class="st0" d="M814.32,450.24c0,8.33-1.79,15.82-5.37,22.46c-3.58,6.64-8.56,11.79-14.95,15.43
		c-6.37,3.65-13.61,5.47-21.68,5.47c-12.37,0-22.5-4.04-30.37-12.11c-7.88-8.07-11.82-18.49-11.82-31.25v-85.56h-9.76v86.14
		c0,10.04,2.21,19.05,6.64,27.05c4.43,8.01,10.61,14.26,18.56,18.75c7.94,4.49,16.86,6.74,26.76,6.74
		c14.97,0,27.38-4.95,37.21-14.85c9.83-9.89,14.75-22.46,14.75-37.7v-86.14h-9.96V450.24z"/>
	<path class="st0" d="M941.58,483.93c-9.57,6.58-20.87,9.87-33.89,9.87c-11.46,0-21.74-2.57-30.86-7.72
		c-9.11-5.14-16.21-12.33-21.29-21.58c-5.08-9.24-7.62-19.7-7.62-31.35s2.57-22.14,7.72-31.45c5.14-9.31,12.24-16.54,21.29-21.68
		c9.05-5.14,19.3-7.72,30.76-7.72c12.64,0,23.64,3.09,33.01,9.28c9.38,6.18,16.21,14.81,20.51,25.87h10.16
		c-4.43-13.8-12.34-24.71-23.73-32.71c-11.39-8.01-24.71-12.01-39.95-12.01c-13.28,0-25.26,2.99-35.94,8.98
		c-10.68,5.99-18.98,14.36-24.9,25.1c-5.93,10.74-8.89,22.89-8.89,36.43c0,20.44,6.54,37.25,19.63,50.39
		c13.09,13.15,29.79,19.73,50.1,19.73c10.42,0,19.99-1.89,28.72-5.67c8.72-3.77,16.15-9.21,22.26-16.31
		c6.12-7.09,10.61-15.46,13.48-25.1h-9.96C958.02,468.15,951.15,477.36,941.58,483.93"/>
	<polygon class="st0" points="965.71,364.68 965.71,374.06 1009.26,374.06 1009.26,501.42 1019.03,501.42 1019.03,374.06 
		1062.78,374.06 1062.78,364.68 	"/>
	<path class="st0" d="M231.98,181.23c-3.5-5.93-8.59-11.4-15.28-16.42c-6.69-5.01-12.53-9.04-17.56-12.08
		c-5-3.03-12.07-6.16-21.19-9.35c-9.13-3.19-16.12-5.47-20.97-6.84c-4.87-1.37-12.16-3.26-21.88-5.7
		c-8.82-2.12-15.43-3.72-19.83-4.79c-4.42-1.06-9.81-2.73-16.19-5.02c-6.39-2.28-11.09-4.55-14.13-6.83
		c-3.05-2.29-5.7-5.17-7.98-8.67c-2.27-3.49-3.41-7.52-3.41-12.08c0-9.73,4.47-17.17,13.45-22.34c8.95-5.16,19.52-7.75,31.68-7.75
		c13.68,0,25.15,3.42,34.42,10.26c9.28,6.84,13.91,16.8,13.91,29.86h68.39c0-31.91-10.11-56.99-30.32-75.23
		c-20.22-18.24-48.41-27.36-84.58-27.36c-35.86,0-64.14,8.36-84.8,25.08c-20.67,16.72-31,40.27-31,70.67
		c0,7.29,0.75,14.21,2.27,20.74c1.52,6.54,3.35,12.31,5.48,17.33c2.13,5.02,5.25,9.81,9.34,14.37c4.11,4.56,7.83,8.36,11.17,11.4
		c3.35,3.04,8.06,6.09,14.14,9.12c6.07,3.04,11.01,5.4,14.82,7.07c3.79,1.67,9.26,3.58,16.41,5.7c7.14,2.13,12.54,3.64,16.19,4.56
		c3.65,0.91,9.12,2.28,16.42,4.1c9.12,2.13,15.96,3.81,20.52,5.02c4.55,1.22,10.09,3.04,16.64,5.47c6.53,2.44,11.4,4.79,14.59,7.07
		c3.18,2.28,5.99,5.32,8.43,9.12c2.43,3.8,3.65,8.14,3.65,13c0,11.55-5.1,20.67-15.27,27.35c-10.19,6.69-22.28,10.04-36.26,10.04
		c-6.99,0-13.67-0.91-20.05-2.74c-6.39-1.82-12.09-4.56-17.1-8.21c-5.02-3.64-8.98-8.43-11.86-14.36
		c-2.89-5.93-4.33-12.69-4.33-20.29H0.14c0,34.04,11.33,60.87,33.96,80.47c22.64,19.61,52.51,29.4,89.6,29.4
		c22.8,0,43.08-3.64,60.86-10.94c17.78-7.29,32.29-18.84,43.54-34.65c11.23-15.8,16.87-34.8,16.87-56.99
		c0-9.73-1.3-18.76-3.87-27.13C238.51,194.29,235.47,187.15,231.98,181.23"/>
	<path class="st0" d="M437.3,0c-91.9,0-166.41,74.5-166.41,166.41c0,91.91,74.5,166.41,166.41,166.41
		c91.9,0,166.41-74.5,166.41-166.41C603.7,74.5,529.2,0,437.3,0 M437.3,265.31c-54.62,0-98.9-44.28-98.9-98.9
		c0-54.62,44.27-98.9,98.9-98.9c54.62,0,98.9,44.28,98.9,98.9C536.2,221.02,491.92,265.31,437.3,265.31"/>
	<rect x="974.43" y="6.84" class="st0" width="88.21" height="64.28"/>
	<rect x="905.13" y="71.12" class="st0" width="69.3" height="254.86"/>
	<polygon class="st0" points="634.32,6.84 634.32,325.98 703.62,325.98 703.62,203.8 813.04,203.8 813.04,141.33 703.62,141.33 
		703.62,71.12 905.13,71.12 905.13,6.84 	"/>
</g>
</svg>
