<svg width="896" height="333" viewBox="0 0 896 333" fill="none" xmlns="http://www.w3.org/2000/svg">
<rect width="896" height="333" fill="none"/>
<rect x="0.5" y="0.5" width="895" height="332" rx="2.5" fill="none" stroke="#CCCCCC"/>
<rect x="254" y="37" width="192" height="129" rx="5" stroke="#C4C4C4" stroke-width="2"/>
<rect x="262" y="46" width="175" height="112" stroke="#C4C4C4" stroke-width="2"/>
<path d="M236 158H463V161C463 164.866 459.866 168 456 168H243C239.134 168 236 164.866 236 161V158Z" fill="white" stroke="#C4C4C4" stroke-width="2"/>
<path d="M330 157H370C370 159.761 367.761 162 365 162H335C332.239 162 330 159.761 330 157Z" fill="#C4C4C4"/>
<circle cx="342.5" cy="97.5" r="22" stroke="#4B970C" stroke-width="3"/>
<path d="M330.086 96.9754L338.894 106.214L354.257 90.1" stroke="#4B970C" stroke-width="3" stroke-linecap="round"/>
<rect x="558" y="39" width="85" height="129" rx="5" stroke="#C4C4C4" stroke-width="2"/>
<rect x="566" y="51" width="70" height="99" stroke="#C4C4C4" stroke-width="2"/>
<circle opacity="0.6" cx="601" cy="159" r="5" fill="#C4C4C4"/>
<path opacity="0.6" d="M593.5 45.5H604.5" stroke="#C4C4C4" stroke-width="2" stroke-linecap="round"/>
<circle cx="600.5" cy="100.5" r="22" stroke="#4B970C" stroke-width="3"/>
<path d="M588.086 99.9754L596.894 109.214L612.257 93.1" stroke="#4B970C" stroke-width="3" stroke-linecap="round"/>
<path d="M196.489 294.644V293.756H190.573V302H196.489V301.112H191.521V298.244H195.997V297.356H191.521V294.644H196.489ZM202.639 293.612V296.96C202.171 296.144 201.379 295.652 200.383 295.652C198.751 295.652 197.527 296.996 197.527 298.892C197.527 300.8 198.751 302.144 200.383 302.144C201.379 302.144 202.171 301.652 202.639 300.836V302H203.539V293.612H202.639ZM200.551 301.34C199.339 301.34 198.475 300.32 198.475 298.892C198.475 297.464 199.339 296.456 200.551 296.456C201.775 296.456 202.639 297.464 202.639 298.892C202.639 300.32 201.775 301.34 200.551 301.34ZM209.996 295.796V296.864C209.516 296.108 208.724 295.652 207.74 295.652C206.072 295.652 204.884 296.864 204.884 298.592C204.884 300.32 206.072 301.544 207.74 301.544C208.724 301.544 209.516 301.088 209.996 300.332V301.34C209.996 302.552 209.156 303.26 207.728 303.26C206.96 303.26 206.216 302.984 205.736 302.528L205.34 303.236C205.904 303.716 206.84 304.064 207.848 304.064C209.636 304.064 210.896 302.936 210.896 301.34V295.796H209.996ZM207.908 300.74C206.696 300.74 205.832 299.852 205.832 298.592C205.832 297.344 206.696 296.456 207.908 296.456C209.132 296.456 209.996 297.344 209.996 298.592C209.996 299.852 209.132 300.74 207.908 300.74ZM215.399 301.34C214.175 301.34 213.323 300.452 213.191 299.24H218.267C218.267 297.068 217.199 295.652 215.327 295.652C213.659 295.652 212.267 297.032 212.267 298.88C212.267 300.788 213.755 302.144 215.411 302.144C216.275 302.144 217.367 301.772 217.907 301.184L217.355 300.596C216.971 301.016 216.131 301.34 215.399 301.34ZM215.363 296.456C216.599 296.456 217.259 297.32 217.379 298.436H213.203C213.371 297.236 214.259 296.456 215.363 296.456Z" fill="#333333"/>
<path d="M349.126 302.144C350.266 302.144 351.322 301.652 352.09 300.884L351.454 300.236C350.854 300.872 350.026 301.28 349.126 301.28C347.35 301.28 345.85 299.72 345.85 297.872C345.85 296.036 347.35 294.476 349.126 294.476C350.026 294.476 350.854 294.884 351.454 295.52L352.09 294.872C351.322 294.092 350.266 293.612 349.126 293.612C346.846 293.612 344.902 295.556 344.902 297.872C344.902 300.188 346.846 302.144 349.126 302.144ZM356.323 295.652C355.435 295.652 354.643 296.12 354.283 296.78V293.612H353.383V302H354.283V298.052C354.283 297.176 355.147 296.456 356.203 296.456C357.115 296.456 357.751 297.152 357.751 298.172V302H358.651V298.052C358.651 296.624 357.703 295.652 356.323 295.652ZM361.29 297.008V295.796H360.39V302H361.29V298.532C361.29 297.32 362.286 296.456 363.69 296.456V295.652C362.55 295.652 361.662 296.18 361.29 297.008ZM367.612 302.144C369.364 302.144 370.804 300.68 370.804 298.892C370.804 297.104 369.364 295.652 367.612 295.652C365.848 295.652 364.408 297.104 364.408 298.892C364.408 300.68 365.848 302.144 367.612 302.144ZM367.612 301.34C366.364 301.34 365.344 300.236 365.344 298.892C365.344 297.548 366.364 296.456 367.612 296.456C368.848 296.456 369.868 297.548 369.868 298.892C369.868 300.236 368.848 301.34 367.612 301.34ZM378.862 295.652C377.878 295.652 377.11 296.252 376.918 297.128C376.606 296.228 375.838 295.652 374.854 295.652C374.038 295.652 373.366 296.06 373.054 296.708V295.796H372.154V302H373.054V298.052C373.054 297.116 373.75 296.456 374.734 296.456C375.574 296.456 376.162 297.164 376.162 298.172V302H377.062V298.052C377.062 297.116 377.758 296.456 378.742 296.456C379.582 296.456 380.17 297.164 380.17 298.172V302H381.07V298.052C381.07 296.648 380.158 295.652 378.862 295.652ZM385.433 301.34C384.209 301.34 383.357 300.452 383.225 299.24H388.301C388.301 297.068 387.233 295.652 385.361 295.652C383.693 295.652 382.301 297.032 382.301 298.88C382.301 300.788 383.789 302.144 385.445 302.144C386.309 302.144 387.401 301.772 387.941 301.184L387.389 300.596C387.005 301.016 386.165 301.34 385.433 301.34ZM385.397 296.456C386.633 296.456 387.293 297.32 387.413 298.436H383.237C383.405 297.236 384.293 296.456 385.397 296.456Z" fill="#333333"/>
<path d="M514.173 302.132C516.093 302.132 517.077 301.064 517.077 299.756C517.077 298.304 515.949 297.74 514.377 297.368C512.973 297.032 512.157 296.732 512.157 295.88C512.157 295.124 512.901 294.464 513.921 294.464C514.785 294.464 515.601 294.86 516.285 295.52L516.861 294.788C516.105 294.092 515.193 293.612 513.969 293.612C512.385 293.612 511.209 294.632 511.209 295.952C511.209 297.38 512.253 297.896 513.909 298.28C515.349 298.616 516.129 298.964 516.129 299.84C516.129 300.584 515.481 301.28 514.209 301.28C513.057 301.28 512.205 300.788 511.509 300.092L510.921 300.824C511.749 301.64 512.817 302.132 514.173 302.132ZM520.781 295.652C520.181 295.652 519.437 295.808 518.549 296.252L518.909 296.984C519.473 296.696 520.097 296.42 520.721 296.42C522.065 296.42 522.401 297.38 522.401 298.22V298.448C521.765 298.244 521.057 298.1 520.385 298.1C519.053 298.1 517.949 298.928 517.949 300.164C517.949 301.388 518.909 302.144 520.217 302.144C521.033 302.144 521.957 301.76 522.401 301.028V302H523.301V298.22C523.301 296.72 522.473 295.652 520.781 295.652ZM520.373 301.352C519.497 301.352 518.825 300.896 518.825 300.128C518.825 299.384 519.605 298.856 520.529 298.856C521.201 298.856 521.837 298.952 522.401 299.108V300.056C522.161 300.932 521.189 301.352 520.373 301.352ZM526.156 294.944C526.156 294.488 526.468 294.164 526.828 294.164C527.104 294.164 527.344 294.272 527.476 294.416L527.92 293.756C527.596 293.504 527.188 293.36 526.768 293.36C525.88 293.36 525.256 294.02 525.256 294.944V295.796H524.284V296.6H525.256V302H526.156V296.6H527.68V295.796H526.156V294.944ZM530.869 295.652C530.269 295.652 529.525 295.808 528.637 296.252L528.997 296.984C529.561 296.696 530.185 296.42 530.809 296.42C532.153 296.42 532.489 297.38 532.489 298.22V298.448C531.853 298.244 531.145 298.1 530.473 298.1C529.141 298.1 528.037 298.928 528.037 300.164C528.037 301.388 528.997 302.144 530.305 302.144C531.121 302.144 532.045 301.76 532.489 301.028V302H533.389V298.22C533.389 296.72 532.561 295.652 530.869 295.652ZM530.461 301.352C529.585 301.352 528.913 300.896 528.913 300.128C528.913 299.384 529.693 298.856 530.617 298.856C531.289 298.856 531.925 298.952 532.489 299.108V300.056C532.249 300.932 531.277 301.352 530.461 301.352ZM536.029 297.008V295.796H535.129V302H536.029V298.532C536.029 297.32 537.025 296.456 538.429 296.456V295.652C537.289 295.652 536.401 296.18 536.029 297.008ZM540.143 294.668C540.467 294.668 540.731 294.392 540.731 294.068C540.731 293.756 540.467 293.48 540.143 293.48C539.807 293.48 539.543 293.756 539.543 294.068C539.543 294.392 539.807 294.668 540.143 294.668ZM539.687 302H540.587V295.796H539.687V302Z" fill="#333333"/>
<path d="M673.449 294.644V293.756H667.533V302H668.481V298.244H672.957V297.356H668.481V294.644H673.449ZM675.189 294.668C675.513 294.668 675.777 294.392 675.777 294.068C675.777 293.756 675.513 293.48 675.189 293.48C674.853 293.48 674.589 293.756 674.589 294.068C674.589 294.392 674.853 294.668 675.189 294.668ZM674.733 302H675.633V295.796H674.733V302ZM678.421 297.008V295.796H677.521V302H678.421V298.532C678.421 297.32 679.417 296.456 680.821 296.456V295.652C679.681 295.652 678.793 296.18 678.421 297.008ZM684.695 301.34C683.471 301.34 682.619 300.452 682.487 299.24H687.563C687.563 297.068 686.495 295.652 684.623 295.652C682.955 295.652 681.563 297.032 681.563 298.88C681.563 300.788 683.051 302.144 684.707 302.144C685.571 302.144 686.663 301.772 687.203 301.184L686.651 300.596C686.267 301.016 685.427 301.34 684.695 301.34ZM684.659 296.456C685.895 296.456 686.555 297.32 686.675 298.436H682.499C682.667 297.236 683.555 296.456 684.659 296.456ZM689.991 294.944C689.991 294.488 690.303 294.164 690.663 294.164C690.939 294.164 691.179 294.272 691.311 294.416L691.755 293.756C691.431 293.504 691.023 293.36 690.603 293.36C689.715 293.36 689.091 294.02 689.091 294.944V295.796H688.119V296.6H689.091V302H689.991V296.6H691.515V295.796H689.991V294.944ZM695.148 302.144C696.9 302.144 698.34 300.68 698.34 298.892C698.34 297.104 696.9 295.652 695.148 295.652C693.384 295.652 691.944 297.104 691.944 298.892C691.944 300.68 693.384 302.144 695.148 302.144ZM695.148 301.34C693.9 301.34 692.88 300.236 692.88 298.892C692.88 297.548 693.9 296.456 695.148 296.456C696.384 296.456 697.404 297.548 697.404 298.892C697.404 300.236 696.384 301.34 695.148 301.34ZM704.634 302L702.246 298.832L704.538 295.796H703.482L701.718 298.136L699.942 295.796H698.886L701.19 298.832L698.79 302H699.846L701.718 299.528L703.578 302H704.634Z" fill="#333333"/>
<mask id="mask0" mask-type="alpha" maskUnits="userSpaceOnUse" x="344" y="236" width="45" height="45">
<circle cx="366.5" cy="258.5" r="22.5" fill="white"/>
</mask>
<g mask="url(#mask0)">
<path d="M347.572 236V263.614H357.646L366.5 248.273H389V236H347.572Z" fill="#DB4437"/>
<path d="M347.572 236V263.614H357.646L366.5 248.273H389V236H347.572Z" fill="url(#paint0_linear)"/>
<path d="M357.882 263.511L347.701 246.048L347.552 246.304L357.662 263.639L357.882 263.511Z" fill="black" fill-opacity="0.15"/>
<path d="M344 281H365.418L375.359 271.059V263.614H357.641L344 240.214V281Z" fill="#0F9D58"/>
<path d="M344 281H365.418L375.359 271.059V263.614H357.641L344 240.214V281Z" fill="url(#paint1_linear)"/>
<path d="M375.141 263.946L374.929 263.823L365.111 280.992H365.405L375.146 263.954L375.141 263.946Z" fill="#263238" fill-opacity="0.15"/>
<path d="M366.497 248.273L375.357 263.614L365.416 281H388.997V248.273H366.497Z" fill="#FFCD40"/>
<path d="M366.497 248.273L375.357 263.614L365.416 281H388.997V248.273H366.497Z" fill="url(#paint2_linear)"/>
<path d="M366.501 248.273L375.361 263.614L365.42 281H389.001V248.273H366.501Z" fill="#FFCD40"/>
<path d="M366.501 248.273L375.361 263.614L365.42 281H389.001V248.273H366.501Z" fill="url(#paint3_linear)"/>
<path d="M347.57 236V263.614H357.644L366.499 248.273H388.999V236H347.57Z" fill="#DB4437"/>
<path d="M347.57 236V263.614H357.644L366.499 248.273H388.999V236H347.57Z" fill="url(#paint4_linear)"/>
<path d="M366.5 248.273V253.629L386.545 248.273H366.5Z" fill="url(#paint5_radial)"/>
<path d="M344 281H365.418L372.5 268.5L375.359 263.614H357.641L344 240.214V281Z" fill="#0F9D58"/>
<path d="M344 281H365.418L372 269.5L375.359 263.614H357.641L344 240.214V281Z" fill="url(#paint6_linear)"/>
<path d="M347.572 246.342L362.21 260.978L357.644 263.614L347.572 246.342Z" fill="url(#paint7_radial)"/>
<path d="M365.434 280.974L370.793 260.98L375.36 263.614L365.434 280.974Z" fill="url(#paint8_radial)"/>
<path d="M366.501 268.727C372.149 268.727 376.728 264.148 376.728 258.5C376.728 252.852 372.149 248.273 366.501 248.273C360.852 248.273 356.273 252.852 356.273 258.5C356.273 264.148 360.852 268.727 366.501 268.727Z" fill="#F1F1F1"/>
<path d="M366.5 266.682C371.018 266.682 374.681 263.019 374.681 258.5C374.681 253.981 371.018 250.318 366.5 250.318C361.981 250.318 358.318 253.981 358.318 258.5C358.318 263.019 361.981 266.682 366.5 266.682Z" fill="#4285F4"/>
<path d="M366.501 248.017C360.85 248.017 356.273 252.594 356.273 258.244V258.5C356.273 252.849 360.85 248.273 366.501 248.273H389.001V248.017H366.501Z" fill="black" fill-opacity="0.2"/>
<path d="M375.347 263.614C373.577 266.666 370.284 268.727 366.5 268.727C362.716 268.727 359.418 266.666 357.653 263.614H357.643L344 240.214V240.469L357.653 263.869C359.423 266.922 362.716 268.983 366.5 268.983C370.284 268.983 373.577 266.925 375.347 263.869H375.359V263.614H375.344H375.347Z" fill="white" fill-opacity="0.1"/>
<path opacity="0.1" d="M366.755 248.273C366.712 248.273 366.671 248.278 366.628 248.28C372.217 248.349 376.727 252.895 376.727 258.5C376.727 264.105 372.217 268.651 366.628 268.72C366.671 268.72 366.712 268.727 366.755 268.727C372.406 268.727 376.983 264.151 376.983 258.5C376.983 252.849 372.406 248.273 366.755 248.273Z" fill="black"/>
<path d="M375.45 263.946C376.32 262.443 376.823 260.704 376.823 258.843C376.824 257.794 376.663 256.751 376.345 255.751C376.588 256.626 376.729 257.541 376.729 258.495C376.729 260.356 376.225 262.095 375.356 263.598L375.361 263.609L365.42 280.995H365.716L375.45 263.946Z" fill="white" fill-opacity="0.2"/>
<path d="M366.5 236.256C378.883 236.256 388.928 246.261 389 258.628C389 258.584 389.003 258.543 389.003 258.5C389.003 246.074 378.929 236 366.503 236C354.076 236 344 246.074 344 258.5C344 258.543 344.003 258.584 344.003 258.628C344.072 246.261 354.117 236.256 366.5 236.256Z" fill="white" fill-opacity="0.2"/>
<path d="M366.5 280.744C378.883 280.744 388.928 270.739 389 258.372C389 258.416 389.003 258.457 389.003 258.5C389.003 270.926 378.929 281 366.503 281C354.076 281 344 270.926 344 258.5C344 258.457 344.003 258.416 344.003 258.372C344.072 270.739 354.117 280.744 366.503 280.744H366.5Z" fill="black" fill-opacity="0.15"/>
</g>
<path d="M548.69 258.799C548.69 264.849 546.299 270.652 542.044 274.931C537.789 279.209 532.018 281.613 526 281.613C519.983 281.613 514.212 279.209 509.957 274.931C505.701 270.652 503.311 264.849 503.311 258.799C503.311 252.748 505.701 246.945 509.957 242.667C514.212 238.388 519.983 235.984 526 235.984C532.018 235.984 537.789 238.388 542.044 242.667C546.299 246.945 548.69 252.748 548.69 258.799Z" fill="url(#paint9_radial)"/>
<path d="M526 237.174C525.817 237.174 525.669 237.322 525.669 237.507V241.343C525.669 241.528 525.817 241.676 526 241.676C526.183 241.676 526.331 241.528 526.331 241.343V237.507C526.331 237.322 526.183 237.174 526 237.174ZM523.836 237.312C523.814 237.309 523.791 237.309 523.768 237.312C523.586 237.331 523.455 237.494 523.474 237.677L523.641 239.282C523.66 239.466 523.822 239.598 524.004 239.579C524.186 239.56 524.318 239.397 524.299 239.213L524.132 237.608C524.115 237.448 523.989 237.327 523.836 237.312H523.836ZM528.179 237.313C528.026 237.328 527.9 237.449 527.883 237.61L527.715 239.215C527.696 239.398 527.827 239.561 528.009 239.58C528.192 239.6 528.354 239.468 528.373 239.284L528.541 237.679C528.56 237.496 528.428 237.333 528.246 237.314C528.223 237.311 528.201 237.311 528.179 237.313V237.313ZM521.613 237.636C521.591 237.636 521.568 237.638 521.546 237.643C521.367 237.681 521.253 237.857 521.291 238.037L522.081 241.791C522.119 241.971 522.294 242.085 522.473 242.047C522.652 242.009 522.766 241.833 522.728 241.653L521.938 237.899C521.905 237.742 521.767 237.634 521.613 237.636L521.613 237.636ZM530.402 237.639C530.248 237.637 530.11 237.745 530.077 237.903L529.284 241.656C529.245 241.836 529.359 242.012 529.538 242.05C529.718 242.088 529.893 241.974 529.931 241.794L530.724 238.041C530.762 237.86 530.648 237.685 530.469 237.646C530.446 237.642 530.424 237.639 530.402 237.639L530.402 237.639ZM519.491 238.237C519.448 238.233 519.404 238.238 519.36 238.253C519.186 238.31 519.091 238.496 519.148 238.672L519.644 240.207C519.701 240.382 519.887 240.477 520.061 240.42C520.235 240.363 520.33 240.176 520.273 240.001L519.777 238.466C519.735 238.335 519.62 238.248 519.491 238.237V238.237ZM532.512 238.238C532.383 238.249 532.268 238.335 532.226 238.467L531.729 240.002C531.673 240.177 531.767 240.364 531.942 240.421C532.116 240.478 532.302 240.383 532.358 240.207L532.855 238.672C532.911 238.497 532.817 238.31 532.642 238.253C532.599 238.239 532.554 238.234 532.512 238.238V238.238ZM517.393 239.009C517.35 239.01 517.307 239.02 517.265 239.038C517.097 239.113 517.022 239.309 517.097 239.477L518.647 242.983C518.721 243.152 518.916 243.227 519.083 243.152C519.251 243.077 519.326 242.881 519.251 242.713L517.701 239.207C517.646 239.081 517.522 239.007 517.393 239.009ZM534.633 239.021C534.504 239.019 534.381 239.092 534.325 239.218L532.77 242.722C532.696 242.89 532.77 243.086 532.938 243.161C533.105 243.237 533.3 243.162 533.375 242.993L534.929 239.489C535.004 239.321 534.929 239.125 534.762 239.05C534.72 239.031 534.676 239.022 534.633 239.021V239.021ZM515.446 240.045C515.382 240.041 515.317 240.055 515.257 240.089C515.098 240.182 515.044 240.384 515.136 240.544L515.939 241.941C516.03 242.101 516.232 242.155 516.391 242.063C516.549 241.971 516.603 241.768 516.512 241.609L515.709 240.211C515.652 240.111 515.552 240.053 515.446 240.045V240.045ZM536.554 240.045C536.448 240.052 536.348 240.111 536.291 240.211L535.488 241.609C535.397 241.768 535.451 241.971 535.609 242.063C535.768 242.155 535.97 242.101 536.061 241.941L536.864 240.544C536.955 240.384 536.901 240.182 536.743 240.089C536.683 240.055 536.618 240.041 536.554 240.045V240.045ZM513.555 241.231C513.491 241.234 513.427 241.254 513.372 241.295C513.223 241.403 513.19 241.61 513.298 241.759L515.539 244.865C515.646 245.014 515.852 245.047 516.001 244.939C516.149 244.831 516.182 244.623 516.074 244.474L513.834 241.369C513.766 241.275 513.661 241.228 513.555 241.231V241.231ZM538.469 241.248C538.363 241.244 538.257 241.292 538.19 241.385L535.945 244.488C535.837 244.637 535.87 244.844 536.018 244.952C536.166 245.061 536.372 245.028 536.48 244.879L538.725 241.777C538.832 241.628 538.8 241.42 538.652 241.312C538.596 241.271 538.532 241.25 538.469 241.248ZM511.864 242.657C511.78 242.652 511.694 242.68 511.626 242.742C511.489 242.865 511.479 243.075 511.601 243.212L512.675 244.411C512.798 244.548 513.006 244.559 513.142 244.436C513.278 244.312 513.289 244.103 513.167 243.966L512.093 242.766C512.032 242.698 511.949 242.661 511.864 242.657V242.657ZM540.138 242.659C540.053 242.664 539.971 242.7 539.909 242.769L538.835 243.968C538.713 244.105 538.723 244.315 538.86 244.438C538.996 244.561 539.204 244.55 539.327 244.413L540.401 243.214C540.524 243.077 540.513 242.868 540.376 242.744C540.308 242.683 540.222 242.655 540.138 242.659L540.138 242.659ZM510.244 244.221C510.16 244.226 510.077 244.263 510.016 244.331C509.893 244.468 509.904 244.678 510.04 244.801L512.876 247.368C513.013 247.491 513.221 247.48 513.343 247.343C513.466 247.206 513.455 246.997 513.319 246.873L510.483 244.307C510.415 244.245 510.329 244.217 510.244 244.221L510.244 244.221ZM541.766 244.232C541.681 244.228 541.595 244.256 541.527 244.318L538.689 246.883C538.553 247.006 538.542 247.215 538.664 247.352C538.787 247.489 538.995 247.5 539.132 247.377L541.969 244.812C542.106 244.689 542.117 244.48 541.994 244.343C541.933 244.274 541.85 244.237 541.766 244.232H541.766ZM508.897 245.963C508.791 245.959 508.685 246.007 508.618 246.1C508.51 246.249 508.543 246.457 508.691 246.565L509.99 247.513C510.138 247.622 510.344 247.589 510.452 247.44C510.56 247.291 510.527 247.084 510.379 246.975L509.08 246.027C509.025 245.986 508.961 245.965 508.897 245.963L508.897 245.963ZM543.112 245.975C543.048 245.978 542.984 245.998 542.929 246.039L541.629 246.986C541.481 247.095 541.448 247.302 541.556 247.451C541.664 247.6 541.87 247.633 542.018 247.525L543.317 246.577C543.465 246.469 543.498 246.262 543.391 246.113C543.323 246.019 543.218 245.972 543.112 245.975V245.975ZM507.638 247.821C507.532 247.828 507.432 247.887 507.375 247.987C507.283 248.146 507.337 248.349 507.496 248.441L510.8 250.36C510.959 250.452 511.161 250.397 511.252 250.238C511.344 250.078 511.29 249.876 511.131 249.783L507.827 247.865C507.767 247.831 507.702 247.817 507.638 247.821V247.821ZM544.362 247.821C544.298 247.816 544.232 247.83 544.173 247.865L540.868 249.783C540.71 249.876 540.656 250.078 540.747 250.238C540.839 250.397 541.041 250.452 541.199 250.36L544.504 248.441C544.663 248.349 544.717 248.146 544.625 247.987C544.568 247.887 544.467 247.828 544.362 247.821V247.821ZM506.686 249.801C506.557 249.798 506.434 249.872 506.378 249.999C506.303 250.167 506.378 250.363 506.545 250.438L508.011 251.095C508.179 251.17 508.373 251.095 508.448 250.927C508.523 250.759 508.448 250.563 508.281 250.488L506.815 249.83C506.773 249.812 506.729 249.802 506.686 249.801ZM545.32 249.815C545.277 249.816 545.233 249.825 545.191 249.844L543.725 250.5C543.558 250.575 543.483 250.771 543.557 250.94C543.632 251.108 543.827 251.183 543.994 251.108L545.46 250.452C545.628 250.377 545.703 250.181 545.628 250.013C545.572 249.886 545.449 249.812 545.32 249.815ZM505.838 251.871C505.71 251.882 505.594 251.968 505.552 252.1C505.495 252.275 505.589 252.462 505.764 252.519L509.392 253.708C509.566 253.765 509.752 253.67 509.809 253.495C509.866 253.319 509.771 253.132 509.597 253.075L505.969 251.887C505.925 251.872 505.881 251.868 505.838 251.871V251.871ZM546.167 251.885C546.124 251.881 546.08 251.886 546.036 251.901L542.407 253.087C542.233 253.144 542.138 253.331 542.195 253.506C542.251 253.681 542.437 253.776 542.612 253.719L546.24 252.533C546.415 252.476 546.509 252.289 546.453 252.114C546.41 251.983 546.295 251.896 546.167 251.885V251.885ZM505.309 254.044C505.155 254.042 505.017 254.15 504.984 254.308C504.946 254.488 505.059 254.664 505.239 254.702L506.809 255.038C506.988 255.076 507.163 254.962 507.201 254.781C507.239 254.601 507.125 254.425 506.946 254.387L505.376 254.051C505.354 254.047 505.331 254.044 505.309 254.044V254.044ZM546.691 254.047C546.669 254.047 546.647 254.05 546.624 254.054L545.054 254.39C544.875 254.428 544.761 254.604 544.799 254.784C544.838 254.964 545.012 255.079 545.192 255.04L546.762 254.705C546.941 254.667 547.055 254.491 547.017 254.31C546.983 254.153 546.845 254.045 546.691 254.047L546.691 254.047ZM504.909 256.229C504.756 256.244 504.63 256.365 504.613 256.526C504.594 256.709 504.725 256.872 504.907 256.891L508.702 257.295C508.884 257.314 509.046 257.182 509.065 256.999C509.085 256.816 508.953 256.653 508.771 256.633L504.977 256.23C504.954 256.227 504.931 256.227 504.909 256.229V256.229ZM547.094 256.258C547.072 256.256 547.049 256.256 547.027 256.258L543.232 256.657C543.049 256.676 542.918 256.839 542.937 257.022C542.956 257.205 543.118 257.337 543.3 257.318L547.095 256.92C547.278 256.901 547.409 256.738 547.39 256.555C547.373 256.394 547.247 256.273 547.094 256.258L547.094 256.258ZM504.845 258.467C504.662 258.467 504.514 258.615 504.514 258.799C504.514 258.984 504.662 259.132 504.845 259.132H506.45C506.634 259.132 506.781 258.984 506.781 258.799C506.781 258.615 506.634 258.467 506.45 258.467H504.845ZM545.55 258.467C545.366 258.467 545.219 258.615 545.219 258.799C545.219 258.984 545.366 259.132 545.55 259.132H547.155C547.338 259.132 547.485 258.984 547.485 258.799C547.485 258.615 547.338 258.467 547.155 258.467H545.55ZM508.767 260.28C508.745 260.278 508.722 260.278 508.7 260.28L504.904 260.678C504.722 260.698 504.591 260.86 504.61 261.044C504.629 261.227 504.791 261.359 504.973 261.34L508.768 260.942C508.951 260.923 509.082 260.76 509.063 260.576C509.046 260.416 508.92 260.295 508.767 260.28H508.767ZM543.231 260.303C543.078 260.318 542.951 260.439 542.935 260.6C542.915 260.783 543.046 260.946 543.229 260.965L547.023 261.369C547.205 261.388 547.368 261.256 547.387 261.073C547.406 260.89 547.275 260.726 547.093 260.707L543.298 260.304C543.276 260.301 543.253 260.301 543.231 260.303L543.231 260.303ZM506.875 262.551C506.853 262.551 506.831 262.553 506.808 262.558L505.238 262.893C505.059 262.931 504.945 263.107 504.983 263.287C505.021 263.468 505.196 263.582 505.376 263.544L506.946 263.209C507.125 263.17 507.239 262.994 507.201 262.814C507.167 262.656 507.029 262.549 506.875 262.55L506.875 262.551ZM545.124 262.554C544.97 262.552 544.832 262.66 544.799 262.817C544.761 262.998 544.874 263.173 545.054 263.212L546.624 263.547C546.803 263.586 546.978 263.471 547.016 263.291C547.054 263.111 546.94 262.935 546.761 262.896L545.191 262.561C545.169 262.556 545.146 262.554 545.124 262.554L545.124 262.554ZM509.519 263.864C509.476 263.86 509.432 263.865 509.388 263.879L505.759 265.065C505.585 265.122 505.49 265.309 505.547 265.484C505.604 265.66 505.79 265.755 505.964 265.698L509.593 264.512C509.767 264.455 509.862 264.268 509.805 264.093C509.763 263.961 509.647 263.875 509.519 263.864V263.864ZM542.477 263.876C542.349 263.886 542.234 263.973 542.191 264.104C542.134 264.279 542.229 264.466 542.403 264.523L546.031 265.712C546.205 265.769 546.391 265.674 546.448 265.499C546.505 265.324 546.41 265.137 546.236 265.08L542.608 263.891C542.565 263.877 542.52 263.872 542.477 263.876V263.876ZM508.134 266.462C508.091 266.462 508.048 266.472 508.006 266.49L506.539 267.147C506.372 267.222 506.297 267.418 506.372 267.586C506.446 267.754 506.641 267.83 506.808 267.755L508.275 267.098C508.442 267.023 508.517 266.827 508.442 266.659C508.387 266.533 508.263 266.459 508.134 266.462V266.462ZM543.86 266.474C543.731 266.471 543.608 266.545 543.552 266.671C543.477 266.84 543.552 267.036 543.719 267.111L545.185 267.768C545.352 267.843 545.547 267.768 545.622 267.6C545.697 267.432 545.622 267.236 545.455 267.161L543.989 266.503C543.947 266.484 543.903 266.475 543.86 266.474V266.474ZM510.989 267.195C510.926 267.19 510.86 267.205 510.8 267.239L507.496 269.157C507.337 269.25 507.283 269.452 507.375 269.612C507.467 269.771 507.668 269.826 507.827 269.734L511.131 267.815C511.29 267.723 511.344 267.52 511.252 267.361C511.195 267.261 511.095 267.202 510.989 267.195V267.195ZM541.011 267.195C540.905 267.202 540.805 267.261 540.747 267.361C540.656 267.52 540.71 267.723 540.868 267.815L544.173 269.734C544.332 269.826 544.533 269.771 544.625 269.612C544.717 269.452 544.663 269.25 544.504 269.157L541.199 267.239C541.14 267.205 541.074 267.191 541.011 267.195V267.195ZM510.165 270.01C510.101 270.013 510.037 270.033 509.982 270.074L508.683 271.022C508.534 271.13 508.502 271.337 508.609 271.486C508.717 271.635 508.923 271.668 509.071 271.56L510.37 270.612C510.519 270.504 510.552 270.297 510.444 270.148C510.377 270.054 510.271 270.006 510.165 270.01V270.01ZM541.827 270.021C541.721 270.017 541.615 270.065 541.548 270.159C541.44 270.308 541.473 270.515 541.621 270.623L542.92 271.572C543.068 271.68 543.274 271.647 543.382 271.498C543.489 271.349 543.457 271.142 543.309 271.034L542.01 270.085C541.955 270.044 541.891 270.024 541.827 270.021L541.827 270.021ZM513.107 270.136C513.023 270.131 512.937 270.16 512.868 270.221L510.031 272.786C509.894 272.909 509.883 273.119 510.006 273.256C510.128 273.393 510.337 273.404 510.473 273.281L513.311 270.716C513.447 270.593 513.458 270.383 513.336 270.246C513.274 270.178 513.192 270.141 513.107 270.136ZM538.885 270.145C538.8 270.15 538.718 270.187 538.656 270.255C538.534 270.392 538.545 270.602 538.681 270.725L541.517 273.292C541.653 273.415 541.861 273.404 541.984 273.267C542.107 273.13 542.096 272.921 541.959 272.798L539.123 270.231C539.055 270.169 538.969 270.141 538.885 270.145V270.145ZM515.799 272.582C515.693 272.578 515.587 272.626 515.52 272.719L513.275 275.822C513.167 275.971 513.2 276.178 513.348 276.286C513.496 276.395 513.702 276.362 513.81 276.213L516.055 273.111C516.163 272.961 516.13 272.754 515.982 272.646C515.926 272.605 515.863 272.584 515.799 272.582ZM536.182 272.596C536.119 272.598 536.055 272.619 535.999 272.659C535.851 272.768 535.818 272.975 535.926 273.124L538.166 276.23C538.274 276.379 538.48 276.412 538.628 276.304C538.776 276.195 538.809 275.988 538.702 275.839L536.461 272.733C536.394 272.64 536.288 272.592 536.182 272.596V272.596ZM512.901 273.075C512.817 273.08 512.734 273.117 512.673 273.185L511.599 274.384C511.476 274.521 511.487 274.731 511.623 274.854C511.76 274.978 511.968 274.967 512.091 274.83L513.165 273.63C513.287 273.493 513.276 273.284 513.14 273.16C513.072 273.099 512.986 273.071 512.902 273.075L512.901 273.075ZM539.096 273.077C539.012 273.072 538.926 273.1 538.858 273.162C538.721 273.285 538.711 273.495 538.833 273.632L539.907 274.831C540.029 274.968 540.238 274.979 540.374 274.856C540.51 274.733 540.521 274.523 540.399 274.386L539.325 273.187C539.263 273.118 539.181 273.081 539.096 273.077L539.096 273.077ZM518.934 274.407C518.805 274.404 518.681 274.478 518.625 274.605L517.071 278.108C516.996 278.277 517.071 278.473 517.238 278.548C517.405 278.623 517.6 278.548 517.675 278.379L519.23 274.876C519.304 274.707 519.23 274.511 519.062 274.436C519.02 274.417 518.977 274.408 518.934 274.407ZM533.045 274.417C533.002 274.418 532.958 274.427 532.917 274.446C532.749 274.521 532.674 274.716 532.749 274.885L534.298 278.391C534.373 278.559 534.568 278.634 534.735 278.56C534.903 278.485 534.978 278.289 534.903 278.121L533.353 274.615C533.297 274.488 533.174 274.414 533.045 274.417ZM516.202 275.491C516.096 275.498 515.996 275.557 515.939 275.656L515.136 277.054C515.044 277.214 515.098 277.416 515.257 277.508C515.416 277.601 515.617 277.546 515.709 277.387L516.512 275.989C516.603 275.829 516.549 275.627 516.391 275.535C516.331 275.5 516.265 275.486 516.202 275.491V275.491ZM535.798 275.491C535.734 275.486 535.669 275.5 535.609 275.535C535.451 275.627 535.397 275.829 535.488 275.989L536.291 277.387C536.382 277.546 536.584 277.601 536.743 277.508C536.901 277.416 536.955 277.214 536.864 277.054L536.061 275.656C536.004 275.557 535.904 275.498 535.798 275.491V275.491ZM522.395 275.541C522.241 275.539 522.102 275.647 522.069 275.804L521.276 279.557C521.238 279.738 521.352 279.913 521.531 279.952C521.71 279.99 521.885 279.876 521.923 279.695L522.716 275.943C522.754 275.762 522.641 275.586 522.461 275.548C522.439 275.543 522.417 275.541 522.395 275.541L522.395 275.541ZM529.593 275.543C529.571 275.543 529.549 275.545 529.527 275.55C529.347 275.588 529.234 275.764 529.272 275.944L530.062 279.698C530.1 279.878 530.275 279.993 530.454 279.954C530.633 279.916 530.747 279.74 530.709 279.56L529.919 275.807C529.886 275.649 529.748 275.542 529.593 275.543L529.593 275.543ZM526 275.922C525.817 275.922 525.669 276.07 525.669 276.254V280.091C525.669 280.275 525.817 280.424 526 280.424C526.183 280.424 526.331 280.275 526.331 280.091V276.254C526.331 276.07 526.183 275.922 526 275.922ZM519.928 277.161C519.799 277.172 519.684 277.259 519.641 277.39L519.145 278.925C519.088 279.1 519.183 279.287 519.357 279.344C519.532 279.401 519.718 279.306 519.774 279.131L520.27 277.596C520.327 277.421 520.232 277.234 520.058 277.177C520.015 277.163 519.97 277.158 519.928 277.161V277.161ZM532.07 277.162C532.027 277.158 531.983 277.163 531.939 277.177C531.765 277.234 531.67 277.421 531.727 277.597L532.223 279.132C532.279 279.307 532.465 279.402 532.639 279.345C532.814 279.288 532.909 279.101 532.852 278.926L532.356 277.391C532.313 277.26 532.198 277.173 532.07 277.162V277.162ZM523.923 278.017C523.77 278.032 523.644 278.153 523.627 278.313L523.459 279.918C523.44 280.102 523.571 280.265 523.754 280.284C523.936 280.303 524.098 280.171 524.117 279.988L524.285 278.383C524.304 278.2 524.173 278.037 523.991 278.017C523.968 278.015 523.945 278.015 523.923 278.017L523.923 278.017ZM528.063 278.019C528.041 278.016 528.019 278.016 527.996 278.019C527.814 278.038 527.682 278.201 527.701 278.384L527.868 279.989C527.887 280.173 528.049 280.305 528.231 280.286C528.413 280.267 528.545 280.104 528.526 279.92L528.359 278.315C528.343 278.155 528.216 278.034 528.063 278.019L528.063 278.019Z" fill="#F4F2F3"/>
<g opacity="0.409" filter="url(#filter0_f)">
<path d="M541.505 245.494L523.406 256.067L511.963 274.182L528.703 261.714L541.505 245.494Z" fill="black"/>
</g>
<path d="M528.593 261.53L523.406 256.067L541.808 243.62L528.593 261.53Z" fill="#FF5150"/>
<path d="M528.594 261.53L523.406 256.067L510.191 273.978L528.594 261.53Z" fill="#F1F1F1"/>
<path opacity="0.243" d="M510.191 273.978L528.594 261.53L541.809 243.62L510.191 273.978Z" fill="black"/>
<g clip-path="url(#clip0)">
<path d="M706.537 250.383C705.574 248.059 703.62 245.551 702.09 244.758C703.182 246.876 703.939 249.152 704.335 251.503L704.339 251.54C701.833 245.276 697.583 242.75 694.111 237.25C693.936 236.972 693.76 236.693 693.589 236.399C693.491 236.231 693.413 236.08 693.345 235.94C693.201 235.661 693.09 235.365 693.014 235.06C693.014 235.046 693.009 235.032 693 235.022C692.991 235.011 692.978 235.005 692.964 235.003C692.95 234.999 692.936 234.999 692.922 235.003C692.919 235.003 692.915 235.008 692.911 235.009C692.908 235.01 692.901 235.015 692.895 235.018L692.904 235.003C687.336 238.271 685.447 244.322 685.273 247.348C683.049 247.501 680.923 248.323 679.172 249.705C678.99 249.55 678.799 249.405 678.6 249.271C678.095 247.498 678.074 245.623 678.538 243.839C676.493 244.832 674.676 246.24 673.202 247.973H673.192C672.313 246.857 672.375 243.176 672.425 242.407C672.166 242.511 671.917 242.643 671.685 242.801C670.91 243.355 670.185 243.978 669.519 244.661C668.76 245.433 668.067 246.266 667.447 247.154V247.157V247.153C666.021 249.179 665.011 251.467 664.472 253.887L664.443 254.033C664.401 254.229 664.25 255.208 664.225 255.421C664.225 255.438 664.221 255.453 664.22 255.47C664.026 256.481 663.905 257.505 663.86 258.534V258.648C663.865 264.213 665.951 269.573 669.708 273.669C673.464 277.766 678.617 280.301 684.147 280.773C689.678 281.245 695.184 279.62 699.577 276.22C703.97 272.819 706.931 267.89 707.874 262.406C707.912 262.12 707.942 261.836 707.975 261.546C708.432 257.763 707.937 253.925 706.537 250.383ZM680.988 267.778C681.091 267.828 681.189 267.882 681.295 267.93L681.31 267.94C681.203 267.888 681.095 267.834 680.988 267.778ZM704.341 251.545V251.524L704.345 251.548L704.341 251.545Z" fill="url(#paint10_linear)"/>
<path d="M706.537 250.383C705.574 248.059 703.62 245.551 702.09 244.758C703.182 246.876 703.939 249.152 704.335 251.503V251.524L704.339 251.548C706.048 256.449 705.801 261.823 703.649 266.547C701.109 272.012 694.959 277.613 685.333 277.341C674.932 277.046 665.772 269.308 664.059 259.174C663.748 257.576 664.059 256.766 664.216 255.467C664.002 256.476 663.883 257.502 663.86 258.533V258.648C663.865 264.213 665.951 269.573 669.708 273.669C673.464 277.766 678.617 280.301 684.147 280.773C689.678 281.245 695.184 279.62 699.577 276.22C703.97 272.819 706.931 267.89 707.874 262.406C707.912 262.12 707.942 261.836 707.975 261.546C708.432 257.763 707.937 253.925 706.537 250.383Z" fill="url(#paint11_radial)"/>
<path d="M706.537 250.383C705.574 248.059 703.62 245.551 702.09 244.758C703.182 246.876 703.939 249.152 704.335 251.503V251.524L704.339 251.548C706.048 256.449 705.801 261.823 703.649 266.547C701.109 272.012 694.959 277.613 685.333 277.341C674.932 277.046 665.772 269.308 664.059 259.174C663.748 257.576 664.059 256.766 664.216 255.467C664.002 256.476 663.883 257.502 663.86 258.533V258.648C663.865 264.213 665.951 269.573 669.708 273.669C673.464 277.766 678.617 280.301 684.147 280.773C689.678 281.245 695.184 279.62 699.577 276.22C703.97 272.819 706.931 267.89 707.874 262.406C707.912 262.12 707.942 261.836 707.975 261.546C708.432 257.763 707.937 253.925 706.537 250.383Z" fill="url(#paint12_radial)"/>
<path d="M695.765 252.995C695.813 253.029 695.858 253.063 695.903 253.097C695.346 252.107 694.653 251.2 693.844 250.404C686.954 243.496 692.038 235.425 692.896 235.015L692.904 235.003C687.336 238.271 685.447 244.322 685.273 247.348C685.532 247.33 685.788 247.309 686.052 247.309C688.028 247.312 689.967 247.84 691.673 248.839C693.379 249.838 694.791 251.272 695.765 252.995Z" fill="url(#paint13_radial)"/>
<path d="M686.065 254.375C686.029 254.927 684.081 256.834 683.4 256.834C677.096 256.834 676.073 260.657 676.073 260.657C676.352 263.876 678.589 266.527 681.294 267.93C681.418 267.994 681.543 268.052 681.668 268.109C681.885 268.205 682.102 268.294 682.319 268.376C683.247 268.705 684.22 268.893 685.203 268.934C696.252 269.453 698.392 255.688 690.419 251.694C692.3 251.449 694.205 251.912 695.764 252.995C694.79 251.272 693.378 249.838 691.672 248.839C689.966 247.84 688.027 247.312 686.051 247.309C685.788 247.309 685.531 247.33 685.272 247.348C683.049 247.501 680.923 248.323 679.172 249.705C679.51 249.992 679.891 250.375 680.695 251.169C682.199 252.655 686.057 254.194 686.065 254.375Z" fill="url(#paint14_radial)"/>
<path d="M686.065 254.375C686.029 254.927 684.081 256.834 683.4 256.834C677.096 256.834 676.073 260.657 676.073 260.657C676.352 263.876 678.589 266.527 681.294 267.93C681.418 267.994 681.543 268.052 681.668 268.109C681.885 268.205 682.102 268.294 682.319 268.376C683.247 268.705 684.22 268.893 685.203 268.934C696.252 269.453 698.392 255.688 690.419 251.694C692.3 251.449 694.205 251.912 695.764 252.995C694.79 251.272 693.378 249.838 691.672 248.839C689.966 247.84 688.027 247.312 686.051 247.309C685.788 247.309 685.531 247.33 685.272 247.348C683.049 247.501 680.923 248.323 679.172 249.705C679.51 249.992 679.891 250.375 680.695 251.169C682.199 252.655 686.057 254.194 686.065 254.375Z" fill="url(#paint15_radial)"/>
<path d="M678.138 248.966C678.318 249.081 678.466 249.181 678.596 249.271C678.091 247.498 678.069 245.623 678.534 243.839C676.489 244.832 674.672 246.24 673.198 247.973C673.306 247.97 676.521 247.912 678.138 248.966Z" fill="url(#paint16_radial)"/>
<path d="M664.063 259.174C665.774 269.308 674.936 277.046 685.337 277.341C694.963 277.614 701.113 272.012 703.653 266.547C705.804 261.823 706.052 256.449 704.343 251.548V251.527C704.343 251.51 704.34 251.5 704.343 251.505L704.347 251.543C705.133 256.69 702.522 261.677 698.439 265.049L698.427 265.078C690.472 271.573 682.859 268.996 681.318 267.945C681.211 267.893 681.103 267.839 680.995 267.784C676.357 265.561 674.441 261.325 674.852 257.692C673.751 257.708 672.669 257.404 671.737 256.816C670.805 256.228 670.063 255.382 669.601 254.38C670.818 253.633 672.207 253.21 673.633 253.152C675.06 253.095 676.477 253.405 677.751 254.052C680.376 255.247 683.363 255.365 686.074 254.38C686.065 254.2 682.207 252.66 680.703 251.175C679.9 250.381 679.518 249.998 679.18 249.711C678.997 249.556 678.806 249.411 678.608 249.277C678.477 249.186 678.328 249.089 678.151 248.972C676.534 247.918 673.318 247.976 673.212 247.979H673.201C672.323 246.862 672.385 243.181 672.435 242.412C672.175 242.517 671.927 242.649 671.695 242.806C670.919 243.361 670.194 243.984 669.528 244.667C668.767 245.436 668.071 246.268 667.447 247.154V247.157V247.153C666.022 249.179 665.011 251.467 664.473 253.887C664.462 253.932 663.675 257.384 664.063 259.174Z" fill="url(#paint17_radial)"/>
<path d="M693.844 250.404C694.654 251.201 695.347 252.108 695.903 253.099C696.025 253.192 696.139 253.283 696.236 253.372C701.262 258.017 698.628 264.582 698.432 265.05C702.515 261.677 705.124 256.691 704.34 251.543C701.832 245.276 697.582 242.75 694.111 237.25C693.935 236.972 693.76 236.693 693.589 236.399C693.491 236.231 693.413 236.08 693.344 235.94C693.2 235.661 693.09 235.365 693.014 235.06C693.014 235.046 693.009 235.032 693 235.022C692.99 235.011 692.977 235.005 692.964 235.003C692.95 234.999 692.935 234.999 692.922 235.003C692.919 235.003 692.914 235.008 692.911 235.009C692.907 235.01 692.9 235.015 692.895 235.018C692.038 235.425 686.953 243.496 693.844 250.404Z" fill="url(#paint18_radial)"/>
<path d="M696.232 253.369C696.135 253.281 696.022 253.189 695.9 253.096C695.855 253.063 695.81 253.029 695.762 252.995C694.203 251.912 692.298 251.449 690.417 251.694C698.39 255.691 696.251 269.453 685.201 268.934C684.217 268.893 683.245 268.705 682.317 268.376C682.1 268.294 681.883 268.205 681.666 268.109C681.541 268.051 681.415 267.994 681.292 267.93L681.307 267.94C682.848 268.994 690.459 271.57 698.416 265.073L698.428 265.044C698.627 264.579 701.26 258.012 696.232 253.369Z" fill="url(#paint19_radial)"/>
<path d="M676.074 260.657C676.074 260.657 677.097 256.834 683.401 256.834C684.082 256.834 686.032 254.927 686.066 254.375C683.356 255.359 680.369 255.241 677.743 254.047C676.47 253.399 675.052 253.089 673.626 253.147C672.199 253.204 670.811 253.627 669.593 254.375C670.056 255.377 670.798 256.223 671.73 256.81C672.662 257.398 673.744 257.702 674.845 257.686C674.434 261.32 676.35 265.556 680.988 267.778C681.092 267.828 681.189 267.882 681.295 267.929C678.588 266.527 676.353 263.876 676.074 260.657Z" fill="url(#paint20_radial)"/>
<path d="M706.537 250.383C705.574 248.059 703.62 245.551 702.09 244.758C703.182 246.876 703.939 249.152 704.335 251.503L704.339 251.54C701.833 245.276 697.583 242.75 694.111 237.25C693.936 236.972 693.76 236.693 693.589 236.399C693.491 236.231 693.413 236.08 693.345 235.94C693.201 235.661 693.09 235.365 693.014 235.06C693.014 235.046 693.009 235.032 693 235.022C692.991 235.011 692.978 235.005 692.964 235.003C692.95 234.999 692.936 234.999 692.922 235.003C692.919 235.003 692.915 235.008 692.911 235.009C692.908 235.01 692.901 235.015 692.895 235.018L692.904 235.003C687.336 238.271 685.447 244.322 685.273 247.348C685.531 247.33 685.788 247.309 686.052 247.309C688.028 247.312 689.967 247.84 691.673 248.839C693.379 249.838 694.791 251.272 695.765 252.995C694.206 251.912 692.301 251.449 690.42 251.694C698.393 255.691 696.254 269.453 685.204 268.934C684.22 268.893 683.248 268.705 682.32 268.376C682.103 268.295 681.886 268.205 681.669 268.109C681.544 268.051 681.418 267.994 681.295 267.93L681.31 267.94C681.203 267.888 681.095 267.834 680.988 267.778C681.091 267.828 681.189 267.882 681.295 267.93C678.588 266.527 676.353 263.876 676.073 260.657C676.073 260.657 677.097 256.834 683.4 256.834C684.081 256.834 686.031 254.927 686.066 254.375C686.058 254.194 682.2 252.654 680.695 251.169C679.892 250.375 679.51 249.993 679.172 249.705C678.99 249.55 678.799 249.405 678.6 249.271C678.095 247.498 678.074 245.623 678.538 243.839C676.493 244.832 674.676 246.24 673.202 247.973H673.192C672.313 246.857 672.375 243.176 672.425 242.407C672.166 242.511 671.917 242.643 671.685 242.801C670.91 243.355 670.185 243.978 669.519 244.661C668.76 245.433 668.067 246.266 667.447 247.154V247.157V247.153C666.021 249.179 665.011 251.467 664.472 253.887L664.443 254.033C664.401 254.229 664.214 255.222 664.187 255.435C664.187 255.451 664.187 255.419 664.187 255.435C664.016 256.461 663.907 257.495 663.86 258.534V258.648C663.865 264.213 665.951 269.573 669.708 273.669C673.464 277.766 678.617 280.301 684.147 280.773C689.678 281.245 695.184 279.62 699.577 276.22C703.97 272.819 706.931 267.89 707.874 262.406C707.912 262.12 707.942 261.836 707.975 261.546C708.432 257.763 707.937 253.925 706.537 250.383ZM704.338 251.524L704.342 251.548L704.338 251.524Z" fill="url(#paint21_linear)"/>
</g>
<path d="M224.592 269.476C223.993 269.789 223.375 270.065 222.742 270.303C220.726 271.057 218.591 271.441 216.44 271.437C208.133 271.437 200.897 265.723 200.897 258.39C200.908 257.407 201.181 256.444 201.688 255.601C202.195 254.759 202.917 254.066 203.781 253.596C196.268 253.912 194.337 261.741 194.337 266.328C194.337 279.297 206.29 280.612 208.865 280.612C210.253 280.612 212.348 280.209 213.605 279.812L213.835 279.735C218.671 278.062 222.794 274.794 225.526 270.466C225.609 270.334 225.647 270.178 225.632 270.023C225.617 269.867 225.551 269.721 225.444 269.608C225.336 269.494 225.195 269.42 225.04 269.396C224.886 269.372 224.728 269.4 224.592 269.476V269.476Z" fill="url(#paint22_linear)"/>
<path opacity="0.35" d="M224.592 269.476C223.993 269.789 223.375 270.065 222.742 270.303C220.726 271.057 218.591 271.441 216.44 271.437C208.133 271.437 200.897 265.723 200.897 258.39C200.908 257.407 201.181 256.444 201.688 255.601C202.195 254.759 202.917 254.066 203.781 253.596C196.268 253.912 194.337 261.741 194.337 266.328C194.337 279.297 206.29 280.612 208.865 280.612C210.253 280.612 212.348 280.209 213.605 279.812L213.835 279.735C218.671 278.062 222.794 274.794 225.526 270.466C225.609 270.334 225.647 270.178 225.632 270.023C225.617 269.867 225.551 269.721 225.444 269.608C225.336 269.494 225.195 269.42 225.04 269.396C224.886 269.372 224.728 269.4 224.592 269.476V269.476Z" fill="url(#paint23_radial)"/>
<path d="M202.589 278.407C201.024 277.436 199.667 276.162 198.597 274.661C197.379 272.992 196.54 271.076 196.14 269.048C195.741 267.02 195.79 264.929 196.283 262.922C196.777 260.914 197.705 259.04 199 257.429C200.295 255.818 201.927 254.51 203.781 253.596C204.329 253.338 205.265 252.871 206.509 252.894C207.386 252.901 208.249 253.11 209.032 253.506C209.814 253.902 210.494 254.473 211.019 255.176C211.728 256.123 212.119 257.269 212.135 258.452C212.135 258.415 216.429 244.479 198.092 244.479C190.386 244.479 184.049 251.792 184.049 258.208C184.018 261.602 184.744 264.96 186.174 268.038C188.511 273.025 192.598 276.979 197.659 279.151C202.719 281.323 208.401 281.56 213.626 279.819C211.796 280.396 209.864 280.569 207.961 280.326C206.059 280.084 204.231 279.431 202.605 278.414L202.589 278.407Z" fill="url(#paint24_linear)"/>
<path opacity="0.41" d="M202.589 278.407C201.024 277.436 199.667 276.162 198.597 274.661C197.379 272.992 196.54 271.076 196.14 269.048C195.741 267.02 195.79 264.929 196.283 262.922C196.777 260.914 197.705 259.04 199 257.429C200.295 255.818 201.927 254.51 203.781 253.596C204.329 253.338 205.265 252.871 206.509 252.894C207.386 252.901 208.249 253.11 209.032 253.506C209.814 253.902 210.494 254.473 211.019 255.176C211.728 256.123 212.119 257.269 212.135 258.452C212.135 258.415 216.429 244.479 198.092 244.479C190.386 244.479 184.049 251.792 184.049 258.208C184.018 261.602 184.744 264.96 186.174 268.038C188.511 273.025 192.598 276.979 197.659 279.151C202.719 281.323 208.401 281.56 213.626 279.819C211.796 280.396 209.864 280.569 207.961 280.326C206.059 280.084 204.231 279.431 202.605 278.414L202.589 278.407Z" fill="url(#paint25_radial)"/>
<path d="M210.771 262.161C210.629 262.345 210.192 262.599 210.192 263.154C210.192 263.612 210.49 264.053 211.02 264.423C213.544 266.179 218.303 265.947 218.316 265.947C220.186 265.942 222.021 265.436 223.629 264.481C225.252 263.534 226.598 262.179 227.535 260.551C228.472 258.922 228.967 257.077 228.971 255.199C229.017 251.265 227.567 248.649 226.98 247.49C223.261 240.214 215.231 236.029 206.5 236.029C200.595 236.029 194.927 238.353 190.722 242.498C186.517 246.644 184.114 252.278 184.031 258.183C184.115 251.768 190.49 246.588 198.074 246.588C198.688 246.588 202.192 246.648 205.447 248.356C208.315 249.862 209.818 251.681 210.862 253.483C211.947 255.356 212.14 257.723 212.14 258.665C212.14 259.608 211.659 261.005 210.771 262.161V262.161Z" fill="url(#paint26_radial)"/>
<path d="M210.771 262.161C210.629 262.345 210.192 262.599 210.192 263.154C210.192 263.612 210.49 264.053 211.02 264.423C213.544 266.179 218.303 265.947 218.316 265.947C220.186 265.942 222.021 265.436 223.629 264.481C225.252 263.534 226.598 262.179 227.535 260.551C228.472 258.922 228.967 257.077 228.971 255.199C229.017 251.265 227.567 248.649 226.98 247.49C223.261 240.214 215.231 236.029 206.5 236.029C200.595 236.029 194.927 238.353 190.722 242.498C186.517 246.644 184.114 252.278 184.031 258.183C184.115 251.768 190.49 246.588 198.074 246.588C198.688 246.588 202.192 246.648 205.447 248.356C208.315 249.862 209.818 251.681 210.862 253.483C211.947 255.356 212.14 257.723 212.14 258.665C212.14 259.608 211.659 261.005 210.771 262.161V262.161Z" fill="url(#paint27_radial)"/>
<line x1="158" y1="213.5" x2="738" y2="213.5" stroke="#CCCCCC"/>
<defs>
<filter id="filter0_f" x="511.289" y="244.821" width="30.889" height="30.0343" filterUnits="userSpaceOnUse" color-interpolation-filters="sRGB">
<feFlood flood-opacity="0" result="BackgroundImageFix"/>
<feBlend mode="normal" in="SourceGraphic" in2="BackgroundImageFix" result="shape"/>
<feGaussianBlur stdDeviation="0.336663" result="effect1_foregroundBlur"/>
</filter>
<linearGradient id="paint0_linear" x1="349.457" y1="253.136" x2="362.88" y2="245.294" gradientUnits="userSpaceOnUse">
<stop stop-color="#A52714" stop-opacity="0.6"/>
<stop offset="0.66" stop-color="#A52714" stop-opacity="0"/>
</linearGradient>
<linearGradient id="paint1_linear" x1="370.31" y1="276.014" x2="355.388" y2="267.27" gradientUnits="userSpaceOnUse">
<stop stop-color="#055524" stop-opacity="0.4"/>
<stop offset="0.33" stop-color="#055524" stop-opacity="0"/>
</linearGradient>
<linearGradient id="paint2_linear" x1="373.12" y1="246.687" x2="376.878" y2="263.128" gradientUnits="userSpaceOnUse">
<stop stop-color="#EA6100" stop-opacity="0.3"/>
<stop offset="0.66" stop-color="#EA6100" stop-opacity="0"/>
</linearGradient>
<linearGradient id="paint3_linear" x1="373.123" y1="246.687" x2="376.882" y2="263.128" gradientUnits="userSpaceOnUse">
<stop stop-color="#EA6100" stop-opacity="0.3"/>
<stop offset="0.66" stop-color="#EA6100" stop-opacity="0"/>
</linearGradient>
<linearGradient id="paint4_linear" x1="349.455" y1="253.136" x2="362.878" y2="245.294" gradientUnits="userSpaceOnUse">
<stop stop-color="#A52714" stop-opacity="0.6"/>
<stop offset="0.66" stop-color="#A52714" stop-opacity="0"/>
</linearGradient>
<radialGradient id="paint5_radial" cx="0" cy="0" r="1" gradientUnits="userSpaceOnUse" gradientTransform="translate(365.528 248.26) scale(21.4977)">
<stop stop-color="#3E2723" stop-opacity="0.2"/>
<stop offset="1" stop-color="#3E2723" stop-opacity="0"/>
</radialGradient>
<linearGradient id="paint6_linear" x1="370.31" y1="276.014" x2="355.388" y2="267.27" gradientUnits="userSpaceOnUse">
<stop stop-color="#055524" stop-opacity="0.4"/>
<stop offset="0.33" stop-color="#055524" stop-opacity="0"/>
</linearGradient>
<radialGradient id="paint7_radial" cx="0" cy="0" r="1" gradientUnits="userSpaceOnUse" gradientTransform="translate(347.554 246.36) scale(19.9534)">
<stop stop-color="#3E2723" stop-opacity="0.2"/>
<stop offset="1" stop-color="#3E2723" stop-opacity="0"/>
</radialGradient>
<radialGradient id="paint8_radial" cx="0" cy="0" r="1" gradientUnits="userSpaceOnUse" gradientTransform="translate(366.449 258.536) scale(22.4668)">
<stop stop-color="#263238" stop-opacity="0.2"/>
<stop offset="1" stop-color="#263238" stop-opacity="0"/>
</radialGradient>
<radialGradient id="paint9_radial" cx="0" cy="0" r="1" gradientUnits="userSpaceOnUse" gradientTransform="translate(526.104 255.472) scale(24.6187 24.7541)">
<stop stop-color="#06C2E7"/>
<stop offset="0.25" stop-color="#0DB8EC"/>
<stop offset="0.5" stop-color="#12AEF1"/>
<stop offset="0.75" stop-color="#1F86F9"/>
<stop offset="1" stop-color="#107DDD"/>
</radialGradient>
<linearGradient id="paint10_linear" x1="703.603" y1="242.104" x2="666.714" y2="277.605" gradientUnits="userSpaceOnUse">
<stop offset="0.048" stop-color="#FFF44F"/>
<stop offset="0.111" stop-color="#FFE847"/>
<stop offset="0.225" stop-color="#FFC830"/>
<stop offset="0.368" stop-color="#FF980E"/>
<stop offset="0.401" stop-color="#FF8B16"/>
<stop offset="0.462" stop-color="#FF672A"/>
<stop offset="0.534" stop-color="#FF3647"/>
<stop offset="0.705" stop-color="#E31587"/>
</linearGradient>
<radialGradient id="paint11_radial" cx="0" cy="0" r="1" gradientUnits="userSpaceOnUse" gradientTransform="translate(701.903 240.089) scale(46.2127 46.3291)">
<stop offset="0.129" stop-color="#FFBD4F"/>
<stop offset="0.186" stop-color="#FFAC31"/>
<stop offset="0.247" stop-color="#FF9D17"/>
<stop offset="0.283" stop-color="#FF980E"/>
<stop offset="0.403" stop-color="#FF563B"/>
<stop offset="0.467" stop-color="#FF3750"/>
<stop offset="0.71" stop-color="#F5156C"/>
<stop offset="0.782" stop-color="#EB0878"/>
<stop offset="0.86" stop-color="#E50080"/>
</radialGradient>
<radialGradient id="paint12_radial" cx="0" cy="0" r="1" gradientUnits="userSpaceOnUse" gradientTransform="translate(685.016 259.03) scale(46.2127 46.3291)">
<stop offset="0.3" stop-color="#960E18"/>
<stop offset="0.351" stop-color="#B11927" stop-opacity="0.74"/>
<stop offset="0.435" stop-color="#DB293D" stop-opacity="0.343"/>
<stop offset="0.497" stop-color="#F5334B" stop-opacity="0.094"/>
<stop offset="0.53" stop-color="#FF3750" stop-opacity="0"/>
</radialGradient>
<radialGradient id="paint13_radial" cx="0" cy="0" r="1" gradientUnits="userSpaceOnUse" gradientTransform="translate(690.588 229.575) scale(33.4792 33.5635)">
<stop offset="0.132" stop-color="#FFF44F"/>
<stop offset="0.252" stop-color="#FFDC3E"/>
<stop offset="0.506" stop-color="#FF9D12"/>
<stop offset="0.526" stop-color="#FF980E"/>
</radialGradient>
<radialGradient id="paint14_radial" cx="0" cy="0" r="1" gradientUnits="userSpaceOnUse" gradientTransform="translate(679.904 271.131) scale(22.0039 22.0593)">
<stop offset="0.353" stop-color="#3A8EE6"/>
<stop offset="0.472" stop-color="#5C79F0"/>
<stop offset="0.669" stop-color="#9059FF"/>
<stop offset="1" stop-color="#C139E6"/>
</radialGradient>
<radialGradient id="paint15_radial" cx="0" cy="0" r="1" gradientUnits="userSpaceOnUse" gradientTransform="translate(687.541 255.233) rotate(-13.6245) scale(11.668 13.6909)">
<stop offset="0.206" stop-color="#9059FF" stop-opacity="0"/>
<stop offset="0.278" stop-color="#8C4FF3" stop-opacity="0.064"/>
<stop offset="0.747" stop-color="#7716A8" stop-opacity="0.45"/>
<stop offset="0.975" stop-color="#6E008B" stop-opacity="0.6"/>
</radialGradient>
<radialGradient id="paint16_radial" cx="0" cy="0" r="1" gradientUnits="userSpaceOnUse" gradientTransform="translate(684.432 238.193) scale(15.8296 15.8695)">
<stop stop-color="#FFE226"/>
<stop offset="0.121" stop-color="#FFDB27"/>
<stop offset="0.295" stop-color="#FFC82A"/>
<stop offset="0.502" stop-color="#FFA930"/>
<stop offset="0.732" stop-color="#FF7E37"/>
<stop offset="0.792" stop-color="#FF7139"/>
</radialGradient>
<radialGradient id="paint17_radial" cx="0" cy="0" r="1" gradientUnits="userSpaceOnUse" gradientTransform="translate(696.876 228.128) scale(67.5377 67.7078)">
<stop offset="0.113" stop-color="#FFF44F"/>
<stop offset="0.456" stop-color="#FF980E"/>
<stop offset="0.622" stop-color="#FF5634"/>
<stop offset="0.716" stop-color="#FF3647"/>
<stop offset="0.904" stop-color="#E31587"/>
</radialGradient>
<radialGradient id="paint18_radial" cx="0" cy="0" r="1" gradientUnits="userSpaceOnUse" gradientTransform="translate(691.182 231.892) rotate(83.991) scale(49.6233 32.4873)">
<stop stop-color="#FFF44F"/>
<stop offset="0.06" stop-color="#FFE847"/>
<stop offset="0.168" stop-color="#FFC830"/>
<stop offset="0.304" stop-color="#FF980E"/>
<stop offset="0.356" stop-color="#FF8B16"/>
<stop offset="0.455" stop-color="#FF672A"/>
<stop offset="0.57" stop-color="#FF3647"/>
<stop offset="0.737" stop-color="#E31587"/>
</radialGradient>
<radialGradient id="paint19_radial" cx="0" cy="0" r="1" gradientUnits="userSpaceOnUse" gradientTransform="translate(684.059 244.071) scale(42.165 42.2712)">
<stop offset="0.137" stop-color="#FFF44F"/>
<stop offset="0.48" stop-color="#FF980E"/>
<stop offset="0.592" stop-color="#FF5634"/>
<stop offset="0.655" stop-color="#FF3647"/>
<stop offset="0.904" stop-color="#E31587"/>
</radialGradient>
<radialGradient id="paint20_radial" cx="0" cy="0" r="1" gradientUnits="userSpaceOnUse" gradientTransform="translate(695.19 246.545) scale(46.1492 46.2655)">
<stop offset="0.094" stop-color="#FFF44F"/>
<stop offset="0.231" stop-color="#FFE141"/>
<stop offset="0.509" stop-color="#FFAF1E"/>
<stop offset="0.626" stop-color="#FF980E"/>
</radialGradient>
<linearGradient id="paint21_linear" x1="703.161" y1="241.913" x2="671.77" y2="273.225" gradientUnits="userSpaceOnUse">
<stop offset="0.167" stop-color="#FFF44F" stop-opacity="0.8"/>
<stop offset="0.266" stop-color="#FFF44F" stop-opacity="0.634"/>
<stop offset="0.489" stop-color="#FFF44F" stop-opacity="0.217"/>
<stop offset="0.6" stop-color="#FFF44F" stop-opacity="0"/>
</linearGradient>
<linearGradient id="paint22_linear" x1="194.337" y1="267.108" x2="225.643" y2="267.108" gradientUnits="userSpaceOnUse">
<stop stop-color="#0C59A4"/>
<stop offset="1" stop-color="#114A8B"/>
</linearGradient>
<radialGradient id="paint23_radial" cx="0" cy="0" r="1" gradientUnits="userSpaceOnUse" gradientTransform="translate(211.628 267.355) scale(16.7432 15.906)">
<stop offset="0.72" stop-opacity="0"/>
<stop offset="0.95" stop-opacity="0.53"/>
<stop offset="1"/>
</radialGradient>
<linearGradient id="paint24_linear" x1="210.841" y1="253.528" x2="191.288" y2="274.826" gradientUnits="userSpaceOnUse">
<stop stop-color="#1B9DE2"/>
<stop offset="0.16" stop-color="#1595DF"/>
<stop offset="0.67" stop-color="#0680D7"/>
<stop offset="1" stop-color="#0078D4"/>
</linearGradient>
<radialGradient id="paint25_radial" cx="0" cy="0" r="1" gradientUnits="userSpaceOnUse" gradientTransform="translate(196.422 270.962) rotate(-81.3844) scale(25.1773 20.3407)">
<stop offset="0.76" stop-opacity="0"/>
<stop offset="0.95" stop-opacity="0.5"/>
<stop offset="1"/>
</radialGradient>
<radialGradient id="paint26_radial" cx="0" cy="0" r="1" gradientUnits="userSpaceOnUse" gradientTransform="translate(188.57 244.346) rotate(92.2906) scale(35.5634 75.7426)">
<stop stop-color="#35C1F1"/>
<stop offset="0.11" stop-color="#34C1ED"/>
<stop offset="0.23" stop-color="#2FC2DF"/>
<stop offset="0.31" stop-color="#2BC3D2"/>
<stop offset="0.67" stop-color="#36C752"/>
</radialGradient>
<radialGradient id="paint27_radial" cx="0" cy="0" r="1" gradientUnits="userSpaceOnUse" gradientTransform="translate(226.173 249.617) rotate(73.7398) scale(17.0873 13.8954)">
<stop stop-color="#66EB6E"/>
<stop offset="1" stop-color="#66EB6E" stop-opacity="0"/>
</radialGradient>
<clipPath id="clip0">
<rect width="50" height="47" fill="white" transform="translate(661 235)"/>
</clipPath>
</defs>
</svg>
