<?xml version="1.0" encoding="UTF-8"?>
<svg width="1535px" height="747px" viewBox="0 0 1535 747" version="1.1" xmlns="http://www.w3.org/2000/svg" xmlns:xlink="http://www.w3.org/1999/xlink">
    <!-- Generator: Sketch 52.4 (67378) - http://www.bohemiancoding.com/sketch -->
    <title>Artboard</title>
    <desc>Created with Sketch.</desc>
    <g id="Artboard" stroke="none" stroke-width="1" fill="none" fill-rule="evenodd">
        <g id="Group-11">
            <g id="Group-10" transform="translate(219.000000, 0.000000)">
                <g id="Group-8">
                    <g id="Group-3" transform="translate(100.000000, 0.000000)">
                        <g id="Group">
                            <polygon id="Path-4" fill="#5AC4C4" points="0 25 50 50 50 100 0 75"></polygon>
                            <polygon id="Path-5" fill="#02A5A5" points="50 100 100 75 100 25 50 50"></polygon>
                            <polygon id="Path-6" fill="#2DCCCD" points="50 0 0 25 50 50 100 25"></polygon>
                        </g>
                        <g id="Group-2" transform="translate(33.000000, 5.000000)">
                            <path d="M0.0289235773,20 L0,20 L0,8.88888889 L34,8.88888889 L34,20 L33.9710764,20 C33.9902699,20.1838239 34,20.3690584 34,20.5555556 C34,25.7715782 26.3888407,30 17,30 C7.61115925,30 0,25.7715782 0,20.5555556 C0,20.3690584 0.00973007247,20.1838239 0.0289235773,20 Z" id="Combined-Shape" fill="#02A5A5"></path>
                            <ellipse id="Oval" fill="#5AC4C4" cx="17" cy="9.44444444" rx="17" ry="9.44444444"></ellipse>
                        </g>
                    </g>
                    <g id="Group-3" transform="translate(50.000000, 25.000000)">
                        <g id="Group">
                            <polygon id="Path-4" fill="#136EB1" points="0 25 50 50 50 100 0 75"></polygon>
                            <polygon id="Path-5" fill="#004481" points="50 100 100 75 100 25 50 50"></polygon>
                            <polygon id="Path-6" fill="#1464A5" points="50 0 0 25 50 50 100 25"></polygon>
                        </g>
                        <g id="Group-2" transform="translate(33.000000, 5.000000)">
                            <path d="M0.0289235773,20 L0,20 L0,8.88888889 L34,8.88888889 L34,20 L33.9710764,20 C33.9902699,20.1838239 34,20.3690584 34,20.5555556 C34,25.7715782 26.3888407,30 17,30 C7.61115925,30 0,25.7715782 0,20.5555556 C0,20.3690584 0.00973007247,20.1838239 0.0289235773,20 Z" id="Combined-Shape" fill="#004481" opacity="0.642578125"></path>
                            <ellipse id="Oval" fill="#045BAA" cx="17" cy="9.44444444" rx="17" ry="9.44444444"></ellipse>
                        </g>
                    </g>
                    <g id="Group-3" transform="translate(336.000000, 543.000000)">
                        <g id="Group">
                            <polygon id="Path-4" fill="#136EB1" points="0 25 50 50 50 100 0 75"></polygon>
                            <polygon id="Path-5" fill="#004481" points="50 100 100 75 100 25 50 50"></polygon>
                            <polygon id="Path-6" fill="#1464A5" points="50 0 0 25 50 50 100 25"></polygon>
                        </g>
                        <g id="Group-2" transform="translate(33.000000, 5.000000)">
                            <path d="M0.0289235773,20 L0,20 L0,8.88888889 L34,8.88888889 L34,20 L33.9710764,20 C33.9902699,20.1838239 34,20.3690584 34,20.5555556 C34,25.7715782 26.3888407,30 17,30 C7.61115925,30 0,25.7715782 0,20.5555556 C0,20.3690584 0.00973007247,20.1838239 0.0289235773,20 Z" id="Combined-Shape" fill="#004481" opacity="0.642578125"></path>
                            <ellipse id="Oval" fill="#045BAA" cx="17" cy="9.44444444" rx="17" ry="9.44444444"></ellipse>
                        </g>
                    </g>
                    <g id="Group-3" transform="translate(192.000000, 472.000000)">
                        <g id="Group">
                            <polygon id="Path-4" fill="#D8BE75" points="0 25 50 50 50 100 0 75"></polygon>
                            <polygon id="Path-5" fill="#B79E5E" points="50 100 100 75 100 25 50 50"></polygon>
                            <polygon id="Path-6" fill="#E6D5A5" points="50 0 0 25 50 50 100 25"></polygon>
                        </g>
                        <g id="Group-2" transform="translate(33.000000, 5.000000)">
                            <path d="M0.0289235773,20 L0,20 L0,8.88888889 L34,8.88888889 L34,20 L33.9710764,20 C33.9902699,20.1838239 34,20.3690584 34,20.5555556 C34,25.7715782 26.3888407,30 17,30 C7.61115925,30 0,25.7715782 0,20.5555556 C0,20.3690584 0.00973007247,20.1838239 0.0289235773,20 Z" id="Combined-Shape" fill="#B79E5E"></path>
                            <ellipse id="Oval" fill="#D8BE75" cx="17" cy="9.44444444" rx="17" ry="9.44444444"></ellipse>
                        </g>
                    </g>
                    <g id="Group-3" transform="translate(496.000000, 216.000000)">
                        <g id="Group">
                            <polygon id="Path-4" fill="#136EB1" points="0 25 50 50 50 100 0 75"></polygon>
                            <polygon id="Path-5" fill="#004481" points="50 100 100 75 100 25 50 50"></polygon>
                            <polygon id="Path-6" fill="#1464A5" points="50 0 0 25 50 50 100 25"></polygon>
                        </g>
                        <g id="Group-2" transform="translate(33.000000, 5.000000)">
                            <path d="M0.0289235773,20 L0,20 L0,8.88888889 L34,8.88888889 L34,20 L33.9710764,20 C33.9902699,20.1838239 34,20.3690584 34,20.5555556 C34,25.7715782 26.3888407,30 17,30 C7.61115925,30 0,25.7715782 0,20.5555556 C0,20.3690584 0.00973007247,20.1838239 0.0289235773,20 Z" id="Combined-Shape" fill="#004481" opacity="0.642578125"></path>
                            <ellipse id="Oval" fill="#045BAA" cx="17" cy="9.44444444" rx="17" ry="9.44444444"></ellipse>
                        </g>
                    </g>
                    <g id="Group" transform="translate(596.000000, 416.000000)">
                        <polygon id="Path-4" fill="#49A5E6" points="0 25 50 50 50 100 0 75"></polygon>
                        <polygon id="Path-5" fill="#004481" points="50 100 100 75 100 25 50 50"></polygon>
                        <polygon id="Path-6" fill="#D4EDFC" points="50 0 0 25 50 50 100 25"></polygon>
                    </g>
                    <g id="Group" transform="translate(596.000000, 366.000000)">
                        <polygon id="Path-4" fill="#49A5E6" points="0 25 50 50 50 100 0 75"></polygon>
                        <polygon id="Path-5" fill="#7C6AC7" points="50 100 100 75 100 25 50 50"></polygon>
                        <polygon id="Path-6" fill="#D4EDFC" points="50 0 0 25 50 50 100 25"></polygon>
                    </g>
                    <g id="Group-3" transform="translate(396.000000, 416.000000)">
                        <g id="Group">
                            <polygon id="Path-4" fill="#136EB1" points="0 25 50 50 50 100 0 75"></polygon>
                            <polygon id="Path-5" fill="#0962A7" points="50 100 100 75 100 25 50 50"></polygon>
                            <polygon id="Path-6" fill="#1F85C1" points="50 0 0 25 50 50 100 25"></polygon>
                        </g>
                        <g id="Group-2" transform="translate(33.000000, 5.000000)">
                            <path d="M0.0289235773,20 L0,20 L0,8.88888889 L34,8.88888889 L34,20 L33.9710764,20 C33.9902699,20.1838239 34,20.3690584 34,20.5555556 C34,25.7715782 26.3888407,30 17,30 C7.61115925,30 0,25.7715782 0,20.5555556 C0,20.3690584 0.00973007247,20.1838239 0.0289235773,20 Z" id="Combined-Shape" fill="#136EB1"></path>
                            <ellipse id="Oval" fill="#309ED9" cx="17" cy="9.44444444" rx="17" ry="9.44444444"></ellipse>
                        </g>
                    </g>
                    <g id="Group" transform="translate(546.000000, 441.000000)">
                        <polygon id="Path-4" fill="#49A5E6" points="0 25 50 50 50 100 0 75"></polygon>
                        <polygon id="Path-5" fill="#1464A5" points="50 100 100 75 100 25 50 50"></polygon>
                        <polygon id="Path-6" fill="#D4EDFC" points="50 0 0 25 50 50 100 25"></polygon>
                    </g>
                    <g id="Group" transform="translate(546.000000, 391.000000)">
                        <polygon id="Path-4" fill="#49A5E6" points="0 25 50 50 50 100 0 75"></polygon>
                        <polygon id="Path-5" fill="#7C6AC7" points="50 100 100 75 100 25 50 50"></polygon>
                        <polygon id="Path-6" fill="#D4EDFC" points="50 0 0 25 50 50 100 25"></polygon>
                    </g>
                    <g id="Group" transform="translate(446.000000, 441.000000)">
                        <polygon id="Path-4" fill="#D8BE75" points="0 25 50 50 50 100 0 75"></polygon>
                        <polygon id="Path-5" fill="#02A5A5" points="50 100 100 75 100 25 50 50"></polygon>
                        <polygon id="Path-6" fill="#EAF9FA" points="50 0 0 25 50 50 100 25"></polygon>
                    </g>
                    <g id="Group" transform="translate(446.000000, 391.000000)">
                        <polygon id="Path-4" fill="#2DCCCD" points="0 25 50 50 50 100 0 75"></polygon>
                        <polygon id="Path-5" fill="#02A5A5" points="50 100 100 75 100 25 50 50"></polygon>
                        <polygon id="Path-6" fill="#EAF9FA" points="50 0 0 25 50 50 100 25"></polygon>
                    </g>
                    <g id="Group" transform="translate(396.000000, 316.000000)">
                        <polygon id="Path-4" fill="#2DCCCD" points="0 25 50 50 50 100 0 75"></polygon>
                        <polygon id="Path-5" fill="#02A5A5" points="50 100 100 75 100 25 50 50"></polygon>
                        <polygon id="Path-6" fill="#EAF9FA" points="50 0 0 25 50 50 100 25"></polygon>
                    </g>
                    <g id="Group-3" transform="translate(446.000000, 241.000000)">
                        <g id="Group">
                            <polygon id="Path-4" fill="#5AC4C4" points="0 25 50 50 50 100 0 75"></polygon>
                            <polygon id="Path-5" fill="#02A5A5" points="50 100 100 75 100 25 50 50"></polygon>
                            <polygon id="Path-6" fill="#2DCCCD" points="50 0 0 25 50 50 100 25"></polygon>
                        </g>
                        <g id="Group-2" transform="translate(33.000000, 5.000000)">
                            <path d="M0.0289235773,20 L0,20 L0,8.88888889 L34,8.88888889 L34,20 L33.9710764,20 C33.9902699,20.1838239 34,20.3690584 34,20.5555556 C34,25.7715782 26.3888407,30 17,30 C7.61115925,30 0,25.7715782 0,20.5555556 C0,20.3690584 0.00973007247,20.1838239 0.0289235773,20 Z" id="Combined-Shape" fill="#02A5A5"></path>
                            <ellipse id="Oval" fill="#5AC4C4" cx="17" cy="9.44444444" rx="17" ry="9.44444444"></ellipse>
                        </g>
                    </g>
                    <g id="Group-3" transform="translate(596.000000, 316.000000)">
                        <g id="Group">
                            <polygon id="Path-4" fill="#F7893B" points="0 25 50 50 50 100 0 75"></polygon>
                            <polygon id="Path-5" fill="#D8732C" points="50 100 100 75 100 25 50 50"></polygon>
                            <polygon id="Path-6" fill="#FAB27F" points="50 0 0 25 50 50 100 25"></polygon>
                        </g>
                        <g id="Group-2" transform="translate(33.000000, 5.000000)">
                            <path d="M0.0289235773,20 L0,20 L0,8.88888889 L34,8.88888889 L34,20 L33.9710764,20 C33.9902699,20.1838239 34,20.3690584 34,20.5555556 C34,25.7715782 26.3888407,30 17,30 C7.61115925,30 0,25.7715782 0,20.5555556 C0,20.3690584 0.00973007247,20.1838239 0.0289235773,20 Z" id="Combined-Shape" fill="#D8732C"></path>
                            <ellipse id="Oval" fill="#F7893B" cx="17" cy="9.44444444" rx="17" ry="9.44444444"></ellipse>
                        </g>
                    </g>
                    <g id="Group" transform="translate(446.000000, 341.000000)">
                        <polygon id="Path-4" fill="#F7893B" points="0 25 50 50 50 100 0 75"></polygon>
                        <polygon id="Path-5" fill="#02A5A5" points="50 100 100 75 100 25 50 50"></polygon>
                        <polygon id="Path-6" fill="#EAF9FA" points="50 0 0 25 50 50 100 25"></polygon>
                    </g>
                    <g id="Group-3" transform="translate(546.000000, 341.000000)">
                        <g id="Group">
                            <polygon id="Path-4" fill="#E74778" points="0 25 50 50 50 100 0 75"></polygon>
                            <polygon id="Path-5" fill="#DA3851" points="50 100 100 75 100 25 50 50"></polygon>
                            <polygon id="Path-6" fill="#FB608C" points="50 0 0 25 50 50 100 25"></polygon>
                        </g>
                        <g id="Group-2" transform="translate(33.000000, 5.000000)">
                            <path d="M0.0289235773,20 L0,20 L0,8.88888889 L34,8.88888889 L34,20 L33.9710764,20 C33.9902699,20.1838239 34,20.3690584 34,20.5555556 C34,25.7715782 26.3888407,30 17,30 C7.61115925,30 0,25.7715782 0,20.5555556 C0,20.3690584 0.00973007247,20.1838239 0.0289235773,20 Z" id="Combined-Shape" fill="#DA3851"></path>
                            <ellipse id="Oval" fill="#FF8BBB" cx="17" cy="9.44444444" rx="17" ry="9.44444444"></ellipse>
                        </g>
                    </g>
                    <g id="Group-3" transform="translate(396.000000, 266.000000)">
                        <g id="Group">
                            <polygon id="Path-4" fill="#136EB1" points="0 25 50 50 50 100 0 75"></polygon>
                            <polygon id="Path-5" fill="#0962A7" points="50 100 100 75 100 25 50 50"></polygon>
                            <polygon id="Path-6" fill="#1F85C1" points="50 0 0 25 50 50 100 25"></polygon>
                        </g>
                        <g id="Group-2" transform="translate(33.000000, 5.000000)">
                            <path d="M0.0289235773,20 L0,20 L0,8.88888889 L34,8.88888889 L34,20 L33.9710764,20 C33.9902699,20.1838239 34,20.3690584 34,20.5555556 C34,25.7715782 26.3888407,30 17,30 C7.61115925,30 0,25.7715782 0,20.5555556 C0,20.3690584 0.00973007247,20.1838239 0.0289235773,20 Z" id="Combined-Shape" fill="#136EB1"></path>
                            <ellipse id="Oval" fill="#309ED9" cx="17" cy="9.44444444" rx="17" ry="9.44444444"></ellipse>
                        </g>
                    </g>
                    <g id="Group-6" transform="translate(496.000000, 241.000000)">
                        <polygon id="Path-4" fill="#136EB1" points="50 25 100 50 100 100 50 75"></polygon>
                        <polygon id="Path-5" fill="#0962A7" points="100 100 150 75 150 25 100 50"></polygon>
                        <polygon id="Path-6" fill="#1F85C1" points="100 -5.68434189e-14 50 25 100 50 150 25"></polygon>
                        <path d="M83.0289236,25 L83,25 L83,13.8888889 L117,13.8888889 L117,25 L116.971076,25 C116.99027,25.1838239 117,25.3690584 117,25.5555556 C117,30.7715782 109.388841,35 100,35 C90.6111593,35 83,30.7715782 83,25.5555556 C83,25.3690584 83.0097301,25.1838239 83.0289236,25 Z" id="Combined-Shape" fill="#136EB1"></path>
                        <ellipse id="Oval" fill="#309ED9" cx="100" cy="14.4444444" rx="17" ry="9.44444444"></ellipse>
                        <polygon id="Path-4" fill="#136EB1" points="0 50 50 75 50 125 0 100"></polygon>
                        <polygon id="Path-5" fill="#0962A7" points="50 125 100 100 100 50 50 75"></polygon>
                    </g>
                    <g id="Group-6" transform="translate(814.000000, 71.000000)">
                        <polygon id="Path-4" fill="#136EB1" points="0 25 50 50 50 100 0 75"></polygon>
                        <polygon id="Path-5" fill="#0962A7" points="50 100 100 75 100 25 50 50"></polygon>
                        <polygon id="Path-6" fill="#1F85C1" points="50 -5.68434189e-14 0 25 50 50 100 25"></polygon>
                        <path d="M33.0289236,25 L33,25 L33,13.8888889 L67,13.8888889 L67,25 L66.9710764,25 C66.9902699,25.1838239 67,25.3690584 67,25.5555556 C67,30.7715782 59.3888407,35 50,35 C40.6111593,35 33,30.7715782 33,25.5555556 C33,25.3690584 33.0097301,25.1838239 33.0289236,25 Z" id="Combined-Shape" fill="#136EB1"></path>
                        <ellipse id="Oval" fill="#309ED9" cx="50" cy="14.4444444" rx="17" ry="9.44444444"></ellipse>
                    </g>
                    <g id="Group-3" transform="translate(496.000000, 266.000000)">
                        <g id="Group">
                            <polygon id="Path-4" fill="#D8BE75" points="0 25 50 50 50 100 0 75"></polygon>
                            <polygon id="Path-5" fill="#B79E5E" points="50 100 100 75 100 25 50 50"></polygon>
                            <polygon id="Path-6" fill="#E6D5A5" points="50 0 0 25 50 50 100 25"></polygon>
                        </g>
                        <g id="Group-2" transform="translate(33.000000, 5.000000)">
                            <path d="M0.0289235773,20 L0,20 L0,8.88888889 L34,8.88888889 L34,20 L33.9710764,20 C33.9902699,20.1838239 34,20.3690584 34,20.5555556 C34,25.7715782 26.3888407,30 17,30 C7.61115925,30 0,25.7715782 0,20.5555556 C0,20.3690584 0.00973007247,20.1838239 0.0289235773,20 Z" id="Combined-Shape" fill="#B79E5E"></path>
                            <ellipse id="Oval" fill="#D8BE75" cx="17" cy="9.44444444" rx="17" ry="9.44444444"></ellipse>
                        </g>
                    </g>
                    <g id="Group-3" transform="translate(546.000000, 291.000000)">
                        <g id="Group">
                            <polygon id="Path-4" fill="#136EB1" points="0 25 50 50 50 100 0 75"></polygon>
                            <polygon id="Path-5" fill="#004481" points="50 100 100 75 100 25 50 50"></polygon>
                            <polygon id="Path-6" fill="#1464A5" points="50 0 0 25 50 50 100 25"></polygon>
                        </g>
                        <g id="Group-2" transform="translate(33.000000, 5.000000)">
                            <path d="M0.0289235773,20 L0,20 L0,8.88888889 L34,8.88888889 L34,20 L33.9710764,20 C33.9902699,20.1838239 34,20.3690584 34,20.5555556 C34,25.7715782 26.3888407,30 17,30 C7.61115925,30 0,25.7715782 0,20.5555556 C0,20.3690584 0.00973007247,20.1838239 0.0289235773,20 Z" id="Combined-Shape" fill="#004481" opacity="0.642578125"></path>
                            <ellipse id="Oval" fill="#045BAA" cx="17" cy="9.44444444" rx="17" ry="9.44444444"></ellipse>
                        </g>
                    </g>
                    <g id="Group-3" transform="translate(496.000000, 466.000000)">
                        <g id="Group">
                            <polygon id="Path-4" fill="#136EB1" points="0 25 50 50 50 100 0 75"></polygon>
                            <polygon id="Path-5" fill="#1464A5" points="50 100 100 75 100 25 50 50"></polygon>
                            <polygon id="Path-6" fill="#1F85C1" points="50 0 0 25 50 50 100 25"></polygon>
                        </g>
                        <g id="Group-2" transform="translate(33.000000, 5.000000)">
                            <path d="M0.0289235773,20 L0,20 L0,8.88888889 L34,8.88888889 L34,20 L33.9710764,20 C33.9902699,20.1838239 34,20.3690584 34,20.5555556 C34,25.7715782 26.3888407,30 17,30 C7.61115925,30 0,25.7715782 0,20.5555556 C0,20.3690584 0.00973007247,20.1838239 0.0289235773,20 Z" id="Combined-Shape" fill="#136EB1"></path>
                            <ellipse id="Oval" fill="#309ED9" cx="17" cy="9.44444444" rx="17" ry="9.44444444"></ellipse>
                        </g>
                    </g>
                    <g id="Group-3" transform="translate(446.000000, 291.000000)">
                        <g id="Group">
                            <polygon id="Path-4" fill="#E74778" points="0 25 50 50 50 100 0 75"></polygon>
                            <polygon id="Path-5" fill="#DA3851" points="50 100 100 75 100 25 50 50"></polygon>
                            <polygon id="Path-6" fill="#FB608C" points="50 0 0 25 50 50 100 25"></polygon>
                        </g>
                        <g id="Group-2" transform="translate(33.000000, 5.000000)">
                            <path d="M0.0289235773,20 L0,20 L0,8.88888889 L34,8.88888889 L34,20 L33.9710764,20 C33.9902699,20.1838239 34,20.3690584 34,20.5555556 C34,25.7715782 26.3888407,30 17,30 C7.61115925,30 0,25.7715782 0,20.5555556 C0,20.3690584 0.00973007247,20.1838239 0.0289235773,20 Z" id="Combined-Shape" fill="#DA3851"></path>
                            <ellipse id="Oval" fill="#FF8BBB" cx="17" cy="9.44444444" rx="17" ry="9.44444444"></ellipse>
                        </g>
                    </g>
                    <g id="Group-3" transform="translate(754.000000, 479.000000)">
                        <g id="Group">
                            <polygon id="Path-4" fill="#48AE64" points="0 25 50 50 50 100 0 75"></polygon>
                            <polygon id="Path-5" fill="#388D4F" points="50 100 100 75 100 25 50 50"></polygon>
                            <polygon id="Path-6" fill="#88CA9A" points="50 0 0 25 50 50 100 25"></polygon>
                        </g>
                        <g id="Group-2" transform="translate(33.000000, 5.000000)">
                            <path d="M0.0289235773,20 L0,20 L0,8.88888889 L34,8.88888889 L34,20 L33.9710764,20 C33.9902699,20.1838239 34,20.3690584 34,20.5555556 C34,25.7715782 26.3888407,30 17,30 C7.61115925,30 0,25.7715782 0,20.5555556 C0,20.3690584 0.00973007247,20.1838239 0.0289235773,20 Z" id="Combined-Shape" fill="#388D4F"></path>
                            <ellipse id="Oval" fill="#48AE64" cx="17" cy="9.44444444" rx="17" ry="9.44444444"></ellipse>
                        </g>
                    </g>
                    <g id="Group-3" transform="translate(638.000000, 538.000000)">
                        <g id="Group">
                            <polygon id="Path-4" fill="#E74778" points="0 25 50 50 50 100 0 75"></polygon>
                            <polygon id="Path-5" fill="#DA3851" points="50 100 100 75 100 25 50 50"></polygon>
                            <polygon id="Path-6" fill="#FB608C" points="50 0 0 25 50 50 100 25"></polygon>
                        </g>
                        <g id="Group-2" transform="translate(33.000000, 5.000000)">
                            <path d="M0.0289235773,20 L0,20 L0,8.88888889 L34,8.88888889 L34,20 L33.9710764,20 C33.9902699,20.1838239 34,20.3690584 34,20.5555556 C34,25.7715782 26.3888407,30 17,30 C7.61115925,30 0,25.7715782 0,20.5555556 C0,20.3690584 0.00973007247,20.1838239 0.0289235773,20 Z" id="Combined-Shape" fill="#DA3851"></path>
                            <ellipse id="Oval" fill="#FF8BBB" cx="17" cy="9.44444444" rx="17" ry="9.44444444"></ellipse>
                        </g>
                    </g>
                    <g id="Group-3" transform="translate(150.000000, 25.000000)">
                        <g id="Group">
                            <polygon id="Path-4" fill="#136EB1" points="0 25 50 50 50 100 0 75"></polygon>
                            <polygon id="Path-5" fill="#0962A7" points="50 100 100 75 100 25 50 50"></polygon>
                            <polygon id="Path-6" fill="#1F85C1" points="50 0 0 25 50 50 100 25"></polygon>
                        </g>
                        <g id="Group-2" transform="translate(33.000000, 5.000000)">
                            <path d="M0.0289235773,20 L0,20 L0,8.88888889 L34,8.88888889 L34,20 L33.9710764,20 C33.9902699,20.1838239 34,20.3690584 34,20.5555556 C34,25.7715782 26.3888407,30 17,30 C7.61115925,30 0,25.7715782 0,20.5555556 C0,20.3690584 0.00973007247,20.1838239 0.0289235773,20 Z" id="Combined-Shape" fill="#136EB1"></path>
                            <ellipse id="Oval" fill="#309ED9" cx="17" cy="9.44444444" rx="17" ry="9.44444444"></ellipse>
                        </g>
                    </g>
                    <g id="Group-6" transform="translate(764.000000, 96.000000)">
                        <polygon id="Path-4" fill="#136EB1" points="0 25 50 50 50 100 0 75"></polygon>
                        <polygon id="Path-5" fill="#0962A7" points="50 100 100 75 100 25 50 50"></polygon>
                        <polygon id="Path-6" fill="#1F85C1" points="50 -5.68434189e-14 0 25 50 50 100 25"></polygon>
                        <path d="M33.0289236,25 L33,25 L33,13.8888889 L67,13.8888889 L67,25 L66.9710764,25 C66.9902699,25.1838239 67,25.3690584 67,25.5555556 C67,30.7715782 59.3888407,35 50,35 C40.6111593,35 33,30.7715782 33,25.5555556 C33,25.3690584 33.0097301,25.1838239 33.0289236,25 Z" id="Combined-Shape" fill="#136EB1"></path>
                        <ellipse id="Oval" fill="#309ED9" cx="50" cy="14.4444444" rx="17" ry="9.44444444"></ellipse>
                    </g>
                    <g id="Group-3" transform="translate(814.000000, 121.000000)">
                        <g id="Group">
                            <polygon id="Path-4" fill="#8F7AE5" points="0 25 50 50 50 100 0 75"></polygon>
                            <polygon id="Path-5" fill="#7C6AC7" points="50 100 100 75 100 25 50 50"></polygon>
                            <polygon id="Path-6" fill="#B6A8EE" points="50 0 0 25 50 50 100 25"></polygon>
                        </g>
                        <g id="Group-2" transform="translate(33.000000, 5.000000)">
                            <path d="M0.0289235773,20 L0,20 L0,8.88888889 L34,8.88888889 L34,20 L33.9710764,20 C33.9902699,20.1838239 34,20.3690584 34,20.5555556 C34,25.7715782 26.3888407,30 17,30 C7.61115925,30 0,25.7715782 0,20.5555556 C0,20.3690584 0.00973007247,20.1838239 0.0289235773,20 Z" id="Combined-Shape" fill="#7C6AC7"></path>
                            <ellipse id="Oval" fill="#8F7AE5" cx="17" cy="9.44444444" rx="17" ry="9.44444444"></ellipse>
                        </g>
                    </g>
                    <g id="Group-6" transform="translate(714.000000, 121.000000)">
                        <polygon id="Path-4" fill="#136EB1" points="0 25 50 50 50 100 0 75"></polygon>
                        <polygon id="Path-5" fill="#0962A7" points="50 100 100 75 100 25 50 50"></polygon>
                        <polygon id="Path-6" fill="#1F85C1" points="50 -5.68434189e-14 0 25 50 50 100 25"></polygon>
                        <path d="M33.0289236,25 L33,25 L33,13.8888889 L67,13.8888889 L67,25 L66.9710764,25 C66.9902699,25.1838239 67,25.3690584 67,25.5555556 C67,30.7715782 59.3888407,35 50,35 C40.6111593,35 33,30.7715782 33,25.5555556 C33,25.3690584 33.0097301,25.1838239 33.0289236,25 Z" id="Combined-Shape" fill="#136EB1"></path>
                        <ellipse id="Oval" fill="#309ED9" cx="50" cy="14.4444444" rx="17" ry="9.44444444"></ellipse>
                    </g>
                    <g id="Group-4" transform="translate(224.000000, 88.000000)">
                        <path d="M72,36 L0,0 L72,36 Z" id="Path-4" stroke="#2DCCCD" stroke-width="2" stroke-linecap="round" stroke-linejoin="round"></path>
                        <path d="M48.4654518,46.2089322 C48.258963,46.7074591 48.3732025,47.2812887 48.7548762,47.6627227 L53.4230107,52.3308572 C53.9438409,52.8515302 54.7881068,52.8515302 55.308937,52.3308572 L59.9770715,47.6627227 C60.3587452,47.2812887 60.4729847,46.7074591 60.2664959,46.2089322 C60.0484066,45.720224 59.5690835,45.4001565 59.0341083,45.3860068 L56.3666029,45.3860068 L56.3666029,36.0497378 C56.3666029,34.9448209 55.4708908,34.0491087 54.3659739,34.0491087 C53.2610569,34.0491087 52.3653448,34.9448209 52.3653448,36.0497378 L52.3653448,45.3860068 L49.6978394,45.3860068 C49.1627621,45.3998351 48.6832833,45.7200065 48.4654518,46.2089322 Z" id="Shape" fill="#5AC4C4" fill-rule="nonzero" transform="translate(54.365974, 43.385235) rotate(297.500000) translate(-54.365974, -43.385235) "></path>
                    </g>
                    <g id="Group-4" transform="translate(684.500000, 220.000000) scale(-1, 1) translate(-684.500000, -220.000000) translate(630.000000, 184.000000)">
                        <path d="M109,55 L0,0 L109,55 Z" id="Path-4" stroke="#2DCCCD" stroke-width="2" stroke-linecap="round" stroke-linejoin="round"></path>
                        <path d="M86.3771792,64.581937 C86.1707619,65.0892143 86.2849618,65.6731161 86.6665032,66.0612453 L91.3330198,70.8113177 C91.8536696,71.3411299 92.6976428,71.3411299 93.2182926,70.8113177 L97.8848092,66.0612453 C98.2663506,65.6731161 98.3805505,65.0892143 98.1741332,64.581937 C97.9561196,64.0846507 97.4769626,63.7589652 96.9421728,63.7445671 L94.2755919,63.7445671 L94.2755919,54.2444222 C94.2755919,53.1201111 93.3801902,52.2086768 92.2756562,52.2086768 C91.1711222,52.2086768 90.2757205,53.1201111 90.2757205,54.2444222 L90.2757205,63.7445671 L87.6091396,63.7445671 C87.0742478,63.758638 86.5949351,64.0844294 86.3771792,64.581937 Z" id="Shape" fill="#5AC4C4" fill-rule="nonzero" transform="translate(92.275656, 61.708677) rotate(297.500000) translate(-92.275656, -61.708677) "></path>
                    </g>
                    <g id="Group-4" transform="translate(551.500000, 664.000000) scale(-1, 1) translate(-551.500000, -664.000000) translate(437.000000, 606.000000)"></g>
                    <path d="M1192,337 L888,184 L1192,337 Z" id="Path-4" stroke="#2DCCCD" stroke-width="2" stroke-linecap="round" stroke-linejoin="round"></path>
                    <path d="M887.298618,507.581937 C887.0922,508.089214 887.2064,508.673116 887.587942,509.061245 L892.254458,513.811318 C892.775108,514.34113 893.619081,514.34113 894.139731,513.811318 L898.806248,509.061245 C899.187789,508.673116 899.301989,508.089214 899.095572,507.581937 C898.877558,507.084651 898.398401,506.758965 897.863611,506.744567 L895.19703,506.744567 L895.19703,497.244422 C895.19703,496.120111 894.301629,495.208677 893.197095,495.208677 C892.092561,495.208677 891.197159,496.120111 891.197159,497.244422 L891.197159,506.744567 L888.530578,506.744567 C887.995686,506.758638 887.516373,507.084429 887.298618,507.581937 Z" id="Shape" fill="#5AC4C4" fill-rule="nonzero" transform="translate(893.197095, 504.708677) scale(1, -1) rotate(297.500000) translate(-893.197095, -504.708677) "></path>
                    <g id="Group-3" transform="translate(764.000000, 46.000000)">
                        <g id="Group">
                            <polygon id="Path-4" fill="#F7893B" points="0 25 50 50 50 100 0 75"></polygon>
                            <polygon id="Path-5" fill="#D8732C" points="50 100 100 75 100 25 50 50"></polygon>
                            <polygon id="Path-6" fill="#FAB27F" points="50 0 0 25 50 50 100 25"></polygon>
                        </g>
                        <g id="Group-2" transform="translate(33.000000, 5.000000)">
                            <path d="M0.0289235773,20 L0,20 L0,8.88888889 L34,8.88888889 L34,20 L33.9710764,20 C33.9902699,20.1838239 34,20.3690584 34,20.5555556 C34,25.7715782 26.3888407,30 17,30 C7.61115925,30 0,25.7715782 0,20.5555556 C0,20.3690584 0.00973007247,20.1838239 0.0289235773,20 Z" id="Combined-Shape" fill="#D8732C"></path>
                            <ellipse id="Oval" fill="#F7893B" cx="17" cy="9.44444444" rx="17" ry="9.44444444"></ellipse>
                        </g>
                    </g>
                    <g id="Group-4" transform="translate(267.000000, 535.000000)">
                        <path d="M63,32 L0,0 L63,32 Z" id="Path-4" stroke="#2DCCCD" stroke-width="2" stroke-linecap="round" stroke-linejoin="round"></path>
                        <path d="M45.1521756,41.4585505 C44.9456868,41.9570775 45.0599262,42.530907 45.4416,42.912341 L50.1097344,47.5804755 C50.6305647,48.1011485 51.4748305,48.1011485 51.9956608,47.5804755 L56.6637953,42.912341 C57.045469,42.530907 57.1597085,41.9570775 56.9532196,41.4585505 C56.7351304,40.9698423 56.2558073,40.6497749 55.7208321,40.6356251 L53.0533267,40.6356251 L53.0533267,31.2993561 C53.0533267,30.1944392 52.1576145,29.2987271 51.0526976,29.2987271 C49.9477807,29.2987271 49.0520685,30.1944392 49.0520685,31.2993561 L49.0520685,40.6356251 L46.3845631,40.6356251 C45.8494859,40.6494534 45.370007,40.9696249 45.1521756,41.4585505 Z" id="Shape" fill="#5AC4C4" fill-rule="nonzero" transform="translate(51.052698, 38.634854) rotate(297.500000) translate(-51.052698, -38.634854) "></path>
                    </g>
                    <g id="Group-4" transform="translate(562.000000, 529.000000)">
                        <path d="M72,32 L9,0 L72,32 Z" id="Path-4" stroke="#2DCCCD" stroke-width="2" stroke-linecap="round" stroke-linejoin="round"></path>
                        <path d="M5.15217561,18.4585505 C4.94568678,18.9570775 5.05992624,19.530907 5.44159995,19.912341 L10.1097344,24.5804755 C10.6305647,25.1011485 11.4748305,25.1011485 11.9956608,24.5804755 L16.6637953,19.912341 C17.045469,19.530907 17.1597085,18.9570775 16.9532196,18.4585505 C16.7351304,17.9698423 16.2558073,17.6497749 15.7208321,17.6356251 L13.0533267,17.6356251 L13.0533267,8.29935612 C13.0533267,7.1944392 12.1576145,6.29872705 11.0526976,6.29872705 C9.94778069,6.29872705 9.05206855,7.1944392 9.05206855,8.29935612 L9.05206855,17.6356251 L6.38456312,17.6356251 C5.84948589,17.6494534 5.37000704,17.9696249 5.15217561,18.4585505 Z" id="Shape" fill="#5AC4C4" fill-rule="nonzero" transform="translate(11.052698, 15.634854) scale(-1, -1) rotate(297.500000) translate(-11.052698, -15.634854) "></path>
                    </g>
                    <g id="Group-3" transform="translate(144.000000, 647.000000)">
                        <g id="Group">
                            <polygon id="Path-4" fill="#136EB1" points="0 25 50 50 50 100 0 75"></polygon>
                            <polygon id="Path-5" fill="#0962A7" points="50 100 100 75 100 25 50 50"></polygon>
                            <polygon id="Path-6" fill="#1F85C1" points="50 0 0 25 50 50 100 25"></polygon>
                        </g>
                        <g id="Group-2" transform="translate(33.000000, 5.000000)">
                            <path d="M0.0289235773,20 L0,20 L0,8.88888889 L34,8.88888889 L34,20 L33.9710764,20 C33.9902699,20.1838239 34,20.3690584 34,20.5555556 C34,25.7715782 26.3888407,30 17,30 C7.61115925,30 0,25.7715782 0,20.5555556 C0,20.3690584 0.00973007247,20.1838239 0.0289235773,20 Z" id="Combined-Shape" fill="#136EB1"></path>
                            <ellipse id="Oval" fill="#309ED9" cx="17" cy="9.44444444" rx="17" ry="9.44444444"></ellipse>
                        </g>
                    </g>
                    <g id="Group-3" transform="translate(0.000000, 576.000000)">
                        <g id="Group">
                            <polygon id="Path-4" fill="#5AC4C4" points="0 25 50 50 50 100 0 75"></polygon>
                            <polygon id="Path-5" fill="#02A5A5" points="50 100 100 75 100 25 50 50"></polygon>
                            <polygon id="Path-6" fill="#2DCCCD" points="50 0 0 25 50 50 100 25"></polygon>
                        </g>
                        <g id="Group-2" transform="translate(33.000000, 5.000000)">
                            <path d="M0.0289235773,20 L0,20 L0,8.88888889 L34,8.88888889 L34,20 L33.9710764,20 C33.9902699,20.1838239 34,20.3690584 34,20.5555556 C34,25.7715782 26.3888407,30 17,30 C7.61115925,30 0,25.7715782 0,20.5555556 C0,20.3690584 0.00973007247,20.1838239 0.0289235773,20 Z" id="Combined-Shape" fill="#02A5A5"></path>
                            <ellipse id="Oval" fill="#5AC4C4" cx="17" cy="9.44444444" rx="17" ry="9.44444444"></ellipse>
                        </g>
                    </g>
                    <g id="Group-4" transform="translate(75.000000, 639.000000)">
                        <path d="M63,32 L0,0 L63,32 Z" id="Path-4" stroke="#2DCCCD" stroke-width="2" stroke-linecap="round" stroke-linejoin="round"></path>
                        <path d="M45.1521756,41.4585505 C44.9456868,41.9570775 45.0599262,42.530907 45.4416,42.912341 L50.1097344,47.5804755 C50.6305647,48.1011485 51.4748305,48.1011485 51.9956608,47.5804755 L56.6637953,42.912341 C57.045469,42.530907 57.1597085,41.9570775 56.9532196,41.4585505 C56.7351304,40.9698423 56.2558073,40.6497749 55.7208321,40.6356251 L53.0533267,40.6356251 L53.0533267,31.2993561 C53.0533267,30.1944392 52.1576145,29.2987271 51.0526976,29.2987271 C49.9477807,29.2987271 49.0520685,30.1944392 49.0520685,31.2993561 L49.0520685,40.6356251 L46.3845631,40.6356251 C45.8494859,40.6494534 45.370007,40.9696249 45.1521756,41.4585505 Z" id="Shape" fill="#5AC4C4" fill-rule="nonzero" transform="translate(51.052698, 38.634854) rotate(297.500000) translate(-51.052698, -38.634854) "></path>
                    </g>
                    <g id="Group-3" transform="translate(496.000000, 416.000000)">
                        <g id="Group">
                            <polygon id="Path-4" fill="#F78BE8" points="0 25 50 50 50 100 0 75"></polygon>
                            <polygon id="Path-5" fill="#C569B9" points="50 100 100 75 100 25 50 50"></polygon>
                            <polygon id="Path-6" fill="#FAB3F0" points="50 0 0 25 50 50 100 25"></polygon>
                        </g>
                        <g id="Group-2" transform="translate(33.000000, 5.000000)">
                            <path d="M0.0289235773,20 L0,20 L0,8.88888889 L34,8.88888889 L34,20 L33.9710764,20 C33.9902699,20.1838239 34,20.3690584 34,20.5555556 C34,25.7715782 26.3888407,30 17,30 C7.61115925,30 0,25.7715782 0,20.5555556 C0,20.3690584 0.00973007247,20.1838239 0.0289235773,20 Z" id="Combined-Shape" fill="#C569B9"></path>
                            <ellipse id="Oval" fill="#F78BE8" cx="17" cy="9.44444444" rx="17" ry="9.44444444"></ellipse>
                        </g>
                    </g>
                    <g id="Group-3" transform="translate(496.000000, 366.000000)">
                        <g id="Group">
                            <polygon id="Path-4" fill="#D8BE75" points="0 25 50 50 50 100 0 75"></polygon>
                            <polygon id="Path-5" fill="#B79E5E" points="50 100 100 75 100 25 50 50"></polygon>
                            <polygon id="Path-6" fill="#E6D5A5" points="50 0 0 25 50 50 100 25"></polygon>
                        </g>
                        <g id="Group-2" transform="translate(33.000000, 5.000000)">
                            <path d="M0.0289235773,20 L0,20 L0,8.88888889 L34,8.88888889 L34,20 L33.9710764,20 C33.9902699,20.1838239 34,20.3690584 34,20.5555556 C34,25.7715782 26.3888407,30 17,30 C7.61115925,30 0,25.7715782 0,20.5555556 C0,20.3690584 0.00973007247,20.1838239 0.0289235773,20 Z" id="Combined-Shape" fill="#B79E5E"></path>
                            <ellipse id="Oval" fill="#D8BE75" cx="17" cy="9.44444444" rx="17" ry="9.44444444"></ellipse>
                        </g>
                    </g>
                    <g id="Group-3" transform="translate(292.000000, 112.000000)">
                        <g id="Group">
                            <polygon id="Path-4" fill="#F7893B" points="0 25 50 50 50 100 0 75"></polygon>
                            <polygon id="Path-5" fill="#D8732C" points="50 100 100 75 100 25 50 50"></polygon>
                            <polygon id="Path-6" fill="#FAB27F" points="50 0 0 25 50 50 100 25"></polygon>
                        </g>
                        <g id="Group-2" transform="translate(33.000000, 5.000000)">
                            <path d="M0.0289235773,20 L0,20 L0,8.88888889 L34,8.88888889 L34,20 L33.9710764,20 C33.9902699,20.1838239 34,20.3690584 34,20.5555556 C34,25.7715782 26.3888407,30 17,30 C7.61115925,30 0,25.7715782 0,20.5555556 C0,20.3690584 0.00973007247,20.1838239 0.0289235773,20 Z" id="Combined-Shape" fill="#D8732C"></path>
                            <ellipse id="Oval" fill="#F7893B" cx="17" cy="9.44444444" rx="17" ry="9.44444444"></ellipse>
                        </g>
                    </g>
                    <g id="Group-3" transform="translate(342.000000, 137.000000)">
                        <g id="Group">
                            <polygon id="Path-4" fill="#F7893B" points="0 25 50 50 50 100 0 75"></polygon>
                            <polygon id="Path-5" fill="#D8732C" points="50 100 100 75 100 25 50 50"></polygon>
                            <polygon id="Path-6" fill="#FAB27F" points="50 0 0 25 50 50 100 25"></polygon>
                        </g>
                        <g id="Group-2" transform="translate(33.000000, 5.000000)">
                            <path d="M0.0289235773,20 L0,20 L0,8.88888889 L34,8.88888889 L34,20 L33.9710764,20 C33.9902699,20.1838239 34,20.3690584 34,20.5555556 C34,25.7715782 26.3888407,30 17,30 C7.61115925,30 0,25.7715782 0,20.5555556 C0,20.3690584 0.00973007247,20.1838239 0.0289235773,20 Z" id="Combined-Shape" fill="#D8732C"></path>
                            <ellipse id="Oval" fill="#F7893B" cx="17" cy="9.44444444" rx="17" ry="9.44444444"></ellipse>
                        </g>
                    </g>
                    <g id="Group-4" transform="translate(219.000000, 638.000000)" stroke="#2DCCCD" stroke-linecap="round" stroke-linejoin="round" stroke-width="2">
                        <polyline id="Path-4" points="255 0 63 104 0 72"></polyline>
                    </g>
                    <g id="Group-4" transform="translate(411.000000, 606.000000)" stroke="#2DCCCD" stroke-linecap="round" stroke-linejoin="round" stroke-width="2">
                        <path d="M63,32 L0,0 L63,32 Z" id="Path-4"></path>
                    </g>
                    <g id="Group-4" transform="translate(377.000000, 691.000000)" stroke="#2DCCCD" stroke-linecap="round" stroke-linejoin="round" stroke-width="2">
                        <path d="M54,28 L0,0 L54,28 Z" id="Path-4"></path>
                    </g>
                    <path d="M628.152176,634.458551 C627.945687,634.957077 628.059926,635.530907 628.4416,635.912341 L633.109734,640.580475 C633.630565,641.101148 634.474831,641.101148 634.995661,640.580475 L639.663795,635.912341 C640.045469,635.530907 640.159708,634.957077 639.95322,634.458551 C639.73513,633.969842 639.255807,633.649775 638.720832,633.635625 L636.053327,633.635625 L636.053327,624.299356 C636.053327,623.194439 635.157615,622.298727 634.052698,622.298727 C632.947781,622.298727 632.052069,623.194439 632.052069,624.299356 L632.052069,633.635625 L629.384563,633.635625 C628.849486,633.649453 628.370007,633.969625 628.152176,634.458551 Z" id="Shape" fill="#5AC4C4" fill-rule="nonzero" transform="translate(634.052698, 631.634854) scale(1, -1) rotate(297.500000) translate(-634.052698, -631.634854) "></path>
                    <path d="M663,719 L431,601 L663,719 Z" id="Path-4" stroke="#2DCCCD" stroke-width="2" stroke-linecap="round" stroke-linejoin="round" transform="translate(547.000000, 660.000000) scale(-1, 1) translate(-547.000000, -660.000000) "></path>
                </g>
                <g id="Group-3" transform="translate(1116.000000, 249.000000)">
                    <g id="Group">
                        <polygon id="Path-4" fill="#136EB1" points="0 25 50 50 50 100 0 75"></polygon>
                        <polygon id="Path-5" fill="#004481" points="50 100 100 75 100 25 50 50"></polygon>
                        <polygon id="Path-6" fill="#1464A5" points="50 0 0 25 50 50 100 25"></polygon>
                    </g>
                    <g id="Group-2" transform="translate(33.000000, 5.000000)">
                        <path d="M0.0289235773,20 L0,20 L0,8.88888889 L34,8.88888889 L34,20 L33.9710764,20 C33.9902699,20.1838239 34,20.3690584 34,20.5555556 C34,25.7715782 26.3888407,30 17,30 C7.61115925,30 0,25.7715782 0,20.5555556 C0,20.3690584 0.00973007247,20.1838239 0.0289235773,20 Z" id="Combined-Shape" fill="#004481" opacity="0.642578125"></path>
                        <ellipse id="Oval" fill="#045BAA" cx="17" cy="9.44444444" rx="17" ry="9.44444444"></ellipse>
                    </g>
                </g>
                <g id="Group-3" transform="translate(1166.000000, 274.000000)">
                    <g id="Group">
                        <polygon id="Path-4" fill="#D8BE75" points="0 25 50 50 50 100 0 75"></polygon>
                        <polygon id="Path-5" fill="#B79E5E" points="50 100 100 75 100 25 50 50"></polygon>
                        <polygon id="Path-6" fill="#E6D5A5" points="50 0 0 25 50 50 100 25"></polygon>
                    </g>
                    <g id="Group-2" transform="translate(33.000000, 5.000000)">
                        <path d="M0.0289235773,20 L0,20 L0,8.88888889 L34,8.88888889 L34,20 L33.9710764,20 C33.9902699,20.1838239 34,20.3690584 34,20.5555556 C34,25.7715782 26.3888407,30 17,30 C7.61115925,30 0,25.7715782 0,20.5555556 C0,20.3690584 0.00973007247,20.1838239 0.0289235773,20 Z" id="Combined-Shape" fill="#B79E5E"></path>
                        <ellipse id="Oval" fill="#D8BE75" cx="17" cy="9.44444444" rx="17" ry="9.44444444"></ellipse>
                    </g>
                </g>
                <path d="M1192,498 L873,337 L1192,498 Z" id="Path-4" stroke="#2DCCCD" stroke-width="2" stroke-linecap="round" stroke-linejoin="round" transform="translate(1032.500000, 417.500000) scale(-1, 1) translate(-1032.500000, -417.500000) "></path>
                <g id="Group-3" transform="translate(688.000000, 563.000000)">
                    <g id="Group">
                        <polygon id="Path-4" fill="#E74778" points="0 25 50 50 50 100 0 75"></polygon>
                        <polygon id="Path-5" fill="#DA3851" points="50 100 100 75 100 25 50 50"></polygon>
                        <polygon id="Path-6" fill="#FB608C" points="50 0 0 25 50 50 100 25"></polygon>
                    </g>
                    <g id="Group-2" transform="translate(33.000000, 5.000000)">
                        <path d="M0.0289235773,20 L0,20 L0,8.88888889 L34,8.88888889 L34,20 L33.9710764,20 C33.9902699,20.1838239 34,20.3690584 34,20.5555556 C34,25.7715782 26.3888407,30 17,30 C7.61115925,30 0,25.7715782 0,20.5555556 C0,20.3690584 0.00973007247,20.1838239 0.0289235773,20 Z" id="Combined-Shape" fill="#DA3851"></path>
                        <ellipse id="Oval" fill="#FF8BBB" cx="17" cy="9.44444444" rx="17" ry="9.44444444"></ellipse>
                    </g>
                </g>
                <g id="Group-3" transform="translate(1066.000000, 274.000000)">
                    <g id="Group">
                        <polygon id="Path-4" fill="#136EB1" points="0 25 50 50 50 100 0 75"></polygon>
                        <polygon id="Path-5" fill="#004481" points="50 100 100 75 100 25 50 50"></polygon>
                        <polygon id="Path-6" fill="#1464A5" points="50 0 0 25 50 50 100 25"></polygon>
                    </g>
                    <g id="Group-2" transform="translate(33.000000, 5.000000)">
                        <path d="M0.0289235773,20 L0,20 L0,8.88888889 L34,8.88888889 L34,20 L33.9710764,20 C33.9902699,20.1838239 34,20.3690584 34,20.5555556 C34,25.7715782 26.3888407,30 17,30 C7.61115925,30 0,25.7715782 0,20.5555556 C0,20.3690584 0.00973007247,20.1838239 0.0289235773,20 Z" id="Combined-Shape" fill="#004481" opacity="0.642578125"></path>
                        <ellipse id="Oval" fill="#045BAA" cx="17" cy="9.44444444" rx="17" ry="9.44444444"></ellipse>
                    </g>
                </g>
                <g id="Group-3" transform="translate(1216.000000, 299.000000)">
                    <g id="Group">
                        <polygon id="Path-4" fill="#5AC4C4" points="0 25 50 50 50 100 0 75"></polygon>
                        <polygon id="Path-5" fill="#02A5A5" points="50 100 100 75 100 25 50 50"></polygon>
                        <polygon id="Path-6" fill="#2DCCCD" points="50 0 0 25 50 50 100 25"></polygon>
                    </g>
                    <g id="Group-2" transform="translate(33.000000, 5.000000)">
                        <path d="M0.0289235773,20 L0,20 L0,8.88888889 L34,8.88888889 L34,20 L33.9710764,20 C33.9902699,20.1838239 34,20.3690584 34,20.5555556 C34,25.7715782 26.3888407,30 17,30 C7.61115925,30 0,25.7715782 0,20.5555556 C0,20.3690584 0.00973007247,20.1838239 0.0289235773,20 Z" id="Combined-Shape" fill="#02A5A5"></path>
                        <ellipse id="Oval" fill="#5AC4C4" cx="17" cy="9.44444444" rx="17" ry="9.44444444"></ellipse>
                    </g>
                </g>
                <g id="Group-3" transform="translate(1166.000000, 324.000000)">
                    <g id="Group">
                        <polygon id="Path-4" fill="#5AC4C4" points="0 25 50 50 50 100 0 75"></polygon>
                        <polygon id="Path-5" fill="#02A5A5" points="50 100 100 75 100 25 50 50"></polygon>
                        <polygon id="Path-6" fill="#2DCCCD" points="50 0 0 25 50 50 100 25"></polygon>
                    </g>
                    <g id="Group-2" transform="translate(33.000000, 5.000000)">
                        <path d="M0.0289235773,20 L0,20 L0,8.88888889 L34,8.88888889 L34,20 L33.9710764,20 C33.9902699,20.1838239 34,20.3690584 34,20.5555556 C34,25.7715782 26.3888407,30 17,30 C7.61115925,30 0,25.7715782 0,20.5555556 C0,20.3690584 0.00973007247,20.1838239 0.0289235773,20 Z" id="Combined-Shape" fill="#02A5A5"></path>
                        <ellipse id="Oval" fill="#5AC4C4" cx="17" cy="9.44444444" rx="17" ry="9.44444444"></ellipse>
                    </g>
                </g>
            </g>
            <rect id="Rectangle" x="0" y="242" width="617" height="401"></rect>
        </g>
    </g>
</svg>