<svg width="127" height="48" viewBox="0 0 127 48" fill="#eb118a" xmlns="http://www.w3.org/2000/svg">
<path d="M21.6222 21.0842C21.4314 27.3325 17.0293 31.6888 10.8968 31.6888C4.76437 31.6888 0 27.0097 0 20.621C0 14.2323 4.62166 9.53413 10.868 9.53413C15.996 9.53413 20.3186 12.7326 21.264 17.2046H19.6571C18.7268 13.5894 15.1329 11.0584 10.8968 11.0584C5.51086 11.0584 1.59178 15.0742 1.59178 20.6224C1.59178 26.1706 5.41755 30.1672 10.8968 30.1672C15.7312 30.1672 19.3415 27.0941 19.9467 22.5676H9.93492V21.0869H21.6222V21.0842Z" fill="#eb118a"/>
<path d="M38.5746 31.3837H26.3522V9.82155H38.233V11.3023H27.9152V19.4495H37.4261V20.9016H27.9152V29.888H38.5746V31.3837Z" fill="#eb118a"/>
<path d="M59.9855 9.82155V31.3837H58.6544L44.7991 12.5582V31.3837H43.2649V9.82155H44.6824L58.4527 28.5571V9.82155H59.9882H59.9855Z" fill="#eb118a"/>
<path d="M78.6354 31.3837H66.413V9.82155H78.2937V11.3023H67.976V19.4495H77.4869V20.9016H67.976V29.888H78.6354V31.3837Z" fill="#eb118a"/>
<path d="M106.337 9.82155H101.631V16.8573H106.337V9.82155Z" fill="#eb118a"/>
<path d="M101.631 21.5623V23.0539C101.631 25.7483 99.8624 27.4538 97.3663 27.4538C94.8702 27.4538 93.0959 25.7483 93.0959 23.0539V9.82155H88.3906V23.2691C88.3906 28.3242 92.2301 31.855 97.3663 31.855C102.503 31.855 106.337 28.3242 106.337 23.2691V21.5623H101.631Z" fill="#eb118a"/>
<path d="M111.079 9.82155H115.779V31.3837H111.079V9.82155Z" fill="#eb118a"/>
<path d="M121.104 10.5408C120.893 10.5449 120.69 10.4659 120.535 10.3215C120.256 10.064 120.214 9.63085 120.433 9.31754L122.382 6.57545L119.065 6.31936C118.704 6.29348 118.403 6.07008 118.283 5.73225C118.161 5.39579 118.249 5.03754 118.516 4.7937L123.59 0.212653C123.732 0.0805202 123.924 0.00287534 124.125 0.000150958C124.337 -0.00393562 124.54 0.0750715 124.696 0.222188C124.971 0.47828 125.015 0.910095 124.796 1.2234L122.847 3.96549L126.161 4.21886C126.523 4.2461 126.825 4.47223 126.947 4.80869C127.068 5.14379 126.978 5.50341 126.711 5.74588L121.638 10.3269C121.498 10.4591 121.306 10.5367 121.103 10.5394L121.104 10.5408Z" fill="#eb118a"/>
<path d="M27.9481 41.5797C27.8534 41.4271 27.7231 41.2746 27.5447 41.1451C27.3677 41.0157 27.2126 40.9095 27.0823 40.8278C26.9519 40.746 26.7625 40.6629 26.5142 40.5812C26.2768 40.4995 26.0874 40.4395 25.957 40.4055C25.8267 40.3714 25.6373 40.3237 25.3766 40.2529C25.1392 40.1943 24.9622 40.1589 24.8551 40.1235C24.7371 40.1003 24.5944 40.0527 24.4284 39.9941C24.2623 39.9355 24.132 39.8769 24.0496 39.8184C23.9673 39.7598 23.8959 39.6767 23.8369 39.595C23.7779 39.501 23.7423 39.3947 23.7423 39.2776C23.7423 39.0188 23.8603 38.8308 24.0977 38.6891C24.3351 38.5474 24.6191 38.4889 24.9388 38.4889C25.3066 38.4889 25.6016 38.5829 25.8514 38.7599C26.1011 38.937 26.2191 39.2067 26.2191 39.5473H28.0318C28.0318 38.7 27.7588 38.0421 27.2263 37.5599C26.6939 37.0776 25.9351 36.842 24.9759 36.842C24.0167 36.842 23.2702 37.0654 22.7254 37.4999C22.1807 37.9467 21.8966 38.5583 21.8966 39.3579C21.8966 39.5459 21.9199 39.7339 21.9556 39.911C21.9913 40.0881 22.0503 40.2407 22.0983 40.3701C22.1573 40.4995 22.241 40.6289 22.3467 40.746C22.4524 40.8632 22.5594 40.9694 22.6431 41.0512C22.7378 41.1329 22.8558 41.216 23.0218 41.2868C23.1879 41.3685 23.3182 41.4285 23.4129 41.4748C23.52 41.5225 23.6613 41.5688 23.8507 41.6274C24.04 41.6859 24.1827 41.7214 24.2774 41.7445C24.3721 41.7677 24.5148 41.8031 24.7152 41.8508C24.9526 41.9093 25.1419 41.957 25.2599 41.9802C25.3779 42.0156 25.533 42.0619 25.6977 42.1218C25.8747 42.1804 26.0051 42.2512 26.0888 42.3098C26.1711 42.3684 26.2425 42.4515 26.3138 42.5455C26.3728 42.6517 26.4085 42.7566 26.4085 42.886C26.4085 43.1912 26.2781 43.4268 26.0051 43.6039C25.732 43.781 25.4123 43.8627 25.0459 43.8627C24.8565 43.8627 24.6781 43.8396 24.5134 43.7919C24.3474 43.7442 24.1937 43.6747 24.0634 43.5807C23.933 43.4868 23.826 43.3573 23.7436 43.2048C23.6613 43.0522 23.6256 42.8751 23.6256 42.664H21.7772C21.7772 43.5576 22.0736 44.2755 22.6774 44.7808C23.2812 45.2985 24.0757 45.5573 25.0582 45.5573C25.662 45.5573 26.2068 45.4633 26.6692 45.2631C27.1426 45.0751 27.5227 44.7686 27.8301 44.3463C28.1265 43.9349 28.2802 43.4295 28.2802 42.8411C28.2802 42.5823 28.2445 42.3466 28.1732 42.1232C28.1251 41.923 28.0428 41.735 27.9481 41.5824V41.5797Z" fill="#eb118a"/>
<path d="M56.4259 44.3191C55.8331 44.7195 55.1347 44.9307 54.3292 44.9307C53.6184 44.9307 52.9789 44.7781 52.4094 44.4607C51.84 44.1433 51.4022 43.6965 51.0948 43.1312C50.7751 42.5673 50.6214 41.9202 50.6214 41.2024C50.6214 40.4845 50.7751 39.8388 51.0948 39.2626C51.4146 38.6864 51.8537 38.2396 52.4094 37.9331C52.9666 37.6157 53.606 37.4631 54.3168 37.4631C55.099 37.4631 55.7851 37.6511 56.3656 38.0393C56.946 38.4153 57.3728 38.9561 57.6335 39.6263H58.262C57.9889 38.779 57.4922 38.1088 56.7937 37.6157C56.0829 37.1212 55.265 36.8747 54.3182 36.8747C53.4894 36.8747 52.7539 37.0627 52.0911 37.4277C51.4283 37.7928 50.9178 38.3091 50.5514 38.9684C50.1837 39.6263 49.9943 40.3796 49.9943 41.2146C49.9943 42.4733 50.3977 43.5072 51.2142 44.3191C52.0321 45.1309 53.0626 45.53 54.3182 45.53C54.97 45.53 55.5614 45.4129 56.0952 45.1772C56.64 44.9416 57.0901 44.6133 57.4812 44.1774C57.8599 43.7428 58.144 43.2252 58.3223 42.6367H57.7062C57.4455 43.3424 57.0187 43.9063 56.4273 44.3177L56.4259 44.3191Z" fill="#eb118a"/>
<path d="M63.1197 36.8406C61.8517 36.8406 60.7978 37.252 59.969 38.0748C59.1402 38.8975 58.7258 39.9328 58.7258 41.1915C58.7258 42.4501 59.1402 43.4609 59.969 44.2836C60.7978 45.1064 61.8407 45.5178 63.1197 45.5178C64.3986 45.5178 65.4415 45.1064 66.2703 44.2836C67.0991 43.4609 67.5135 42.4256 67.5135 41.1915C67.5135 39.9573 67.0991 38.8989 66.2703 38.0748C65.4415 37.2629 64.3862 36.8406 63.1197 36.8406ZM66.8988 41.2037C66.8988 41.8971 66.7327 42.5332 66.413 43.1094C66.0933 43.6856 65.6432 44.1324 65.0737 44.4498C64.5042 44.7672 63.8538 44.932 63.1306 44.932C62.0411 44.932 61.1409 44.5792 60.4177 43.8736C59.7069 43.168 59.3515 42.2744 59.3515 41.216C59.3515 40.1576 59.7069 39.2517 60.4177 38.5352C61.1286 37.8173 62.0287 37.4645 63.1306 37.4645C63.8538 37.4645 64.4933 37.6293 65.0737 37.9467C65.6418 38.2764 66.0919 38.7232 66.413 39.2871C66.7327 39.8402 66.8988 40.4872 66.8988 41.2037Z" fill="#eb118a"/>
<path d="M74.1592 44.2836L68.7815 36.9809H68.2367V45.3897H68.8295V38.0516L74.2429 45.3897H74.7644V36.9809H74.1592V44.2836Z" fill="#eb118a"/>
<path d="M81.2673 41.9557C81.185 41.814 81.0546 41.6968 80.8996 41.5797C80.7335 41.4625 80.5922 41.3685 80.4728 41.2977C80.3425 41.2269 80.1654 41.156 79.9404 41.0866C79.7154 41.0157 79.526 40.9572 79.3956 40.9217C79.2653 40.8863 79.0636 40.84 78.8028 40.7801C78.5778 40.7324 78.4117 40.6983 78.2937 40.6629C78.1757 40.6398 78.0207 40.5921 77.8313 40.5335C77.6296 40.4749 77.4882 40.4164 77.3812 40.3687C77.2742 40.321 77.1685 40.2515 77.0258 40.1685C76.8954 40.0867 76.7884 39.9927 76.7184 39.8974C76.6484 39.802 76.5881 39.6862 76.5414 39.5446C76.4947 39.4029 76.47 39.2626 76.47 39.0978C76.47 38.7572 76.5647 38.4739 76.7431 38.2164C76.9201 37.9699 77.1808 37.7819 77.502 37.6402C77.834 37.4986 78.2004 37.44 78.6272 37.44C79.2557 37.44 79.7648 37.6048 80.1558 37.9345C80.5469 38.2641 80.7363 38.6987 80.7363 39.2394H81.3401C81.3401 38.5216 81.0917 37.9454 80.6059 37.5108C80.1202 37.0763 79.4574 36.8638 78.6395 36.8638C77.8217 36.8638 77.1232 37.064 76.6251 37.4754C76.116 37.8759 75.8663 38.4276 75.8663 39.1223C75.8663 39.3457 75.9019 39.5568 75.9609 39.7462C76.02 39.9355 76.0913 40.0867 76.1736 40.2161C76.256 40.3455 76.3754 40.4627 76.5414 40.5812C76.7074 40.6983 76.8488 40.7814 76.9682 40.8523C77.0985 40.9231 77.2646 40.9939 77.4896 41.0634C77.7147 41.1329 77.893 41.1928 78.022 41.216C78.1524 41.2514 78.3418 41.2868 78.6025 41.3454C78.8042 41.3808 78.9579 41.4162 79.0526 41.4394C79.1596 41.4625 79.29 41.498 79.467 41.5565C79.644 41.6042 79.7744 41.6505 79.8704 41.6982C79.9651 41.7336 80.0831 41.7922 80.2135 41.863C80.3562 41.9339 80.4509 42.0047 80.5209 42.0742C80.5908 42.1436 80.6636 42.239 80.7336 42.333C80.8035 42.427 80.8516 42.5441 80.8872 42.6735C80.9106 42.8029 80.9353 42.9446 80.9353 43.0972C80.9353 43.638 80.7226 44.0739 80.3068 44.4021C79.891 44.7304 79.3586 44.8966 78.7081 44.8966C77.985 44.8966 77.4045 44.7209 76.9668 44.3436C76.529 43.9785 76.304 43.4854 76.304 42.8738H75.6755C75.6755 43.6611 75.9596 44.2973 76.5167 44.7795C77.0738 45.2494 77.808 45.4851 78.7081 45.4851C79.5493 45.4851 80.2368 45.2617 80.7692 44.8271C81.3016 44.3926 81.5624 43.8041 81.5624 43.0754C81.5624 42.8397 81.5267 42.6286 81.4677 42.4406C81.4197 42.2526 81.3497 42.1 81.266 41.9584V41.9557H81.2673Z" fill="#eb118a"/>
<path d="M81.3977 37.5571H84.0982V45.3897H84.702V37.5571H87.4149V36.9809H81.3977V37.5571Z" fill="#eb118a"/>
<path d="M93.1728 41.0035C93.5639 40.5689 93.7532 40.039 93.7532 39.4397C93.7532 38.7218 93.5049 38.1347 93.0067 37.6756C92.5086 37.2166 91.8815 36.9823 91.1227 36.9823H87.9954V45.402H88.5991V41.863H90.98L93.1001 45.402H93.7875L91.6318 41.8153C92.2712 41.7091 92.7803 41.4394 93.1714 41.0035H93.1728ZM88.6115 41.2854V37.5571H91.0993C91.6921 37.5571 92.1889 37.7329 92.5676 38.0857C92.9464 38.4385 93.1481 38.8853 93.1481 39.4261C93.1481 39.9669 92.9587 40.4137 92.58 40.7556C92.2012 41.1084 91.7031 41.2732 91.0993 41.2732H88.6115V41.2854Z" fill="#eb118a"/>
<path d="M100.494 42.2376C100.494 42.7553 100.387 43.2143 100.162 43.6257C99.9365 44.0371 99.6291 44.3545 99.238 44.5779C98.8469 44.8013 98.3968 44.9184 97.8987 44.9184C97.1289 44.9184 96.5004 44.6719 96.0147 44.1774C95.5289 43.6829 95.2805 43.0372 95.2805 42.2485V36.9809H94.6767V42.2839C94.6767 42.8956 94.8194 43.4595 95.0911 43.954C95.3642 44.4485 95.7539 44.8353 96.2397 45.1064C96.7378 45.3775 97.2826 45.5178 97.8987 45.5178C98.8222 45.5178 99.592 45.2127 100.208 44.601C100.812 43.9894 101.121 43.213 101.121 42.2839V36.9809H100.492V42.2376H100.494Z" fill="#eb118a"/>
<path d="M108.383 44.3191C107.79 44.7195 107.091 44.9307 106.286 44.9307C105.575 44.9307 104.935 44.7781 104.366 44.4607C103.797 44.1433 103.359 43.6965 103.051 43.1312C102.732 42.5673 102.578 41.9202 102.578 41.2024C102.578 40.4845 102.732 39.8388 103.051 39.2626C103.371 38.6864 103.81 38.2396 104.366 37.9331C104.923 37.6157 105.563 37.4631 106.273 37.4631C107.056 37.4631 107.742 37.6511 108.322 38.0393C108.903 38.4153 109.329 38.9561 109.59 39.6263H110.219C109.945 38.779 109.449 38.1088 108.75 37.6157C108.039 37.1212 107.222 36.8747 106.275 36.8747C105.446 36.8747 104.71 37.0627 104.048 37.4277C103.385 37.7928 102.874 38.3091 102.508 38.9684C102.14 39.6263 101.951 40.3796 101.951 41.2146C101.951 42.4733 102.354 43.5072 103.171 44.3191C103.989 45.1309 105.019 45.53 106.275 45.53C106.927 45.53 107.518 45.4129 108.052 45.1772C108.597 44.9416 109.059 44.6133 109.438 44.1774C109.817 43.7428 110.101 43.2252 110.279 42.6367H109.663C109.402 43.3424 108.975 43.9063 108.384 44.3177H108.383V44.3191Z" fill="#eb118a"/>
<path d="M109.876 37.5571H112.576V45.3897H113.181V37.5571H115.894V36.9809H109.876V37.5571Z" fill="#eb118a"/>
<path d="M33.4096 36.7929C30.9698 36.7929 28.991 38.7572 28.991 41.1792C28.991 43.6012 30.9698 45.5655 33.4096 45.5655C35.8494 45.5655 37.8282 43.6012 37.8282 41.1792C37.8282 38.7572 35.8494 36.7929 33.4096 36.7929ZM33.4096 43.7905C31.9646 43.7905 30.7804 42.6258 30.7804 41.1806C30.7804 39.7353 31.9537 38.5706 33.4096 38.5706C34.8655 38.5706 36.0388 39.7353 36.0388 41.1806C36.0388 42.6258 34.8545 43.7905 33.4096 43.7905Z" fill="#eb118a"/>
<path d="M50.0163 36.9809H47.6711V38.6741H50.0163V36.9809Z" fill="#eb118a"/>
<path d="M47.6711 38.6741H45.8351V45.3884H47.6711V38.6741Z" fill="#eb118a"/>
<path d="M38.6446 36.9809V45.3897H40.4807V42.1668H43.3829V40.5213H40.4807V38.6741H45.8351V36.9809H38.6446Z" fill="#eb118a"/>
<path d="M4.62852 45.7273C4.06993 45.7273 3.59002 45.6102 3.18878 45.3759C2.78754 45.1416 2.48071 44.7862 2.26829 44.3098C2.05587 43.8256 1.94966 43.2164 1.94966 42.4823C1.94966 41.7404 2.0598 41.1312 2.28009 40.6548C2.50825 40.1784 2.82294 39.823 3.22418 39.5887C3.62542 39.3544 4.09353 39.2373 4.62852 39.2373C5.22644 39.2373 5.76143 39.3701 6.23347 39.6356C6.71339 39.9011 7.09102 40.276 7.36638 40.7602C7.64961 41.2444 7.79123 41.8185 7.79123 42.4823C7.79123 43.1383 7.64961 43.7085 7.36638 44.1927C7.09102 44.6769 6.71339 45.0557 6.23347 45.329C5.76143 45.5945 5.22644 45.7273 4.62852 45.7273ZM0.875755 45.6336V36.9412H2.71673V40.6079L2.59872 42.4706L2.63413 44.345V45.6336H0.875755ZM4.30989 44.2278C4.61672 44.2278 4.88814 44.1575 5.12417 44.0169C5.36806 43.8764 5.56081 43.6772 5.70242 43.4195C5.8519 43.154 5.92664 42.8416 5.92664 42.4823C5.92664 42.1152 5.8519 41.8028 5.70242 41.5451C5.56081 41.2874 5.36806 41.0882 5.12417 40.9477C4.88814 40.8071 4.61672 40.7368 4.30989 40.7368C4.00306 40.7368 3.7277 40.8071 3.48381 40.9477C3.23992 41.0882 3.04717 41.2874 2.90555 41.5451C2.76394 41.8028 2.69313 42.1152 2.69313 42.4823C2.69313 42.8416 2.76394 43.154 2.90555 43.4195C3.04717 43.6772 3.23992 43.8764 3.48381 44.0169C3.7277 44.1575 4.00306 44.2278 4.30989 44.2278Z" fill="#eb118a"/>
<path d="M10.0406 48C9.71014 48 9.38364 47.9492 9.06108 47.8477C8.73851 47.7462 8.47495 47.6056 8.2704 47.426L8.94306 46.1256C9.08468 46.2506 9.24596 46.3482 9.42691 46.4185C9.61573 46.4888 9.80061 46.5239 9.98156 46.5239C10.2412 46.5239 10.4457 46.4614 10.5952 46.3365C10.7526 46.2193 10.8942 46.0202 11.0201 45.739L11.3505 44.9659L11.4921 44.7667L13.7697 39.331H15.5399L12.6722 46.0202C12.4677 46.5278 12.2316 46.9261 11.9642 47.2151C11.7045 47.5041 11.4134 47.7071 11.0909 47.8243C10.7762 47.9414 10.4261 48 10.0406 48ZM11.1263 45.8796L8.294 39.331H10.194L12.389 44.6027L11.1263 45.8796Z" fill="#eb118a"/>
</svg>
