<?xml version="1.0" encoding="iso-8859-1"?>
<!-- Uploaded to: SVG Repo, www.svgrepo.com, Generator: SVG Repo Mixer Tools -->
<!DOCTYPE svg PUBLIC "-//W3C//DTD SVG 1.1//EN" "http://www.w3.org/Graphics/SVG/1.1/DTD/svg11.dtd">
<svg fill="#999999" height="800px" width="800px" version="1.1" id="Capa_1" xmlns="http://www.w3.org/2000/svg" xmlns:xlink="http://www.w3.org/1999/xlink"
	 viewBox="0 0 493.413 493.413" xml:space="preserve">
<g id="XMLID_207_">
	<path id="XMLID_212_" d="M237.689,409.091H53.33c-3.553,0-6.442-2.888-6.442-6.449v-350.2c0-3.562,2.889-6.45,6.442-6.45h262.985
		c3.563,0,6.449,2.889,6.449,6.45v46.399h46.898V31.149c0-17.055-13.829-30.885-30.886-30.885H30.886
		C13.829,0.265,0,14.095,0,31.149v431.113c0,17.056,13.829,30.886,30.886,30.886h214.016c-4.454-8.464-7.213-17.953-7.213-28.166
		V409.091z M184.83,470.558c-10.771,0-19.509-8.736-19.509-19.51c0-10.774,8.737-19.51,19.509-19.51
		c10.774,0,19.511,8.735,19.511,19.51C204.341,461.821,195.604,470.558,184.83,470.558z"/>
	<path id="XMLID_208_" d="M465.247,131.7H298.713c-15.555,0-28.166,12.611-28.166,28.167v305.115
		c0,15.555,12.61,28.166,28.166,28.166h40.063h126.472c15.553,0,28.166-12.611,28.166-28.166V159.867
		C493.413,144.312,480.8,131.7,465.247,131.7z M381.977,477.225c-9.829,0-17.785-7.966-17.785-17.794
		c0-9.827,7.956-17.793,17.785-17.793c9.819,0,17.793,7.966,17.793,17.793C399.769,469.259,391.796,477.225,381.977,477.225z
		 M461.91,423.588c0,3.249-2.633,5.88-5.88,5.88H307.932c-3.251,0-5.88-2.631-5.88-5.88V167.543c0-3.249,2.63-5.88,5.88-5.88
		h148.098c3.247,0,5.88,2.631,5.88,5.88V423.588z"/>
</g>
</svg>
