<?xml version="1.0" encoding="utf-8"?>
<!-- Generator: Adobe Illustrator 22.0.1, SVG Export Plug-In . SVG Version: 6.00 Build 0)  -->
<svg version="1.1" id="Layer_1" xmlns="http://www.w3.org/2000/svg" xmlns:xlink="http://www.w3.org/1999/xlink" x="0px" y="0px"
	 viewBox="0 0 215 215" style="enable-background:new 0 0 215 215;" xml:space="preserve">
<style type="text/css">
	.st0{fill:url(#SVGID_1_);}
	.st1{opacity:0.2;clip-path:url(#SVGID_3_);fill:#1473E6;}
	.st2{opacity:0.1;clip-path:url(#SVGID_5_);fill:#1473E6;}
	.st3{fill:#F9FBFC;}
	.st4{opacity:0.7;fill:#F9FBFC;}
	.st5{fill:url(#SVGID_6_);}
	.st6{fill:#F5F5F5;}
	.st7{fill:#60AFFF;}
	.st8{fill:#FFCC4D;}
	.st9{fill:#9BE4EC;}
	.st10{fill:#14CEE6;}
	.st11{fill:url(#SVGID_7_);}
	.st12{opacity:0.2;clip-path:url(#SVGID_9_);fill:#1473E6;}
	.st13{opacity:0.1;clip-path:url(#SVGID_11_);fill:#1473E6;}
	.st14{fill:url(#SVGID_12_);}
	.st15{fill:url(#SVGID_13_);}
	.st16{opacity:0.1;clip-path:url(#SVGID_15_);fill:#1473E6;}
	.st17{fill:#FFE49D;}
	.st18{clip-path:url(#SVGID_17_);fill:url(#SVGID_18_);}
	.st19{clip-path:url(#SVGID_17_);fill:url(#SVGID_19_);}
	.st20{fill:url(#SVGID_20_);}
	.st21{fill:url(#SVGID_21_);}
	.st22{opacity:0.25;clip-path:url(#SVGID_23_);fill:#1473E6;}
	.st23{fill:url(#SVGID_24_);}
	.st24{fill:url(#SVGID_25_);}
	.st25{opacity:0.1;clip-path:url(#SVGID_27_);fill:#1473E6;}
	.st26{clip-path:url(#SVGID_29_);fill:url(#SVGID_30_);}
	.st27{clip-path:url(#SVGID_29_);fill:url(#SVGID_31_);}
	.st28{fill:url(#SVGID_32_);}
	.st29{fill:url(#SVGID_33_);}
	.st30{opacity:0.25;clip-path:url(#SVGID_35_);fill:#1473E6;}
	.st31{fill:url(#SVGID_36_);}
	.st32{fill:url(#SVGID_37_);}
	.st33{opacity:0.2;clip-path:url(#SVGID_39_);fill:#1473E6;}
	.st34{opacity:0.1;clip-path:url(#SVGID_41_);fill:#1473E6;}
	.st35{fill:url(#SVGID_42_);}
	.st36{opacity:5.000000e-02;}
	.st37{opacity:5.000000e-02;clip-path:url(#SVGID_44_);}
	.st38{opacity:0.9;}
	.st39{fill:#FFFFFF;}
	.st40{opacity:0.9;fill:#FFFFFF;}
	.st41{fill:#EBEFF2;}
	.st42{opacity:5.000000e-02;clip-path:url(#SVGID_48_);}
	.st43{fill:url(#SVGID_51_);}
	.st44{opacity:0.1;clip-path:url(#SVGID_53_);fill:#1473E6;}
	.st45{clip-path:url(#SVGID_55_);fill:url(#SVGID_56_);}
	.st46{clip-path:url(#SVGID_55_);fill:url(#SVGID_57_);}
	.st47{fill:url(#SVGID_58_);}
	.st48{fill:url(#SVGID_59_);}
	.st49{opacity:0.25;clip-path:url(#SVGID_61_);fill:#1473E6;}
	.st50{fill:url(#SVGID_62_);}
	.st51{opacity:0.9;clip-path:url(#SVGID_66_);fill:#FFFFFF;}
	.st52{opacity:5.000000e-02;clip-path:url(#SVGID_68_);}
	.st53{opacity:0.9;clip-path:url(#SVGID_72_);fill:#FFFFFF;}
	.st54{opacity:5.000000e-02;clip-path:url(#SVGID_74_);}
	.st55{fill:none;}
	.st56{fill:url(#SVGID_75_);}
	.st57{opacity:0.2;clip-path:url(#SVGID_77_);fill:#1473E6;}
	.st58{opacity:0.1;clip-path:url(#SVGID_79_);fill:#1473E6;}
	.st59{fill:url(#SVGID_80_);}
	.st60{fill:url(#SVGID_81_);}
	.st61{opacity:0.1;clip-path:url(#SVGID_83_);fill:#1473E6;}
	.st62{clip-path:url(#SVGID_85_);fill:url(#SVGID_86_);}
	.st63{clip-path:url(#SVGID_85_);fill:url(#SVGID_87_);}
	.st64{fill:url(#SVGID_88_);}
	.st65{fill:url(#SVGID_89_);}
	.st66{opacity:0.25;clip-path:url(#SVGID_91_);fill:#1473E6;}
	.st67{fill:url(#SVGID_92_);}
	.st68{opacity:5.000000e-02;clip-path:url(#SVGID_94_);}
	.st69{clip-path:url(#SVGID_96_);fill:#FFFFFF;}
	.st70{opacity:5.000000e-02;clip-path:url(#SVGID_98_);}
</style>
<g>
	<g>
		<path class="st41" d="M161.7,174H72.2c-4.6,0-8.2-3.7-8.2-8.3V43.3c0-4.6,3.7-8.3,8.2-8.3h89.5c4.6,0,8.3,3.7,8.3,8.3v122.5
			C169.9,170.3,166.2,174,161.7,174z"/>
	</g>
	<g>
		<defs>
			<path id="SVGID_93_" d="M161.7,174H72.1c-4.5,0-8.2-3.7-8.2-8.2V43.2c0-4.5,3.7-8.2,8.2-8.2h89.6c4.5,0,8.2,3.7,8.2,8.2v122.6
				C169.9,170.3,166.2,174,161.7,174z"/>
		</defs>
		<clipPath id="SVGID_1_">
			<use xlink:href="#SVGID_93_"  style="overflow:visible;"/>
		</clipPath>
		<path style="opacity:5.000000e-02;clip-path:url(#SVGID_1_);" d="M94.1,175H53.7c-2.1,0-3.8-1.7-3.8-3.8v-50.3
			c0-2.1,1.7-3.8,3.8-3.8h40.3c2.1,0,3.8,1.7,3.8,3.8v50.3C97.9,173.3,96.2,175,94.1,175z"/>
	</g>
	<g>
		<path class="st39" d="M138.7,59.5H95.1c-1.7,0-3.2-1.4-3.2-3.2v-2.2c0-1.7,1.4-3.2,3.2-3.2h43.7c1.7,0,3.2,1.4,3.2,3.2v2.2
			C141.9,58.1,140.5,59.5,138.7,59.5z"/>
		<path class="st39" d="M130.4,82.5H80.9c-1.1,0-2-0.9-2-2v-3c0-1.1,0.9-2,2-2h49.5c1.1,0,2,0.9,2,2v3
			C132.4,81.6,131.5,82.5,130.4,82.5z"/>
		<path class="st39" d="M152.9,105h-72c-1.1,0-2-0.9-2-2v-3c0-1.1,0.9-2,2-2h72c1.1,0,2,0.9,2,2v3C154.9,104.1,154,105,152.9,105z"
			/>
		<path class="st39" d="M121.9,131h-48c-1.1,0-2-0.9-2-2v-3c0-1.1,0.9-2,2-2h48c1.1,0,2,0.9,2,2v3C123.9,130.1,123,131,121.9,131z"
			/>
		<path class="st39" d="M152.9,150h-79c-1.1,0-2-0.9-2-2v-3c0-1.1,0.9-2,2-2h79c1.1,0,2,0.9,2,2v3C154.9,149.1,154,150,152.9,150z"
			/>
	</g>
	<g>
		<path class="st41" d="M89.3,180H48.9c-2.1,0-3.8-1.7-3.8-3.8v-48.3c0-2.1,1.7-3.8,3.8-3.8h40.3c2.1,0,3.8,1.7,3.8,3.8v48.3
			C93.1,178.3,91.4,180,89.3,180z"/>
		<circle class="st39" cx="69.1" cy="145.5" r="9.5"/>
		<path class="st39" d="M83.4,164.8H54.7c-0.6,0-1.2-0.5-1.2-1.2v-0.2c0-0.6,0.5-1.2,1.2-1.2h28.7c0.6,0,1.2,0.5,1.2,1.2v0.2
			C84.6,164.2,84.1,164.8,83.4,164.8z"/>
		<path class="st39" d="M83.1,170.8H54.4c-0.6,0-1.2-0.5-1.2-1.2v-0.2c0-0.6,0.5-1.2,1.2-1.2h28.7c0.6,0,1.2,0.5,1.2,1.2v0.2
			C84.2,170.2,83.7,170.8,83.1,170.8z"/>
	</g>
</g>
</svg>
