<?xml version="1.0" encoding="utf-8"?>
<!-- Generator: Adobe Illustrator 22.0.1, SVG Export Plug-In . SVG Version: 6.00 Build 0)  -->
<svg version="1.1" id="Layer_1" xmlns="http://www.w3.org/2000/svg" xmlns:xlink="http://www.w3.org/1999/xlink" x="0px" y="0px"
	 viewBox="0 0 215 215" style="enable-background:new 0 0 215 215;" xml:space="preserve">
<style type="text/css">
	.st0{fill:url(#SVGID_1_);}
	.st1{fill:url(#SVGID_4_);}
	.st2{fill:none;}
	.st3{fill:url(#SVGID_5_);}
	.st4{opacity:0.2;fill:#1473E6;}
	.st5{fill:#60AFFF;}
	.st6{fill:#FFCC4D;}
	.st7{fill:#9BE4EC;}
	.st8{fill:#14CEE6;}
	.st9{opacity:0.1;clip-path:url(#SVGID_7_);fill:#1473E6;}
	.st10{fill:url(#SVGID_8_);}
	.st11{fill:#F5F5F5;}
	.st12{fill:url(#search-2_3_);}
	.st13{fill:#EBEFF2;}
	.st14{opacity:5.000000e-02;}
	.st15{fill:#FFFFFF;}
	.st16{fill:url(#SVGID_13_);}
	.st17{fill:url(#SVGID_16_);}
	.st18{opacity:0.1;clip-path:url(#SVGID_18_);fill:#1473E6;}
	.st19{fill:url(#SVGID_19_);}
	.st20{fill:url(#search-2_4_);}
</style>
<g>
	<path class="st13" d="M155.3,179H65.8c-4.6,0-8.3-3.7-8.3-8.3V48.3c0-4.6,3.7-8.3,8.3-8.3h89.5c4.6,0,8.3,3.7,8.3,8.3v122.5
		C163.5,175.3,159.8,179,155.3,179z"/>
</g>
<g>
	<defs>
		<path id="SVGID_9_" d="M155.3,179H65.7c-4.5,0-8.2-3.7-8.2-8.2V48.2c0-4.5,3.7-8.2,8.2-8.2h89.6c4.5,0,8.2,3.7,8.2,8.2v122.6
			C163.5,175.3,159.8,179,155.3,179z"/>
	</defs>
	<clipPath id="SVGID_1_">
		<use xlink:href="#SVGID_9_"  style="overflow:visible;"/>
	</clipPath>
</g>
<path class="st14" d="M93,175.2v-50.3c0-2.1-1.7-3.8-3.8-3.8H57.5v49.8c0,4.6,3.7,8.3,8.3,8.3h23.4C91.3,179,93,177.3,93,175.2z"/>
<path class="st2" d="M155.2,179H65.4c-4.4,0-8-4.1-8-8.6V47.8c0-4.4,3.6-8,8-8L155,40c4.6,0,8.4,3.4,8.4,8v122.2
	C164,175,160,179,155.2,179z"/>
<g>
	<defs>
		<path id="SVGID_11_" d="M155.2,179H65.5c-4.4,0-8-3.6-8-8V48c0-4.4,3.6-8,8-8h89.7c4.6,0,8.3,3.7,8.3,8.3v122.5
			C163.5,175.3,159.8,179,155.2,179z"/>
	</defs>
	<clipPath id="SVGID_3_">
		<use xlink:href="#SVGID_11_"  style="overflow:visible;"/>
	</clipPath>
</g>
<g>
	<path class="st13" d="M82.8,185H42.5c-2.1,0-3.8-1.7-3.8-3.8v-48.3c0-2.1,1.7-3.8,3.8-3.8h40.3c2.1,0,3.8,1.7,3.8,3.8v48.3
		C86.7,183.3,85,185,82.8,185z"/>
	<circle class="st15" cx="62.7" cy="150.5" r="9.5"/>
	<path class="st15" d="M77,169.8H48.3c-0.6,0-1.2-0.5-1.2-1.2v-0.2c0-0.6,0.5-1.2,1.2-1.2H77c0.6,0,1.2,0.5,1.2,1.2v0.2
		C78.2,169.2,77.7,169.8,77,169.8z"/>
	<path class="st15" d="M76.7,175.8H48c-0.6,0-1.2-0.5-1.2-1.2v-0.2c0-0.6,0.5-1.2,1.2-1.2h28.7c0.6,0,1.2,0.5,1.2,1.2v0.2
		C77.8,175.2,77.3,175.8,76.7,175.8z"/>
</g>
<path id="search-2_1_" class="st15" d="M108,75c-13.2,0-24,10.7-24,23.9s10.7,24,23.9,24c5,0,9.9-1.5,13.9-4.4l11.3,11.3
	c1.5,1.6,4,1.6,5.6,0.1c1.6-1.5,1.6-4,0.1-5.6c0,0,0,0,0,0l-11.2-11.4c7.7-10.8,5.2-25.7-5.6-33.4C117.9,76.5,113,75,108,75z
	 M108,83c8.8,0,16,7.2,16,16s-7.2,16-16,16s-16-7.2-16-16S99.2,83,108,83z"/>
</svg>
