<?xml version="1.0" encoding="utf-8"?>
<!-- Generator: Adobe Illustrator 22.0.1, SVG Export Plug-In . SVG Version: 6.00 Build 0)  -->
<svg version="1.1" id="Layer_1" xmlns="http://www.w3.org/2000/svg" xmlns:xlink="http://www.w3.org/1999/xlink" x="0px" y="0px"
	 viewBox="0 0 215 215" style="enable-background:new 0 0 215 215;" xml:space="preserve">
<style type="text/css">
	.st0{fill:url(#SVGID_1_);}
	.st1{opacity:0.2;clip-path:url(#SVGID_3_);fill:#1473E6;}
	.st2{opacity:0.1;clip-path:url(#SVGID_5_);fill:#1473E6;}
	.st3{fill:#F9FBFC;}
	.st4{opacity:0.7;fill:#F9FBFC;}
	.st5{fill:url(#SVGID_6_);}
	.st6{fill:#F5F5F5;}
	.st7{fill:#60AFFF;}
	.st8{fill:#FFCC4D;}
	.st9{fill:#9BE4EC;}
	.st10{fill:#14CEE6;}
	.st11{fill:url(#SVGID_7_);}
	.st12{opacity:0.2;clip-path:url(#SVGID_9_);fill:#1473E6;}
	.st13{opacity:0.1;clip-path:url(#SVGID_11_);fill:#1473E6;}
	.st14{fill:url(#SVGID_12_);}
	.st15{fill:url(#SVGID_13_);}
	.st16{opacity:0.1;clip-path:url(#SVGID_15_);fill:#1473E6;}
	.st17{fill:#FFE49D;}
	.st18{clip-path:url(#SVGID_17_);fill:url(#SVGID_18_);}
	.st19{clip-path:url(#SVGID_17_);fill:url(#SVGID_19_);}
	.st20{fill:url(#SVGID_20_);}
	.st21{fill:url(#SVGID_21_);}
	.st22{opacity:0.25;clip-path:url(#SVGID_23_);fill:#1473E6;}
	.st23{fill:url(#SVGID_24_);}
	.st24{fill:url(#SVGID_25_);}
	.st25{opacity:0.1;clip-path:url(#SVGID_27_);fill:#1473E6;}
	.st26{clip-path:url(#SVGID_29_);fill:url(#SVGID_30_);}
	.st27{clip-path:url(#SVGID_29_);fill:url(#SVGID_31_);}
	.st28{fill:url(#SVGID_32_);}
	.st29{fill:url(#SVGID_33_);}
	.st30{opacity:0.25;clip-path:url(#SVGID_35_);fill:#1473E6;}
	.st31{fill:url(#SVGID_36_);}
	.st32{fill:url(#SVGID_37_);}
	.st33{opacity:0.2;clip-path:url(#SVGID_39_);fill:#1473E6;}
	.st34{opacity:0.1;clip-path:url(#SVGID_41_);fill:#1473E6;}
	.st35{fill:url(#SVGID_42_);}
	.st36{opacity:5.000000e-02;}
	.st37{opacity:5.000000e-02;clip-path:url(#SVGID_44_);}
	.st38{opacity:0.9;}
	.st39{fill:#FFFFFF;}
	.st40{opacity:0.9;fill:#FFFFFF;}
	.st41{fill:#EBEFF2;}
	.st42{opacity:5.000000e-02;clip-path:url(#SVGID_48_);}
	.st43{fill:url(#SVGID_51_);}
	.st44{opacity:0.1;clip-path:url(#SVGID_53_);fill:#1473E6;}
	.st45{clip-path:url(#SVGID_55_);fill:url(#SVGID_56_);}
	.st46{clip-path:url(#SVGID_55_);fill:url(#SVGID_57_);}
	.st47{fill:url(#SVGID_58_);}
	.st48{fill:url(#SVGID_59_);}
	.st49{opacity:0.25;clip-path:url(#SVGID_61_);fill:#1473E6;}
	.st50{fill:url(#SVGID_62_);}
	.st51{opacity:0.9;clip-path:url(#SVGID_66_);fill:#FFFFFF;}
	.st52{opacity:5.000000e-02;clip-path:url(#SVGID_68_);}
	.st53{opacity:0.9;clip-path:url(#SVGID_72_);fill:#FFFFFF;}
	.st54{opacity:5.000000e-02;clip-path:url(#SVGID_74_);}
	.st55{fill:none;}
	.st56{fill:url(#SVGID_75_);}
	.st57{opacity:0.2;clip-path:url(#SVGID_77_);fill:#1473E6;}
	.st58{opacity:0.1;clip-path:url(#SVGID_79_);fill:#1473E6;}
	.st59{fill:url(#SVGID_80_);}
	.st60{fill:url(#SVGID_81_);}
	.st61{opacity:0.1;clip-path:url(#SVGID_83_);fill:#1473E6;}
	.st62{clip-path:url(#SVGID_85_);fill:url(#SVGID_86_);}
	.st63{clip-path:url(#SVGID_85_);fill:url(#SVGID_87_);}
	.st64{fill:url(#SVGID_88_);}
	.st65{fill:url(#SVGID_89_);}
	.st66{opacity:0.25;clip-path:url(#SVGID_91_);fill:#1473E6;}
	.st67{fill:url(#SVGID_92_);}
	.st68{opacity:5.000000e-02;clip-path:url(#SVGID_94_);}
	.st69{clip-path:url(#SVGID_96_);fill:#FFFFFF;}
	.st70{opacity:5.000000e-02;clip-path:url(#SVGID_98_);}
</style>
<g>
	<g>
		<g class="st36">
			<path class="st55" d="M154.2,179L154.2,179c4.6,0,8.3-3.7,8.3-8.2v-0.1C162.4,175.3,158.7,179,154.2,179z"/>
			<path class="st55" d="M64.7,40L64.7,40c-4.6,0-8.3,3.7-8.3,8.2v0.1C56.4,43.7,60.1,40,64.7,40z"/>
			<path class="st55" d="M154.2,40L154.2,40c4.5,0,8.2,3.7,8.2,8.3v-0.1C162.4,43.7,158.7,40,154.2,40z"/>
			<path d="M154.2,179L154.2,179c4.6,0,8.3-3.7,8.3-8.3v0C162.4,175.3,158.7,179,154.2,179z"/>
			<path d="M64.7,40L64.7,40c-4.6,0-8.3,3.7-8.3,8.3v0C56.4,43.7,60.1,40,64.7,40z"/>
			<path d="M154.2,40L154.2,40c4.6,0,8.3,3.7,8.3,8.3v0C162.4,43.7,158.7,40,154.2,40z"/>
		</g>
		<path class="st36" d="M82.8,129H42.4c-2.1,0-3.8,1.7-3.8,3.8v48.3c0,2.1,1.7,3.8,3.8,3.8h40.3c2.1,0,3.8-1.7,3.8-3.8v-48.3
			C86.6,130.7,84.9,129,82.8,129z M62.6,141c5.2,0,9.5,4.3,9.5,9.5c0,5.2-4.3,9.5-9.5,9.5c-5.2,0-9.5-4.3-9.5-9.5
			C53.1,145.3,57.3,141,62.6,141z M76.9,176H48.2c-0.6,0-1.2-0.5-1.2-1.2c0-0.6,0.5-1.2,1.2-1.2h28.7c0.6,0,1.2,0.5,1.2,1.2
			C78.1,175.5,77.6,176,76.9,176z M78.1,168.3c0,0.6-0.5,1.2-1.2,1.2H48.2c-0.6,0-1.2-0.5-1.2-1.2v-0.2c0-0.6,0.5-1.2,1.2-1.2h28.7
			c0.6,0,1.2,0.5,1.2,1.2V168.3z"/>
	</g>
	<g class="st36">
		<path class="st55" d="M73.4,86.5h49.5c1.1,0,2-0.9,2-2v-3c0-1.1-0.9-2-2-2H73.4c-1.1,0-2,0.9-2,2v3C71.4,85.6,72.3,86.5,73.4,86.5
			z"/>
		<path class="st55" d="M87.6,63.5h43.7c1.8,0,3.2-1.4,3.2-3.2v-2.2c0-1.8-1.4-3.2-3.2-3.2H87.6c-1.8,0-3.2,1.4-3.2,3.2v2.2
			C84.4,62.1,85.8,63.5,87.6,63.5z"/>
		<path class="st55" d="M145.4,102h-72c-1.1,0-2,0.9-2,2v3c0,1.1,0.9,2,2,2h72c1.1,0,2-0.9,2-2v-3C147.4,102.9,146.5,102,145.4,102z
			"/>
		<path d="M162.4,46.4c0-0.3-0.1-0.5-0.1-0.8v0c-0.1-0.2-0.1-0.5-0.2-0.7c0-0.1,0-0.1-0.1-0.2c-0.1-0.2-0.1-0.4-0.2-0.6
			c0,0,0-0.1,0-0.1c0-0.1-0.1-0.1-0.1-0.2c-0.2-0.4-0.4-0.8-0.7-1.2c-0.1-0.2-0.3-0.4-0.5-0.6c-0.2-0.2-0.3-0.4-0.5-0.6
			c-0.1-0.1-0.2-0.2-0.3-0.3c-0.1-0.1-0.1-0.1-0.2-0.2c0,0-0.1,0-0.1-0.1c0,0-0.1-0.1-0.1-0.1c-0.1-0.1-0.1-0.1-0.2-0.2
			c-0.1,0-0.1-0.1-0.2-0.1c0,0-0.1,0-0.1,0c0,0-0.1,0-0.1-0.1c-0.1-0.1-0.2-0.1-0.3-0.2c0,0-0.1,0-0.1,0c-0.2-0.1-0.4-0.2-0.6-0.3
			c-0.2-0.1-0.4-0.2-0.6-0.3c0,0-0.1,0-0.1,0c-0.2-0.1-0.3-0.1-0.5-0.2c-0.3-0.1-0.5-0.1-0.8-0.2c-0.2,0-0.4-0.1-0.6-0.1
			c0,0,0,0,0,0c-0.3,0-0.6,0-0.9,0H64.7c-0.3,0-0.6,0-0.8,0c0,0,0,0,0,0c-0.2,0-0.4,0-0.6,0.1c-0.3,0-0.6,0.1-0.8,0.2
			c-0.2,0-0.3,0.1-0.5,0.2c0,0-0.1,0-0.1,0c-0.2,0.1-0.4,0.2-0.6,0.3c-0.2,0.1-0.4,0.2-0.6,0.3c0,0-0.1,0-0.1,0
			c-0.1,0.1-0.2,0.1-0.3,0.2c0,0-0.1,0-0.1,0.1c0,0-0.1,0-0.1,0c-0.1,0-0.1,0.1-0.2,0.1c-0.1,0.1-0.1,0.1-0.2,0.2c0,0-0.1,0-0.1,0.1
			c0,0-0.1,0-0.1,0.1c-0.1,0.1-0.1,0.1-0.2,0.2c-0.1,0.1-0.2,0.2-0.3,0.3c-0.2,0.2-0.4,0.4-0.5,0.6c-0.2,0.2-0.3,0.4-0.5,0.6
			c-0.3,0.4-0.5,0.8-0.7,1.2c0,0-0.1,0.1-0.1,0.2c0,0,0,0.1,0,0.1c-0.1,0.2-0.1,0.4-0.2,0.6c0,0,0,0.1,0,0.1c0,0,0,0.1,0,0.1
			c-0.1,0.2-0.1,0.5-0.2,0.7v0c-0.1,0.3-0.1,0.5-0.1,0.8c0,0.3,0,0.6,0,0.9V121h32.2c2.1,0,3.8,1.7,3.8,3.8v3.2h22c1.1,0,2,0.9,2,2
			v3c0,1.1-0.9,2-2,2h-22v12h53c1.1,0,2,0.9,2,2v3c0,1.1-0.9,2-2,2h-53v24h61.7c0.3,0,0.6,0,0.9,0c0,0,0,0,0,0
			c0.2,0,0.4-0.1,0.6-0.1c0.3,0,0.6-0.1,0.8-0.2c0.2,0,0.3-0.1,0.5-0.2c0,0,0.1,0,0.1,0c0.2-0.1,0.4-0.2,0.6-0.3
			c0.2-0.1,0.4-0.2,0.6-0.3c0,0,0.1,0,0.1,0c0.1-0.1,0.2-0.2,0.3-0.2c0,0,0.1,0,0.1-0.1c0,0,0,0,0.1,0c0.1,0,0.1-0.1,0.2-0.1
			c0.1-0.1,0.1-0.1,0.2-0.2c0,0,0.1,0,0.1-0.1c0,0,0.1,0,0.1-0.1l0,0c0.1-0.1,0.1-0.1,0.2-0.2c0.1-0.1,0.2-0.2,0.3-0.3
			c0.2-0.2,0.4-0.4,0.5-0.6c0.2-0.2,0.3-0.4,0.5-0.6c0.3-0.4,0.5-0.8,0.7-1.2c0-0.1,0.1-0.1,0.1-0.2c0,0,0-0.1,0-0.1
			c0.1-0.2,0.1-0.4,0.2-0.5c0-0.1,0-0.1,0.1-0.2c0.1-0.2,0.1-0.5,0.2-0.7v0c0.1-0.3,0.1-0.5,0.1-0.8c0-0.3,0-0.6,0-0.8V47.3
			C162.4,47,162.4,46.7,162.4,46.4z M84.4,58.2c0-1.8,1.4-3.2,3.2-3.2h43.7c1.8,0,3.2,1.4,3.2,3.2v2.2c0,1.8-1.4,3.2-3.2,3.2H87.6
			c-1.8,0-3.2-1.4-3.2-3.2V58.2z M71.4,81.5c0-1.1,0.9-2,2-2h49.5c1.1,0,2,0.9,2,2v3c0,1.1-0.9,2-2,2H73.4c-1.1,0-2-0.9-2-2V81.5z
			 M147.4,107c0,1.1-0.9,2-2,2h-72c-1.1,0-2-0.9-2-2v-3c0-1.1,0.9-2,2-2h72c1.1,0,2,0.9,2,2V107z"/>
	</g>
</g>
</svg>
