<?xml version="1.0" encoding="utf-8"?>
<!-- Generator: Adobe Illustrator 22.0.1, SVG Export Plug-In . SVG Version: 6.00 Build 0)  -->
<svg version="1.1" id="Layer_1" xmlns="http://www.w3.org/2000/svg" xmlns:xlink="http://www.w3.org/1999/xlink" x="0px" y="0px"
	 viewBox="0 0 215 215" style="enable-background:new 0 0 215 215;" xml:space="preserve">
<style type="text/css">
	.st0{fill:url(#SVGID_1_);}
	.st1{opacity:0.2;clip-path:url(#SVGID_3_);fill:#1473E6;}
	.st2{opacity:0.1;clip-path:url(#SVGID_5_);fill:#1473E6;}
	.st3{fill:#F9FBFC;}
	.st4{opacity:0.7;fill:#F9FBFC;}
	.st5{fill:url(#SVGID_6_);}
	.st6{fill:#F5F5F5;}
	.st7{fill:#60AFFF;}
	.st8{fill:#FFCC4D;}
	.st9{fill:#9BE4EC;}
	.st10{fill:#14CEE6;}
	.st11{fill:url(#SVGID_7_);}
	.st12{opacity:0.2;clip-path:url(#SVGID_9_);fill:#1473E6;}
	.st13{opacity:0.1;clip-path:url(#SVGID_11_);fill:#1473E6;}
	.st14{fill:url(#SVGID_12_);}
	.st15{fill:url(#SVGID_13_);}
	.st16{opacity:0.1;clip-path:url(#SVGID_15_);fill:#1473E6;}
	.st17{fill:#FFE49D;}
	.st18{clip-path:url(#SVGID_17_);fill:url(#SVGID_18_);}
	.st19{clip-path:url(#SVGID_17_);fill:url(#SVGID_19_);}
	.st20{fill:url(#SVGID_20_);}
	.st21{fill:url(#SVGID_21_);}
	.st22{opacity:0.25;clip-path:url(#SVGID_23_);fill:#1473E6;}
	.st23{fill:url(#SVGID_24_);}
	.st24{fill:url(#SVGID_25_);}
	.st25{opacity:0.1;clip-path:url(#SVGID_27_);fill:#1473E6;}
	.st26{clip-path:url(#SVGID_29_);fill:url(#SVGID_30_);}
	.st27{clip-path:url(#SVGID_29_);fill:url(#SVGID_31_);}
	.st28{fill:url(#SVGID_32_);}
	.st29{fill:url(#SVGID_33_);}
	.st30{opacity:0.25;clip-path:url(#SVGID_35_);fill:#1473E6;}
	.st31{fill:url(#SVGID_36_);}
	.st32{fill:url(#SVGID_37_);}
	.st33{opacity:0.2;clip-path:url(#SVGID_39_);fill:#1473E6;}
	.st34{opacity:0.1;clip-path:url(#SVGID_41_);fill:#1473E6;}
	.st35{fill:url(#SVGID_42_);}
	.st36{opacity:5.000000e-02;}
	.st37{opacity:5.000000e-02;clip-path:url(#SVGID_44_);}
	.st38{opacity:0.9;}
	.st39{fill:#FFFFFF;}
	.st40{opacity:0.9;fill:#FFFFFF;}
	.st41{fill:#EBEFF2;}
	.st42{opacity:5.000000e-02;clip-path:url(#SVGID_48_);}
	.st43{fill:url(#SVGID_51_);}
	.st44{opacity:0.1;clip-path:url(#SVGID_53_);fill:#1473E6;}
	.st45{clip-path:url(#SVGID_55_);fill:url(#SVGID_56_);}
	.st46{clip-path:url(#SVGID_55_);fill:url(#SVGID_57_);}
	.st47{fill:url(#SVGID_58_);}
	.st48{fill:url(#SVGID_59_);}
	.st49{opacity:0.25;clip-path:url(#SVGID_61_);fill:#1473E6;}
	.st50{fill:url(#SVGID_62_);}
	.st51{opacity:0.9;clip-path:url(#SVGID_66_);fill:#FFFFFF;}
	.st52{opacity:5.000000e-02;clip-path:url(#SVGID_68_);}
	.st53{opacity:0.9;clip-path:url(#SVGID_72_);fill:#FFFFFF;}
	.st54{opacity:5.000000e-02;clip-path:url(#SVGID_74_);}
	.st55{fill:none;}
	.st56{fill:url(#SVGID_75_);}
	.st57{opacity:0.2;clip-path:url(#SVGID_77_);fill:#1473E6;}
	.st58{opacity:0.1;clip-path:url(#SVGID_79_);fill:#1473E6;}
	.st59{fill:url(#SVGID_80_);}
	.st60{fill:url(#SVGID_81_);}
	.st61{opacity:0.1;clip-path:url(#SVGID_83_);fill:#1473E6;}
	.st62{clip-path:url(#SVGID_85_);fill:url(#SVGID_86_);}
	.st63{clip-path:url(#SVGID_85_);fill:url(#SVGID_87_);}
	.st64{fill:url(#SVGID_88_);}
	.st65{fill:url(#SVGID_89_);}
	.st66{opacity:0.25;clip-path:url(#SVGID_91_);fill:#1473E6;}
	.st67{fill:url(#SVGID_92_);}
	.st68{opacity:5.000000e-02;clip-path:url(#SVGID_94_);}
	.st69{clip-path:url(#SVGID_96_);fill:#FFFFFF;}
	.st70{opacity:5.000000e-02;clip-path:url(#SVGID_98_);}
</style>
<g>
	<g>
		<path class="st55" d="M57.6,47.3v0.2c0-4.5,3.7-8.2,8.2-8.2h-0.2"/>
		<path class="st55" d="M65.9,39.3L65.9,39.3c-4.6,0-8.2,3.7-8.2,8.2v0C57.6,42.9,61.3,39.3,65.9,39.3z"/>
		<path class="st55" d="M65.9,39.3L65.9,39.3c-4.6,0-8.3,3.7-8.3,8.2v0C57.6,42.9,61.3,39.3,65.9,39.3z"/>
		<path class="st55" d="M155.4,39.3L155.4,39.3c4.5,0,8.2,3.7,8.2,8.3v0C163.6,42.9,159.9,39.3,155.4,39.3z"/>
		<path class="st36" d="M163.6,47.3c0-0.1,0-0.3,0-0.4c0-0.1,0-0.3-0.1-0.4c0-0.3-0.1-0.6-0.2-0.8c0-0.1-0.1-0.2-0.1-0.3
			c0-0.1-0.1-0.2-0.1-0.3c-0.1-0.2-0.1-0.4-0.2-0.6c0,0,0-0.1,0-0.1c-0.1-0.2-0.2-0.4-0.3-0.6c0-0.1-0.1-0.2-0.1-0.2
			c-0.1-0.1-0.1-0.2-0.2-0.3c-0.2-0.3-0.4-0.6-0.6-0.9c-0.2-0.2-0.3-0.4-0.5-0.6c-0.1-0.2-0.3-0.3-0.5-0.4c-0.2-0.1-0.3-0.3-0.5-0.4
			h0c-0.2-0.1-0.4-0.3-0.6-0.4c-0.4-0.3-0.9-0.5-1.4-0.7c-0.1,0-0.2-0.1-0.3-0.1c-0.3-0.1-0.6-0.2-0.9-0.3c-0.2,0-0.4-0.1-0.6-0.1
			c0,0-0.1,0-0.1,0c-0.1,0-0.3,0-0.4,0c-0.1,0-0.3,0-0.4,0c-0.1,0-0.1,0-0.2,0c0,0,0,0,0,0H65.6c-0.1,0-0.1,0-0.2,0h-0.1
			c0,0-0.1,0-0.1,0c-0.1,0-0.1,0-0.2,0c-0.1,0-0.1,0-0.1,0c-0.1,0-0.2,0-0.3,0c-0.1,0-0.1,0-0.2,0c0,0,0,0-0.1,0c0,0-0.1,0-0.2,0h0
			c0,0-0.1,0-0.1,0c-0.1,0-0.2,0-0.3,0.1c0,0,0,0,0,0h0c-0.1,0-0.1,0-0.2,0.1c0,0,0,0-0.1,0c0,0-0.1,0-0.1,0c-0.1,0-0.3,0.1-0.4,0.1
			c-0.2,0.1-0.3,0.1-0.5,0.2c0,0-0.1,0-0.1,0c-0.1,0-0.2,0.1-0.3,0.1c-0.1,0-0.1,0.1-0.2,0.1c0,0-0.1,0-0.1,0
			c-0.1,0-0.1,0.1-0.2,0.1c-0.1,0.1-0.3,0.2-0.4,0.3c-0.1,0.1-0.2,0.2-0.3,0.2c-0.1,0.1-0.2,0.2-0.3,0.3c-0.1,0.1-0.2,0.2-0.3,0.3
			c-0.1,0.1-0.2,0.2-0.3,0.3c0,0-0.1,0.1-0.1,0.1c0,0-0.1,0.1-0.1,0.2h0c0,0,0,0-0.1,0.1c-0.1,0.1-0.1,0.2-0.2,0.2h0
			c0,0-0.1,0.1-0.1,0.1c0,0.1-0.1,0.1-0.1,0.2c-0.1,0.1-0.1,0.2-0.2,0.2c0,0,0,0-0.1,0.1h0c0,0.1-0.1,0.1-0.1,0.2
			c0,0-0.1,0.1-0.1,0.1c0,0,0,0,0,0c-0.1,0.2-0.3,0.5-0.4,0.7c-0.1,0.1-0.1,0.2-0.2,0.4c0,0.1-0.1,0.1-0.1,0.2c0,0,0,0.1,0,0.1
			c0,0,0,0,0,0c0,0,0,0,0,0c0,0.1-0.1,0.3-0.1,0.4c0,0,0,0,0,0c0,0,0,0,0,0.1c0,0,0,0.1,0,0.1c0,0.1,0,0.1-0.1,0.2c0,0,0,0,0,0
			c0,0,0,0,0,0c0,0,0,0.1,0,0.1c0,0.1,0,0.2-0.1,0.3c0,0,0,0,0,0c0,0,0,0,0,0.1c0,0.2-0.1,0.4-0.1,0.5c0,0.1,0,0.1,0,0.2
			c0,0.1,0,0.2,0,0.3c0,0,0,0,0,0v0c0,0.1,0,0.3,0,0.4v76.8h9.8L80,103.4c0.7-1.2,2.5-1.2,3.2,0l18.7,30.8l32.5-56.5
			c0.7-1.3,2.5-1.3,3.3,0l25.9,45.1V47.5C163.6,47.4,163.6,47.3,163.6,47.3z M97.6,83.3c-5.5,0-10-4.5-10-10c0-5.5,4.5-10,10-10
			c5.5,0,10,4.5,10,10C107.6,78.8,103.2,83.3,97.6,83.3z"/>
		<path class="st36" d="M163.6,146.9h-53.9h-15l0,0h-3.1v7.8V178v0.3h63.5c0,0,0,0,0,0c0,0,0,0,0,0h0.2h0h0c4.5,0,8.2-3.7,8.2-8.2v0
			v0V146.9z M163.5,171.1C163.5,171.1,163.5,171.1,163.5,171.1c0,0,0,0.1,0,0.2C163.5,171.2,163.5,171.2,163.5,171.1z M162.2,174.5
			C162.2,174.5,162.2,174.5,162.2,174.5C162.2,174.5,162.2,174.5,162.2,174.5C162.2,174.6,162.1,174.6,162.2,174.5
			C162.1,174.6,162.2,174.6,162.2,174.5z M159.2,177.2c0,0,0.1,0,0.1-0.1C159.3,177.2,159.2,177.2,159.2,177.2
			C159.2,177.2,159.2,177.2,159.2,177.2z"/>
	</g>
	<path class="st36" d="M81.5,128.8H41.2c-2.1,0-3.8,1.7-3.8,3.8v48.3c0,2.1,1.7,3.8,3.8,3.8h40.3c2.1,0,3.8-1.7,3.8-3.8v-48.3
		C85.4,130.5,83.7,128.8,81.5,128.8z M61.4,140.8c5.2,0,9.5,4.3,9.5,9.5s-4.3,9.5-9.5,9.5s-9.5-4.3-9.5-9.5S56.1,140.8,61.4,140.8z
		 M75.7,175.8H47c-0.6,0-1.2-0.5-1.2-1.2c0-0.6,0.5-1.2,1.2-1.2h28.7c0.6,0,1.2,0.5,1.2,1.2C76.9,175.2,76.4,175.8,75.7,175.8z
		 M76.9,168.1c0,0.6-0.5,1.2-1.2,1.2H47c-0.6,0-1.2-0.5-1.2-1.2v-0.2c0-0.6,0.5-1.2,1.2-1.2h28.7c0.6,0,1.2,0.5,1.2,1.2V168.1z"/>
</g>
<path class="st55" d="M171.1,43L171.1,43c0-4.6-3.7-8.3-8.2-8.3h0C167.4,34.8,171.1,38.4,171.1,43z"/>
<path class="st55" d="M73.4,34.8h-0.2c-4.4,0-8,3.6-8,8V43C65.1,38.4,68.8,34.8,73.4,34.8z"/>
<path class="st55" d="M73.4,34.8L73.4,34.8c-4.6,0-8.3,3.7-8.3,8.2v0C65.1,38.4,68.8,34.8,73.4,34.8z"/>
<path class="st55" d="M171.1,43v-0.2c0-4.4-3.6-8-8-8h-0.2C167.4,34.8,171.1,38.4,171.1,43z"/>
</svg>
