<svg id="Layer_1" data-name="Layer 1" xmlns="http://www.w3.org/2000/svg" viewBox="0 0 254.81 222.67"><defs><style>.cls-1{fill:#f2f2f2;}</style></defs><path class="cls-1" d="M139.14,45.25a18.43,18.43,0,0,0-22.6-.07L51.13,95.68l21.48,9.19,54.8,9.95,54.79-9.55L203.68,96Zm25.7,44.81a2.3,2.3,0,0,1-2.3,2.3H123.08a2.3,2.3,0,0,1,0-4.6h39.46A2.3,2.3,0,0,1,164.84,90.06ZM106.07,72.2h42.67a2.31,2.31,0,0,1,0,4.61H106.07a2.31,2.31,0,0,1,0-4.61ZM92.28,87.76h18.55a2.3,2.3,0,1,1,0,4.6H92.28a2.3,2.3,0,0,1,0-4.6Zm70.27,20.36H92.26a2.31,2.31,0,0,1,0-4.61h70.29a2.31,2.31,0,1,1,0,4.61Z"/><polygon class="cls-1" points="103.42 126.39 72.68 109.22 51.13 95.68 51.13 178.14 107.23 128.52 103.42 126.39"/><polygon class="cls-1" points="182.89 108.91 148.74 128.15 203.68 178.14 203.68 95.99 182.89 108.91"/><path class="cls-1" d="M202.67,180.53h0a3,3,0,0,1-2,.78H54.2a3,3,0,0,1-2-.7l-.1-.08,36-27.77,26.21-20.24,1.16-.89,1.05-.82a18.44,18.44,0,0,1,22.6.07l.63.5.46.35,1.14.9,25.77,20.13Z"/><path class="cls-1" d="M180.66,56.7H74.15a1.54,1.54,0,0,0-1.54,1.54v46.63l42.53,20.69a23,23,0,0,1,25.44.09l41.62-20.38v-47h0A1.54,1.54,0,0,0,180.66,56.7ZM164.84,90.06a2.3,2.3,0,0,1-2.31,2.3H123.08a2.3,2.3,0,0,1,0-4.6h39.45A2.3,2.3,0,0,1,164.84,90.06ZM106.07,72.2h42.67a2.31,2.31,0,0,1,0,4.61H106.07a2.31,2.31,0,0,1,0-4.61ZM92.27,87.76h18.56a2.3,2.3,0,0,1,0,4.6H92.27a2.3,2.3,0,0,1,0-4.6Zm70.28,20.36H92.26a2.31,2.31,0,0,1,0-4.61h70.29a2.31,2.31,0,0,1,0,4.61Z"/></svg>