<?xml version="1.0" encoding="utf-8"?>
<!-- Generator: Adobe Illustrator 22.0.1, SVG Export Plug-In . SVG Version: 6.00 Build 0)  -->
<svg version="1.1" id="Layer_1" xmlns="http://www.w3.org/2000/svg" xmlns:xlink="http://www.w3.org/1999/xlink" x="0px" y="0px"
	 viewBox="0 0 215 215" style="enable-background:new 0 0 215 215;" xml:space="preserve">
<style type="text/css">
	.st0{fill:url(#SVGID_1_);}
	.st1{opacity:0.2;clip-path:url(#SVGID_3_);fill:#1473E6;}
	.st2{opacity:0.1;clip-path:url(#SVGID_5_);fill:#1473E6;}
	.st3{fill:#F9FBFC;}
	.st4{opacity:0.7;fill:#F9FBFC;}
	.st5{fill:url(#SVGID_6_);}
	.st6{fill:#F5F5F5;}
	.st7{fill:#60AFFF;}
	.st8{fill:#FFCC4D;}
	.st9{fill:#9BE4EC;}
	.st10{fill:#14CEE6;}
	.st11{fill:url(#SVGID_7_);}
	.st12{opacity:0.2;clip-path:url(#SVGID_9_);fill:#1473E6;}
	.st13{opacity:0.1;clip-path:url(#SVGID_11_);fill:#1473E6;}
	.st14{fill:url(#SVGID_12_);}
	.st15{fill:url(#SVGID_13_);}
	.st16{opacity:0.1;clip-path:url(#SVGID_15_);fill:#1473E6;}
	.st17{fill:#FFE49D;}
	.st18{clip-path:url(#SVGID_17_);fill:url(#SVGID_18_);}
	.st19{clip-path:url(#SVGID_17_);fill:url(#SVGID_19_);}
	.st20{fill:url(#SVGID_20_);}
	.st21{fill:url(#SVGID_21_);}
	.st22{opacity:0.25;clip-path:url(#SVGID_23_);fill:#1473E6;}
	.st23{fill:url(#SVGID_24_);}
	.st24{fill:url(#SVGID_25_);}
	.st25{opacity:0.1;clip-path:url(#SVGID_27_);fill:#1473E6;}
	.st26{clip-path:url(#SVGID_29_);fill:url(#SVGID_30_);}
	.st27{clip-path:url(#SVGID_29_);fill:url(#SVGID_31_);}
	.st28{fill:url(#SVGID_32_);}
	.st29{fill:url(#SVGID_33_);}
	.st30{opacity:0.25;clip-path:url(#SVGID_35_);fill:#1473E6;}
	.st31{fill:url(#SVGID_36_);}
	.st32{fill:url(#SVGID_37_);}
	.st33{opacity:0.2;clip-path:url(#SVGID_39_);fill:#1473E6;}
	.st34{opacity:0.1;clip-path:url(#SVGID_41_);fill:#1473E6;}
	.st35{fill:url(#SVGID_42_);}
	.st36{opacity:5.000000e-02;}
	.st37{opacity:5.000000e-02;clip-path:url(#SVGID_44_);}
	.st38{opacity:0.9;}
	.st39{fill:#FFFFFF;}
	.st40{opacity:0.9;fill:#FFFFFF;}
	.st41{fill:#EBEFF2;}
	.st42{opacity:5.000000e-02;clip-path:url(#SVGID_48_);}
	.st43{fill:url(#SVGID_51_);}
	.st44{opacity:0.1;clip-path:url(#SVGID_53_);fill:#1473E6;}
	.st45{clip-path:url(#SVGID_55_);fill:url(#SVGID_56_);}
	.st46{clip-path:url(#SVGID_55_);fill:url(#SVGID_57_);}
	.st47{fill:url(#SVGID_58_);}
	.st48{fill:url(#SVGID_59_);}
	.st49{opacity:0.25;clip-path:url(#SVGID_61_);fill:#1473E6;}
	.st50{fill:url(#SVGID_62_);}
	.st51{opacity:0.9;clip-path:url(#SVGID_66_);fill:#FFFFFF;}
	.st52{opacity:5.000000e-02;clip-path:url(#SVGID_68_);}
	.st53{opacity:0.9;clip-path:url(#SVGID_72_);fill:#FFFFFF;}
	.st54{opacity:5.000000e-02;clip-path:url(#SVGID_74_);}
	.st55{fill:none;}
	.st56{fill:url(#SVGID_75_);}
	.st57{opacity:0.2;clip-path:url(#SVGID_77_);fill:#1473E6;}
	.st58{opacity:0.1;clip-path:url(#SVGID_79_);fill:#1473E6;}
	.st59{fill:url(#SVGID_80_);}
	.st60{fill:url(#SVGID_83_);}
	.st61{opacity:0.1;clip-path:url(#SVGID_85_);fill:#1473E6;}
	.st62{clip-path:url(#SVGID_87_);fill:url(#SVGID_88_);}
	.st63{clip-path:url(#SVGID_87_);fill:url(#SVGID_89_);}
	.st64{fill:url(#SVGID_90_);}
	.st65{fill:url(#SVGID_91_);}
	.st66{opacity:0.25;clip-path:url(#SVGID_93_);fill:#1473E6;}
	.st67{fill:url(#SVGID_94_);}
	.st68{opacity:5.000000e-02;clip-path:url(#SVGID_96_);}
	.st69{clip-path:url(#SVGID_98_);fill:#FFFFFF;}
	.st70{opacity:5.000000e-02;clip-path:url(#SVGID_100_);}
</style>
<g>
	<g>
		<defs>
			<path id="SVGID_81_" d="M158.2,178H68.8c-4.6,0-8.3-3.7-8.3-8.3V47.3c0-4.6,3.7-8.3,8.3-8.3h89.5c4.6,0,8.3,3.7,8.3,8.3v122.5
				C166.5,174.3,162.8,178,158.2,178z"/>
		</defs>
		<clipPath id="SVGID_1_">
			<use xlink:href="#SVGID_81_"  style="overflow:visible;"/>
		</clipPath>
	</g>
	<path class="st36" d="M85.8,128H45.5c-2.1,0-3.8,1.7-3.8,3.8v48.3c0,2.1,1.7,3.8,3.8,3.8h40.3c2.1,0,3.8-1.7,3.8-3.8v-48.3
		C89.7,129.7,88,128,85.8,128z M65.7,140c5.2,0,9.5,4.3,9.5,9.5s-4.3,9.5-9.5,9.5s-9.5-4.3-9.5-9.5S60.4,140,65.7,140z M80.8,173.6
		c0,0.6-0.5,1.2-1.2,1.2H51c-0.6,0-1.2-0.5-1.2-1.2v-0.2c0-0.6,0.5-1.2,1.2-1.2h28.7c0.6,0,1.2,0.5,1.2,1.2V173.6z M81.2,167.6
		c0,0.6-0.5,1.2-1.2,1.2H51.3c-0.6,0-1.2-0.5-1.2-1.2v-0.2c0-0.6,0.5-1.2,1.2-1.2H80c0.6,0,1.2,0.5,1.2,1.2V167.6z"/>
	<g>
		<circle class="st36" cx="111" cy="98" r="16"/>
		<path class="st36" d="M158.3,39H68.8c-4.6,0-8.3,3.7-8.3,8.3V121h30.2c2.1,0,3.8,1.7,3.8,3.8L95,178h63.3c4.6,0,8.3-3.7,8.3-8.3
			V47.3C166.5,42.7,162.8,39,158.3,39z M141.7,128.9c-1.6,1.5-4.1,1.5-5.6-0.1l-11.3-11.3c-4.1,2.9-8.9,4.4-13.9,4.4
			c-13.2,0-24-10.8-23.9-24c0-13.2,10.8-24,24-23.9c5,0,9.9,1.5,13.9,4.4c10.8,7.7,13.3,22.6,5.6,33.4l11.2,11.4c0,0,0,0,0,0
			C143.3,124.9,143.3,127.4,141.7,128.9z"/>
	</g>
</g>
</svg>
